G04*
G04 #@! TF.GenerationSoftware,Altium Limited,Altium Designer,19.0.4 (130)*
G04*
G04 Layer_Color=255*
%FSLAX25Y25*%
%MOIN*%
G70*
G01*
G75*
%ADD82C,0.20000*%
%ADD83C,0.06693*%
%ADD84R,0.06693X0.06693*%
%ADD85C,0.05906*%
%ADD86R,0.05906X0.05906*%
%ADD87R,0.07480X0.07480*%
%ADD88C,0.07480*%
%ADD89C,0.04724*%
%ADD90R,0.04724X0.04724*%
%ADD91R,0.04724X0.04724*%
%ADD92R,0.06693X0.06693*%
%ADD93C,0.09843*%
%ADD94R,0.09843X0.09843*%
%ADD95O,0.17717X0.11811*%
%ADD96R,0.07087X0.07087*%
%ADD97C,0.07087*%
%ADD98R,0.05906X0.05906*%
%ADD99C,0.07000*%
%ADD100C,0.05118*%
D82*
X295276Y19685D02*
D03*
X19685D02*
D03*
Y295276D02*
D03*
X295276D02*
D03*
D83*
X192000Y68500D02*
D03*
Y78500D02*
D03*
Y88500D02*
D03*
Y98500D02*
D03*
Y108500D02*
D03*
Y118500D02*
D03*
Y128500D02*
D03*
Y138500D02*
D03*
Y148500D02*
D03*
Y158500D02*
D03*
Y168500D02*
D03*
Y178500D02*
D03*
Y188500D02*
D03*
Y198500D02*
D03*
Y208500D02*
D03*
Y218500D02*
D03*
Y228500D02*
D03*
Y238500D02*
D03*
Y248500D02*
D03*
Y258500D02*
D03*
X132000Y68500D02*
D03*
Y78500D02*
D03*
Y88500D02*
D03*
Y98500D02*
D03*
Y108500D02*
D03*
Y118500D02*
D03*
Y128500D02*
D03*
Y138500D02*
D03*
Y148500D02*
D03*
Y158500D02*
D03*
Y168500D02*
D03*
Y178500D02*
D03*
Y188500D02*
D03*
Y198500D02*
D03*
Y208500D02*
D03*
Y218500D02*
D03*
Y228500D02*
D03*
Y238500D02*
D03*
Y248500D02*
D03*
X130500Y6000D02*
D03*
X120500Y36000D02*
D03*
X130500D02*
D03*
X19500Y202000D02*
D03*
X9500D02*
D03*
X19500Y172000D02*
D03*
X31000Y134000D02*
D03*
D84*
X132000Y258500D02*
D03*
D85*
X63500Y300500D02*
D03*
X79248D02*
D03*
X71374D02*
D03*
X186126Y46500D02*
D03*
X194000D02*
D03*
X153126D02*
D03*
X161000D02*
D03*
X264500Y18000D02*
D03*
Y41000D02*
D03*
X239437Y18000D02*
D03*
Y41000D02*
D03*
X6000Y255894D02*
D03*
Y240146D02*
D03*
Y248020D02*
D03*
D86*
X87122Y300500D02*
D03*
X201874Y46500D02*
D03*
X168874D02*
D03*
X272374Y18000D02*
D03*
Y41000D02*
D03*
X231563Y18000D02*
D03*
Y41000D02*
D03*
D87*
X96142Y156114D02*
D03*
D88*
X113858D02*
D03*
Y182886D02*
D03*
X96142D02*
D03*
D89*
X67453Y45500D02*
D03*
X90000Y42547D02*
D03*
X14000Y92547D02*
D03*
X86500Y93000D02*
D03*
D90*
X61547Y45500D02*
D03*
X80594Y93000D02*
D03*
D91*
X90000Y48453D02*
D03*
X14000Y98453D02*
D03*
D92*
X120500Y6000D02*
D03*
X9500Y172000D02*
D03*
X31000Y144000D02*
D03*
D93*
X203279Y15000D02*
D03*
X169890D02*
D03*
D94*
X189500D02*
D03*
X156110D02*
D03*
D95*
X270669Y264429D02*
D03*
Y212697D02*
D03*
D96*
X260000Y224783D02*
D03*
D97*
Y234626D02*
D03*
X260000Y252343D02*
D03*
X260000Y242500D02*
D03*
D98*
X6000Y232272D02*
D03*
D99*
X56000Y248500D02*
D03*
X26472D02*
D03*
D100*
X221500Y126000D02*
D03*
Y107102D02*
D03*
X108000Y88500D02*
D03*
Y69602D02*
D03*
M02*
