G04*
G04 #@! TF.GenerationSoftware,Altium Limited,Altium Designer,19.0.4 (130)*
G04*
G04 Layer_Color=8421504*
%FSLAX25Y25*%
%MOIN*%
G70*
G01*
G75*
%ADD21R,0.07874X0.05906*%
%ADD22R,0.05000X0.03500*%
%ADD23R,0.04724X0.01968*%
%ADD24R,0.04000X0.05500*%
%ADD25R,0.01968X0.03937*%
%ADD26R,0.08661X0.02362*%
%ADD27R,0.08661X0.02362*%
%ADD28R,0.02953X0.06693*%
%ADD29R,0.12205X0.06693*%
%ADD30R,0.03500X0.05000*%
G04:AMPARAMS|DCode=31|XSize=50mil|YSize=35mil|CornerRadius=0mil|HoleSize=0mil|Usage=FLASHONLY|Rotation=90.000|XOffset=0mil|YOffset=0mil|HoleType=Round|Shape=Octagon|*
%AMOCTAGOND31*
4,1,8,0.00875,0.02500,-0.00875,0.02500,-0.01750,0.01625,-0.01750,-0.01625,-0.00875,-0.02500,0.00875,-0.02500,0.01750,-0.01625,0.01750,0.01625,0.00875,0.02500,0.0*
%
%ADD31OCTAGOND31*%

%ADD32O,0.05906X0.01968*%
%ADD33R,0.05906X0.01968*%
%ADD34R,0.05512X0.01575*%
%ADD35R,0.07480X0.07087*%
%ADD36O,0.08661X0.02362*%
%ADD37R,0.04528X0.01181*%
D21*
X99000Y270500D02*
D03*
Y284279D02*
D03*
X103500Y11721D02*
D03*
Y25500D02*
D03*
X90500Y11721D02*
D03*
Y25500D02*
D03*
X45500Y161500D02*
D03*
Y175279D02*
D03*
D22*
X116000Y280500D02*
D03*
Y273020D02*
D03*
X114500Y248020D02*
D03*
Y255500D02*
D03*
X101000D02*
D03*
Y248020D02*
D03*
X115000Y224791D02*
D03*
Y232272D02*
D03*
X119000Y199520D02*
D03*
Y207000D02*
D03*
X102000Y199520D02*
D03*
Y207000D02*
D03*
X90000D02*
D03*
Y199520D02*
D03*
X98000Y141000D02*
D03*
Y133520D02*
D03*
Y111020D02*
D03*
Y118500D02*
D03*
X59500Y95500D02*
D03*
Y88020D02*
D03*
X43500Y95500D02*
D03*
Y88020D02*
D03*
X89000Y65520D02*
D03*
Y73000D02*
D03*
X29500D02*
D03*
Y65520D02*
D03*
X12000Y73000D02*
D03*
Y65520D02*
D03*
X59000Y65461D02*
D03*
Y72941D02*
D03*
X74000Y65520D02*
D03*
Y73000D02*
D03*
X250500Y168520D02*
D03*
Y176000D02*
D03*
X43500Y72941D02*
D03*
Y65461D02*
D03*
X55764Y169000D02*
D03*
Y161520D02*
D03*
X38500Y111020D02*
D03*
Y118500D02*
D03*
X77500Y169000D02*
D03*
Y161520D02*
D03*
X217000Y72500D02*
D03*
Y65020D02*
D03*
X233000D02*
D03*
Y72500D02*
D03*
X265500Y168520D02*
D03*
Y176000D02*
D03*
X279500Y168520D02*
D03*
Y176000D02*
D03*
X214000Y256520D02*
D03*
Y264000D02*
D03*
X221500Y168520D02*
D03*
Y176000D02*
D03*
X207000Y168520D02*
D03*
Y176000D02*
D03*
X237000D02*
D03*
Y168520D02*
D03*
X203000Y263480D02*
D03*
Y256000D02*
D03*
X290500Y65020D02*
D03*
Y72500D02*
D03*
D23*
X94500Y229449D02*
D03*
X103500Y233189D02*
D03*
Y225709D02*
D03*
D24*
X68000Y213500D02*
D03*
X59000D02*
D03*
D25*
X60760Y199953D02*
D03*
X68240D02*
D03*
X64500D02*
D03*
X68240Y190504D02*
D03*
X60760D02*
D03*
D26*
X76236Y142500D02*
D03*
Y147500D02*
D03*
Y152500D02*
D03*
X55764Y137500D02*
D03*
Y142500D02*
D03*
Y147500D02*
D03*
Y152500D02*
D03*
D27*
X76236Y137500D02*
D03*
D28*
X68555Y29000D02*
D03*
X59500D02*
D03*
X50445D02*
D03*
D29*
X59500Y5000D02*
D03*
D30*
X272240Y8250D02*
D03*
X264759D02*
D03*
X271980Y29500D02*
D03*
X264500D02*
D03*
X231760Y8500D02*
D03*
X239241D02*
D03*
X231563Y29500D02*
D03*
X239043D02*
D03*
X55500Y111500D02*
D03*
X74000D02*
D03*
D31*
X55500Y118500D02*
D03*
X74000D02*
D03*
D32*
X268835Y99000D02*
D03*
Y104000D02*
D03*
Y109000D02*
D03*
Y114000D02*
D03*
Y119000D02*
D03*
Y124000D02*
D03*
Y129000D02*
D03*
Y134000D02*
D03*
X247165Y99000D02*
D03*
Y104000D02*
D03*
Y109000D02*
D03*
Y114000D02*
D03*
Y119000D02*
D03*
Y124000D02*
D03*
Y129000D02*
D03*
D33*
Y134000D02*
D03*
D34*
X291500Y115941D02*
D03*
Y118500D02*
D03*
Y121059D02*
D03*
Y123618D02*
D03*
Y126177D02*
D03*
D35*
X301933Y105311D02*
D03*
Y136807D02*
D03*
D36*
X152051Y290500D02*
D03*
Y285500D02*
D03*
Y280500D02*
D03*
Y275500D02*
D03*
X170949Y290500D02*
D03*
Y285500D02*
D03*
Y280500D02*
D03*
Y275500D02*
D03*
D37*
X274197Y67823D02*
D03*
Y62705D02*
D03*
Y65264D02*
D03*
Y70382D02*
D03*
Y72941D02*
D03*
Y75500D02*
D03*
Y78059D02*
D03*
Y80618D02*
D03*
X249000Y62705D02*
D03*
Y65264D02*
D03*
Y67823D02*
D03*
Y70382D02*
D03*
Y72941D02*
D03*
Y75500D02*
D03*
Y78059D02*
D03*
Y80618D02*
D03*
M02*
