M48
;Layer_Color=9474304
;FILE_FORMAT=2:5
INCH,LZ
;TYPE=PLATED
T1F00S00C0.01600
T2F00S00C0.02362
T3F00S00C0.03150
T4F00S00C0.03543
T5F00S00C0.03937
T6F00S00C0.05906
T7F00S00C0.09055
T8F00S00C0.12500
%
T01
X0021Y00455
X0051Y00385
X00485Y00555
X00785Y0029553
X02235Y0055
X0229Y005
X02505Y0024
X0246223Y0009
X03085Y00525
X0271874Y0057
X0262874Y0073
X0244Y00705
X023899Y0081
X02535Y01295
X0261374Y0128
X028Y01435
X023176Y014776
X02215Y01605
X02105Y0158
X0208846Y0153654
X0169001Y0117461
X0157501Y0065461
X0182Y0203
X0080234Y02005
X0065809Y0174
X00705Y01565
X00535Y0128
X005313Y018663
X0031Y01675
X0028Y0091
X00185Y0079
X0043Y0227
X00555Y0224783
X00905Y025
X0108Y02615
X0169721Y0240961
X016989Y0309
T02
X0061547Y00455
X0067453
X009Y0042547
Y0048453
X02215Y0107102
Y0126
X0108Y00885
Y0069602
X00865Y0093
X0080594
X0014Y0092547
Y0098453
T03
X0153126Y00465
X0161
X0168874
X0186126
X0194
X0201874
X0231563Y0041
X0239437
Y0018
X0231563
X02645
X0272374
Y0041
X02645
X0293469Y0113185
X0293469Y0128933
X0192Y01285
Y01185
Y01085
Y00985
Y00885
Y00785
Y00685
X0132
Y00785
Y00885
Y00985
Y01085
Y01185
Y01285
Y01385
Y01485
Y01585
Y01685
Y01785
Y01885
Y01985
Y02085
X0192
Y01985
Y01885
Y01785
Y01685
Y01585
Y01485
Y01385
X0006Y0232272
Y0240146
Y024802
Y0255894
X00635Y03005
X0071374
X0079248
X0087122
X0132Y02585
Y02485
Y02385
Y02285
Y02185
X0192
Y02285
Y02385
Y02485
Y02585
T04
X01205Y0006
X01305
Y0036
X01205
X0031Y0134
Y0144
X00195Y0172
X00095
Y0202
X00195
X0026472Y02485
X0056
T05
X0096142Y0156114
X0113858
Y0182886
X0096142
X026Y0224783
Y0234626
Y02425
X026Y0252343
T06
X015611Y0015
X016989
X01895
X0203279
T07
X0270669Y0212697
Y0264429
T08
X0019685Y0019685
X0295276
X0019685Y0295276
X0295276
M30
