G04*
G04 #@! TF.GenerationSoftware,Altium Limited,Altium Designer,19.0.4 (130)*
G04*
G04 Layer_Color=128*
%FSLAX25Y25*%
%MOIN*%
G70*
G01*
G75*
%ADD10C,0.00200*%
D10*
X289026Y19685D02*
X301526D01*
X295276Y13435D02*
Y25935D01*
X13435Y19685D02*
X25935D01*
X19685Y13435D02*
Y25935D01*
X13435Y295276D02*
X25935D01*
X19685Y289026D02*
Y301526D01*
X289026Y295276D02*
X301526D01*
X295276Y289026D02*
Y301526D01*
X190425Y68500D02*
X193575D01*
X192000Y66925D02*
Y70075D01*
X190425Y78500D02*
X193575D01*
X192000Y76925D02*
Y80075D01*
X190425Y88500D02*
X193575D01*
X192000Y86925D02*
Y90075D01*
X190425Y98500D02*
X193575D01*
X192000Y96925D02*
Y100075D01*
X190425Y108500D02*
X193575D01*
X192000Y106925D02*
Y110075D01*
X190425Y118500D02*
X193575D01*
X192000Y116925D02*
Y120075D01*
X190425Y128500D02*
X193575D01*
X192000Y126925D02*
Y130075D01*
X190425Y138500D02*
X193575D01*
X192000Y136925D02*
Y140075D01*
X190425Y148500D02*
X193575D01*
X192000Y146925D02*
Y150075D01*
X190425Y158500D02*
X193575D01*
X192000Y156925D02*
Y160075D01*
X190425Y168500D02*
X193575D01*
X192000Y166925D02*
Y170075D01*
X190425Y178500D02*
X193575D01*
X192000Y176925D02*
Y180075D01*
X190425Y188500D02*
X193575D01*
X192000Y186925D02*
Y190075D01*
X190425Y198500D02*
X193575D01*
X192000Y196925D02*
Y200075D01*
X190425Y208500D02*
X193575D01*
X192000Y206925D02*
Y210075D01*
X190425Y218500D02*
X193575D01*
X192000Y216925D02*
Y220075D01*
X190425Y228500D02*
X193575D01*
X192000Y226925D02*
Y230075D01*
X190425Y238500D02*
X193575D01*
X192000Y236925D02*
Y240075D01*
X190425Y248500D02*
X193575D01*
X192000Y246925D02*
Y250075D01*
X190425Y258500D02*
X193575D01*
X192000Y256925D02*
Y260075D01*
X130425Y68500D02*
X133575D01*
X132000Y66925D02*
Y70075D01*
X130425Y78500D02*
X133575D01*
X132000Y76925D02*
Y80075D01*
X130425Y88500D02*
X133575D01*
X132000Y86925D02*
Y90075D01*
X130425Y98500D02*
X133575D01*
X132000Y96925D02*
Y100075D01*
X130425Y108500D02*
X133575D01*
X132000Y106925D02*
Y110075D01*
X130425Y118500D02*
X133575D01*
X132000Y116925D02*
Y120075D01*
X130425Y128500D02*
X133575D01*
X132000Y126925D02*
Y130075D01*
X130425Y138500D02*
X133575D01*
X132000Y136925D02*
Y140075D01*
X130425Y148500D02*
X133575D01*
X132000Y146925D02*
Y150075D01*
X130425Y158500D02*
X133575D01*
X132000Y156925D02*
Y160075D01*
X130425Y168500D02*
X133575D01*
X132000Y166925D02*
Y170075D01*
X130425Y178500D02*
X133575D01*
X132000Y176925D02*
Y180075D01*
X130425Y188500D02*
X133575D01*
X132000Y186925D02*
Y190075D01*
X130425Y198500D02*
X133575D01*
X132000Y196925D02*
Y200075D01*
X130425Y208500D02*
X133575D01*
X132000Y206925D02*
Y210075D01*
X130425Y218500D02*
X133575D01*
X132000Y216925D02*
Y220075D01*
X130425Y228500D02*
X133575D01*
X132000Y226925D02*
Y230075D01*
X130425Y238500D02*
X133575D01*
X132000Y236925D02*
Y240075D01*
X130425Y248500D02*
X133575D01*
X132000Y246925D02*
Y250075D01*
X130425Y258500D02*
X133575D01*
X132000Y256925D02*
Y260075D01*
X61925Y300500D02*
X65075D01*
X63500Y298925D02*
Y302075D01*
X85547Y300500D02*
X88697D01*
X87122Y298925D02*
Y302075D01*
X77673Y300500D02*
X80823D01*
X79248Y298925D02*
Y302075D01*
X69799Y300500D02*
X72949D01*
X71374Y298925D02*
Y302075D01*
X94173Y156114D02*
X98110D01*
X96142Y154146D02*
Y158083D01*
X111890Y156114D02*
X115827D01*
X113858Y154146D02*
Y158083D01*
X111890Y182886D02*
X115827D01*
X113858Y180917D02*
Y184854D01*
X94173Y182886D02*
X98110D01*
X96142Y180917D02*
Y184854D01*
X66272Y45500D02*
X68634D01*
X67453Y44319D02*
Y46681D01*
X60366Y45500D02*
X62728D01*
X61547Y44319D02*
Y46681D01*
X88819Y42547D02*
X91181D01*
X90000Y41366D02*
Y43728D01*
X88819Y48453D02*
X91181D01*
X90000Y47272D02*
Y49634D01*
X118728Y6000D02*
X122272D01*
X120500Y4228D02*
Y7772D01*
X128728Y6000D02*
X132272D01*
X130500Y4228D02*
Y7772D01*
X118728Y36000D02*
X122272D01*
X120500Y34228D02*
Y37772D01*
X128728Y36000D02*
X132272D01*
X130500Y34228D02*
Y37772D01*
X184551Y46500D02*
X187701D01*
X186126Y44925D02*
Y48075D01*
X192425Y46500D02*
X195575D01*
X194000Y44925D02*
Y48075D01*
X200299Y46500D02*
X203449D01*
X201874Y44925D02*
Y48075D01*
X151551Y46500D02*
X154701D01*
X153126Y44925D02*
Y48075D01*
X159425Y46500D02*
X162575D01*
X161000Y44925D02*
Y48075D01*
X167299Y46500D02*
X170449D01*
X168874Y44925D02*
Y48075D01*
X200327Y15000D02*
X206232D01*
X203279Y12047D02*
Y17953D01*
X186547Y15000D02*
X192453D01*
X189500Y12047D02*
Y17953D01*
X166937Y15000D02*
X172843D01*
X169890Y12047D02*
Y17953D01*
X153157Y15000D02*
X159063D01*
X156110Y12047D02*
Y17953D01*
X262925Y18000D02*
X266075D01*
X264500Y16425D02*
Y19575D01*
X270799Y18000D02*
X273949D01*
X272374Y16425D02*
Y19575D01*
X262925Y41000D02*
X266075D01*
X264500Y39425D02*
Y42575D01*
X270799Y41000D02*
X273949D01*
X272374Y39425D02*
Y42575D01*
X237862Y18000D02*
X241012D01*
X239437Y16425D02*
Y19575D01*
X229988Y18000D02*
X233138D01*
X231563Y16425D02*
Y19575D01*
X237862Y41000D02*
X241012D01*
X239437Y39425D02*
Y42575D01*
X229988Y41000D02*
X233138D01*
X231563Y39425D02*
Y42575D01*
X17728Y202000D02*
X21272D01*
X19500Y200228D02*
Y203772D01*
X7728Y202000D02*
X11272D01*
X9500Y200228D02*
Y203772D01*
X17728Y172000D02*
X21272D01*
X19500Y170228D02*
Y173772D01*
X7728Y172000D02*
X11272D01*
X9500Y170228D02*
Y173772D01*
X12819Y98453D02*
X15181D01*
X14000Y97272D02*
Y99634D01*
X12819Y92547D02*
X15181D01*
X14000Y91366D02*
Y93728D01*
X29228Y144000D02*
X32772D01*
X31000Y142228D02*
Y145772D01*
X29228Y134000D02*
X32772D01*
X31000Y132228D02*
Y135772D01*
X266142Y264429D02*
X275197D01*
X270669Y259902D02*
Y268957D01*
X266142Y212697D02*
X275197D01*
X270669Y208169D02*
Y217224D01*
X258032Y224783D02*
X261968D01*
X260000Y222815D02*
Y226752D01*
X258032Y234626D02*
X261968D01*
X260000Y232658D02*
Y236595D01*
X258032Y252343D02*
X261968D01*
X260000Y250374D02*
Y254311D01*
X258032Y242500D02*
X261968D01*
X260000Y240531D02*
Y244468D01*
X4425Y255894D02*
X7575D01*
X6000Y254319D02*
Y257469D01*
X4425Y232272D02*
X7575D01*
X6000Y230697D02*
Y233846D01*
X4425Y240146D02*
X7575D01*
X6000Y238571D02*
Y241721D01*
X4425Y248020D02*
X7575D01*
X6000Y246445D02*
Y249594D01*
X54228Y248500D02*
X57772D01*
X56000Y246728D02*
Y250272D01*
X24701Y248500D02*
X28244D01*
X26472Y246728D02*
Y250272D01*
X220319Y126000D02*
X222681D01*
X221500Y124819D02*
Y127181D01*
X220319Y107102D02*
X222681D01*
X221500Y105921D02*
Y108283D01*
X79413Y93000D02*
X81776D01*
X80594Y91819D02*
Y94181D01*
X85319Y93000D02*
X87681D01*
X86500Y91819D02*
Y94181D01*
X106819Y88500D02*
X109181D01*
X108000Y87319D02*
Y89681D01*
X106819Y69602D02*
X109181D01*
X108000Y68421D02*
Y70784D01*
X107200Y261500D02*
X108800D01*
X108000Y260700D02*
Y262300D01*
X169090Y309000D02*
X170690D01*
X169890Y308200D02*
Y309800D01*
X89700Y250000D02*
X91300D01*
X90500Y249200D02*
Y250800D01*
X27200Y91000D02*
X28800D01*
X28000Y90200D02*
Y91800D01*
X17700Y79000D02*
X19300D01*
X18500Y78200D02*
Y79800D01*
X69700Y156500D02*
X71300D01*
X70500Y155700D02*
Y157300D01*
X52700Y128000D02*
X54300D01*
X53500Y127200D02*
Y128800D01*
X79434Y200500D02*
X81034D01*
X80234Y199700D02*
Y201300D01*
X65009Y174000D02*
X66609D01*
X65809Y173200D02*
Y174800D01*
X52330Y186630D02*
X53930D01*
X53130Y185830D02*
Y187430D01*
X54700Y224783D02*
X56300D01*
X55500Y223984D02*
Y225584D01*
X42200Y227000D02*
X43800D01*
X43000Y226200D02*
Y227800D01*
X30200Y167500D02*
X31800D01*
X31000Y166700D02*
Y168300D01*
X168921Y240961D02*
X170521D01*
X169721Y240161D02*
Y241761D01*
X168201Y117461D02*
X169801D01*
X169001Y116661D02*
Y118261D01*
X156701Y65461D02*
X158301D01*
X157501Y64661D02*
Y66261D01*
X222700Y55000D02*
X224300D01*
X223500Y54200D02*
Y55800D01*
X47700Y55500D02*
X49300D01*
X48500Y54700D02*
Y56300D01*
X228200Y50000D02*
X229800D01*
X229000Y49200D02*
Y50800D01*
X262074Y73000D02*
X263674D01*
X262874Y72200D02*
Y73800D01*
X260574Y128000D02*
X262174D01*
X261374Y127200D02*
Y128800D01*
X252700Y129500D02*
X254300D01*
X253500Y128700D02*
Y130300D01*
X181200Y203000D02*
X182800D01*
X182000Y202200D02*
Y203800D01*
X209700Y158000D02*
X211300D01*
X210500Y157200D02*
Y158800D01*
X208047Y153654D02*
X209647D01*
X208846Y152854D02*
Y154454D01*
X238191Y81000D02*
X239791D01*
X238990Y80200D02*
Y81800D01*
X243200Y70500D02*
X244800D01*
X244000Y69700D02*
Y71300D01*
X249700Y24000D02*
X251300D01*
X250500Y23200D02*
Y24800D01*
X245424Y9000D02*
X247024D01*
X246223Y8200D02*
Y9800D01*
X271074Y57000D02*
X272674D01*
X271874Y56200D02*
Y57800D01*
X307700Y52500D02*
X309300D01*
X308500Y51700D02*
Y53300D01*
X279200Y143500D02*
X280800D01*
X280000Y142700D02*
Y144300D01*
X77700Y29553D02*
X79300D01*
X78500Y28753D02*
Y30353D01*
X50200Y38500D02*
X51800D01*
X51000Y37700D02*
Y39300D01*
X230960Y147760D02*
X232560D01*
X231760Y146960D02*
Y148560D01*
X220700Y160500D02*
X222300D01*
X221500Y159700D02*
Y161300D01*
X20200Y45500D02*
X21800D01*
X21000Y44700D02*
Y46300D01*
X291894Y128933D02*
X295043D01*
X293469Y127358D02*
Y130508D01*
X291894Y113185D02*
X295043D01*
X293469Y111610D02*
Y114760D01*
M02*
