G04*
G04 #@! TF.GenerationSoftware,Altium Limited,Altium Designer,19.0.4 (130)*
G04*
G04 Layer_Color=65535*
%FSLAX25Y25*%
%MOIN*%
G70*
G01*
G75*
%ADD10C,0.01000*%
%ADD11C,0.02000*%
%ADD12C,0.00984*%
%ADD13C,0.00787*%
%ADD14C,0.01968*%
%ADD15C,0.00800*%
%ADD16C,0.00500*%
%ADD17C,0.00700*%
%ADD18C,0.00600*%
%ADD19R,0.07874X0.07874*%
%ADD20R,0.04000X0.06000*%
G36*
X128848Y28000D02*
X128321D01*
X126312Y31014D01*
Y28000D01*
X125823D01*
Y31841D01*
X126345D01*
X128360Y28821D01*
Y31841D01*
X128848D01*
Y28000D01*
D02*
G37*
G36*
X123426Y31902D02*
X123476D01*
X123526Y31896D01*
X123592Y31885D01*
X123659Y31874D01*
X123803Y31846D01*
X123970Y31802D01*
X124131Y31735D01*
X124214Y31696D01*
X124297Y31652D01*
X124303Y31646D01*
X124314Y31641D01*
X124336Y31624D01*
X124369Y31607D01*
X124403Y31580D01*
X124447Y31546D01*
X124541Y31469D01*
X124641Y31369D01*
X124752Y31247D01*
X124858Y31102D01*
X124947Y30942D01*
Y30936D01*
X124958Y30919D01*
X124969Y30897D01*
X124980Y30864D01*
X125002Y30819D01*
X125019Y30770D01*
X125041Y30708D01*
X125063Y30642D01*
X125080Y30570D01*
X125102Y30492D01*
X125124Y30403D01*
X125141Y30314D01*
X125163Y30120D01*
X125174Y29909D01*
Y29904D01*
Y29882D01*
Y29854D01*
X125169Y29809D01*
Y29759D01*
X125163Y29698D01*
X125152Y29632D01*
X125146Y29560D01*
X125119Y29399D01*
X125074Y29221D01*
X125013Y29043D01*
X124980Y28955D01*
X124935Y28866D01*
Y28860D01*
X124924Y28844D01*
X124913Y28821D01*
X124891Y28788D01*
X124869Y28749D01*
X124841Y28710D01*
X124763Y28605D01*
X124669Y28494D01*
X124558Y28377D01*
X124425Y28266D01*
X124269Y28166D01*
X124264D01*
X124253Y28155D01*
X124225Y28144D01*
X124192Y28128D01*
X124153Y28111D01*
X124109Y28094D01*
X124053Y28072D01*
X123992Y28050D01*
X123925Y28028D01*
X123853Y28005D01*
X123692Y27972D01*
X123520Y27944D01*
X123337Y27933D01*
X123282D01*
X123248Y27939D01*
X123198D01*
X123143Y27950D01*
X123082Y27956D01*
X123010Y27967D01*
X122860Y28000D01*
X122699Y28044D01*
X122532Y28111D01*
X122449Y28150D01*
X122366Y28194D01*
X122360Y28200D01*
X122349Y28205D01*
X122327Y28222D01*
X122294Y28244D01*
X122260Y28266D01*
X122222Y28300D01*
X122127Y28383D01*
X122022Y28483D01*
X121911Y28605D01*
X121811Y28744D01*
X121716Y28905D01*
Y28910D01*
X121705Y28927D01*
X121694Y28949D01*
X121683Y28982D01*
X121667Y29027D01*
X121650Y29077D01*
X121628Y29132D01*
X121611Y29193D01*
X121589Y29265D01*
X121567Y29337D01*
X121533Y29504D01*
X121511Y29676D01*
X121500Y29865D01*
Y29870D01*
Y29876D01*
Y29909D01*
X121505Y29959D01*
Y30026D01*
X121517Y30103D01*
X121528Y30198D01*
X121544Y30303D01*
X121567Y30414D01*
X121589Y30531D01*
X121622Y30653D01*
X121667Y30775D01*
X121716Y30903D01*
X121772Y31025D01*
X121844Y31147D01*
X121922Y31258D01*
X122011Y31363D01*
X122016Y31369D01*
X122033Y31385D01*
X122066Y31413D01*
X122105Y31447D01*
X122155Y31491D01*
X122216Y31535D01*
X122288Y31585D01*
X122371Y31635D01*
X122460Y31685D01*
X122560Y31735D01*
X122671Y31780D01*
X122788Y31824D01*
X122915Y31857D01*
X123048Y31885D01*
X123187Y31902D01*
X123337Y31907D01*
X123387D01*
X123426Y31902D01*
D02*
G37*
G36*
X17848Y194000D02*
X17321D01*
X15312Y197014D01*
Y194000D01*
X14823D01*
Y197841D01*
X15345D01*
X17360Y194821D01*
Y197841D01*
X17848D01*
Y194000D01*
D02*
G37*
G36*
X12426Y197902D02*
X12476D01*
X12526Y197896D01*
X12592Y197885D01*
X12659Y197874D01*
X12803Y197846D01*
X12970Y197802D01*
X13131Y197735D01*
X13214Y197696D01*
X13297Y197652D01*
X13303Y197646D01*
X13314Y197641D01*
X13336Y197624D01*
X13369Y197608D01*
X13403Y197580D01*
X13447Y197547D01*
X13541Y197469D01*
X13641Y197369D01*
X13752Y197247D01*
X13858Y197102D01*
X13947Y196941D01*
Y196936D01*
X13958Y196919D01*
X13969Y196897D01*
X13980Y196864D01*
X14002Y196819D01*
X14019Y196769D01*
X14041Y196708D01*
X14063Y196642D01*
X14080Y196570D01*
X14102Y196492D01*
X14124Y196403D01*
X14141Y196314D01*
X14163Y196120D01*
X14174Y195909D01*
Y195904D01*
Y195881D01*
Y195854D01*
X14168Y195809D01*
Y195759D01*
X14163Y195698D01*
X14152Y195632D01*
X14146Y195560D01*
X14119Y195399D01*
X14074Y195221D01*
X14013Y195043D01*
X13980Y194955D01*
X13936Y194866D01*
Y194860D01*
X13924Y194844D01*
X13913Y194821D01*
X13891Y194788D01*
X13869Y194749D01*
X13841Y194710D01*
X13763Y194605D01*
X13669Y194494D01*
X13558Y194377D01*
X13425Y194266D01*
X13270Y194167D01*
X13264D01*
X13253Y194155D01*
X13225Y194144D01*
X13192Y194128D01*
X13153Y194111D01*
X13108Y194094D01*
X13053Y194072D01*
X12992Y194050D01*
X12925Y194028D01*
X12853Y194006D01*
X12692Y193972D01*
X12520Y193945D01*
X12337Y193933D01*
X12282D01*
X12248Y193939D01*
X12198D01*
X12143Y193950D01*
X12082Y193956D01*
X12010Y193967D01*
X11860Y194000D01*
X11699Y194044D01*
X11532Y194111D01*
X11449Y194150D01*
X11366Y194194D01*
X11360Y194200D01*
X11349Y194205D01*
X11327Y194222D01*
X11294Y194244D01*
X11260Y194266D01*
X11221Y194300D01*
X11127Y194383D01*
X11022Y194483D01*
X10911Y194605D01*
X10811Y194744D01*
X10717Y194905D01*
Y194910D01*
X10705Y194927D01*
X10694Y194949D01*
X10683Y194982D01*
X10667Y195027D01*
X10650Y195077D01*
X10628Y195132D01*
X10611Y195193D01*
X10589Y195265D01*
X10567Y195338D01*
X10533Y195504D01*
X10511Y195676D01*
X10500Y195865D01*
Y195870D01*
Y195876D01*
Y195909D01*
X10505Y195959D01*
Y196026D01*
X10517Y196103D01*
X10528Y196198D01*
X10544Y196303D01*
X10567Y196414D01*
X10589Y196531D01*
X10622Y196653D01*
X10667Y196775D01*
X10717Y196903D01*
X10772Y197025D01*
X10844Y197147D01*
X10922Y197258D01*
X11011Y197363D01*
X11016Y197369D01*
X11033Y197386D01*
X11066Y197413D01*
X11105Y197447D01*
X11155Y197491D01*
X11216Y197535D01*
X11288Y197585D01*
X11371Y197635D01*
X11460Y197685D01*
X11560Y197735D01*
X11671Y197780D01*
X11788Y197824D01*
X11915Y197857D01*
X12048Y197885D01*
X12187Y197902D01*
X12337Y197907D01*
X12387D01*
X12426Y197902D01*
D02*
G37*
%LPC*%
G36*
X123337Y31469D02*
X123287D01*
X123248Y31463D01*
X123198Y31458D01*
X123148Y31447D01*
X123087Y31435D01*
X123021Y31424D01*
X122876Y31380D01*
X122799Y31347D01*
X122721Y31313D01*
X122638Y31269D01*
X122560Y31219D01*
X122482Y31163D01*
X122410Y31097D01*
X122405Y31091D01*
X122394Y31080D01*
X122377Y31058D01*
X122349Y31025D01*
X122321Y30986D01*
X122288Y30936D01*
X122255Y30875D01*
X122216Y30803D01*
X122183Y30725D01*
X122144Y30631D01*
X122110Y30531D01*
X122083Y30420D01*
X122055Y30298D01*
X122038Y30159D01*
X122027Y30015D01*
X122022Y29859D01*
Y29854D01*
Y29831D01*
Y29793D01*
X122027Y29743D01*
X122033Y29687D01*
X122044Y29621D01*
X122055Y29543D01*
X122066Y29465D01*
X122110Y29288D01*
X122144Y29199D01*
X122177Y29105D01*
X122222Y29016D01*
X122272Y28927D01*
X122327Y28844D01*
X122394Y28766D01*
X122399Y28760D01*
X122410Y28749D01*
X122432Y28727D01*
X122460Y28705D01*
X122499Y28672D01*
X122543Y28638D01*
X122593Y28605D01*
X122649Y28566D01*
X122715Y28527D01*
X122788Y28494D01*
X122865Y28461D01*
X122949Y28427D01*
X123037Y28405D01*
X123126Y28383D01*
X123226Y28372D01*
X123331Y28366D01*
X123359D01*
X123387Y28372D01*
X123426D01*
X123476Y28377D01*
X123531Y28389D01*
X123598Y28400D01*
X123664Y28416D01*
X123742Y28438D01*
X123814Y28466D01*
X123898Y28494D01*
X123975Y28533D01*
X124053Y28583D01*
X124131Y28633D01*
X124208Y28694D01*
X124281Y28766D01*
X124286Y28771D01*
X124297Y28782D01*
X124314Y28810D01*
X124342Y28844D01*
X124369Y28883D01*
X124397Y28932D01*
X124430Y28993D01*
X124469Y29060D01*
X124503Y29138D01*
X124536Y29226D01*
X124564Y29321D01*
X124597Y29421D01*
X124619Y29532D01*
X124636Y29654D01*
X124647Y29781D01*
X124652Y29915D01*
Y29920D01*
Y29937D01*
Y29959D01*
Y29992D01*
X124647Y30031D01*
Y30081D01*
X124641Y30131D01*
X124630Y30192D01*
X124614Y30320D01*
X124586Y30453D01*
X124547Y30597D01*
X124492Y30731D01*
Y30736D01*
X124486Y30747D01*
X124475Y30764D01*
X124464Y30786D01*
X124425Y30853D01*
X124375Y30930D01*
X124308Y31019D01*
X124225Y31108D01*
X124131Y31197D01*
X124025Y31275D01*
X124020D01*
X124014Y31286D01*
X123997Y31291D01*
X123970Y31308D01*
X123942Y31319D01*
X123909Y31336D01*
X123826Y31374D01*
X123725Y31408D01*
X123609Y31441D01*
X123476Y31463D01*
X123337Y31469D01*
D02*
G37*
G36*
X12337Y197469D02*
X12287D01*
X12248Y197463D01*
X12198Y197458D01*
X12148Y197447D01*
X12087Y197435D01*
X12021Y197424D01*
X11876Y197380D01*
X11799Y197347D01*
X11721Y197313D01*
X11638Y197269D01*
X11560Y197219D01*
X11482Y197163D01*
X11410Y197097D01*
X11405Y197091D01*
X11394Y197080D01*
X11377Y197058D01*
X11349Y197025D01*
X11321Y196986D01*
X11288Y196936D01*
X11255Y196875D01*
X11216Y196803D01*
X11183Y196725D01*
X11144Y196631D01*
X11111Y196531D01*
X11083Y196420D01*
X11055Y196298D01*
X11038Y196159D01*
X11027Y196015D01*
X11022Y195859D01*
Y195854D01*
Y195832D01*
Y195793D01*
X11027Y195743D01*
X11033Y195687D01*
X11044Y195621D01*
X11055Y195543D01*
X11066Y195465D01*
X11111Y195288D01*
X11144Y195199D01*
X11177Y195104D01*
X11221Y195016D01*
X11271Y194927D01*
X11327Y194844D01*
X11394Y194766D01*
X11399Y194760D01*
X11410Y194749D01*
X11432Y194727D01*
X11460Y194705D01*
X11499Y194672D01*
X11543Y194638D01*
X11593Y194605D01*
X11649Y194566D01*
X11715Y194527D01*
X11788Y194494D01*
X11865Y194461D01*
X11949Y194427D01*
X12037Y194405D01*
X12126Y194383D01*
X12226Y194372D01*
X12331Y194366D01*
X12359D01*
X12387Y194372D01*
X12426D01*
X12476Y194377D01*
X12531Y194388D01*
X12598Y194400D01*
X12664Y194416D01*
X12742Y194438D01*
X12814Y194466D01*
X12898Y194494D01*
X12975Y194533D01*
X13053Y194583D01*
X13131Y194633D01*
X13208Y194694D01*
X13281Y194766D01*
X13286Y194772D01*
X13297Y194782D01*
X13314Y194810D01*
X13342Y194844D01*
X13369Y194882D01*
X13397Y194932D01*
X13430Y194993D01*
X13469Y195060D01*
X13502Y195138D01*
X13536Y195227D01*
X13564Y195321D01*
X13597Y195421D01*
X13619Y195532D01*
X13636Y195654D01*
X13647Y195782D01*
X13652Y195915D01*
Y195920D01*
Y195937D01*
Y195959D01*
Y195993D01*
X13647Y196031D01*
Y196081D01*
X13641Y196131D01*
X13630Y196192D01*
X13614Y196320D01*
X13586Y196453D01*
X13547Y196597D01*
X13491Y196731D01*
Y196736D01*
X13486Y196747D01*
X13475Y196764D01*
X13464Y196786D01*
X13425Y196853D01*
X13375Y196930D01*
X13308Y197019D01*
X13225Y197108D01*
X13131Y197197D01*
X13025Y197274D01*
X13020D01*
X13014Y197286D01*
X12998Y197291D01*
X12970Y197308D01*
X12942Y197319D01*
X12909Y197336D01*
X12825Y197374D01*
X12725Y197408D01*
X12609Y197441D01*
X12476Y197463D01*
X12337Y197469D01*
D02*
G37*
%LPD*%
D10*
X311024Y19685D02*
G03*
X311024Y19685I-15748J0D01*
G01*
X35433D02*
G03*
X35433Y19685I-15748J0D01*
G01*
Y295276D02*
G03*
X35433Y295276I-15748J0D01*
G01*
X311024D02*
G03*
X311024Y295276I-15748J0D01*
G01*
X159500Y263500D02*
G03*
X164500Y263500I2500J0D01*
G01*
X71703Y39326D02*
G03*
X71703Y51674I-7203J6174D01*
G01*
X83826Y38297D02*
G03*
X96174Y38297I6174J7203D01*
G01*
X7826Y88297D02*
G03*
X20174Y88297I6174J7203D01*
G01*
X64858Y248500D02*
G03*
X64858Y248500I-23622J0D01*
G01*
X90750Y86826D02*
G03*
X90750Y99174I-7203J6174D01*
G01*
X140500Y63500D02*
Y263500D01*
Y63500D02*
X183500D01*
Y263500D01*
X164500D02*
X183500D01*
X140500D02*
X159500D01*
X68000Y210000D02*
X71000D01*
Y217000D01*
X68000D02*
X71000D01*
X56000Y210000D02*
X59000D01*
X56000D02*
Y217000D01*
X58500D01*
X100000Y169500D02*
X102600D01*
X104400D02*
X107000D01*
X109000Y166500D02*
Y172400D01*
X100000Y162500D02*
X102900D01*
X100000D02*
Y176500D01*
X102900D01*
X94000Y160500D02*
Y178500D01*
X116000Y160500D02*
Y178500D01*
X101000Y155500D02*
X109000D01*
X101000Y183500D02*
X109000D01*
X191500Y1300D02*
Y6300D01*
X187500D02*
X191500D01*
X187500Y1300D02*
Y6300D01*
X180300Y24200D02*
X210900D01*
X180300Y1300D02*
X210900D01*
Y32200D01*
X180300D02*
X210900D01*
X180300Y1300D02*
Y32200D01*
X201279Y1300D02*
Y6300D01*
X205279D01*
Y1300D02*
Y6300D01*
X158110Y1300D02*
Y6300D01*
X154110D02*
X158110D01*
X154110Y1300D02*
Y6300D01*
X146910Y24200D02*
X177510D01*
X146910Y1300D02*
X177510D01*
Y32200D01*
X146910D02*
X177510D01*
X146910Y1300D02*
Y32200D01*
X167890Y1300D02*
Y6300D01*
X171890D01*
Y1300D02*
Y6300D01*
X11000Y135000D02*
X11087Y136000D01*
X1000Y135000D02*
X11000D01*
X1000Y134000D02*
Y135000D01*
Y124000D02*
Y134000D01*
Y124000D02*
X31000D01*
Y128079D01*
X27134Y147835D02*
X31000D01*
X27079Y147780D02*
X27134Y147835D01*
X27079Y140079D02*
Y147780D01*
Y140079D02*
X27134Y140134D01*
X27055Y137882D02*
X31000D01*
X27055Y130535D02*
Y137882D01*
Y130535D02*
X27110Y130480D01*
X31000D01*
Y128079D02*
Y130433D01*
X11087Y136000D02*
Y143000D01*
X1362D02*
X11087D01*
X1362D02*
Y154591D01*
X1465Y154693D01*
X31000Y137882D02*
Y140134D01*
X27134D02*
X31000D01*
Y147835D02*
Y150890D01*
X28709Y153181D02*
X31000Y150890D01*
X1465Y154693D02*
X27197D01*
X28709Y153181D01*
X232500Y294998D02*
Y287000D01*
Y294998D02*
X235547Y287000D01*
X238594Y294998D02*
X235547Y287000D01*
X238594Y294998D02*
Y287000D01*
X245450Y292332D02*
Y287000D01*
Y291190D02*
X244688Y291951D01*
X243926Y292332D01*
X242783D01*
X242022Y291951D01*
X241260Y291190D01*
X240879Y290047D01*
Y289285D01*
X241260Y288143D01*
X242022Y287381D01*
X242783Y287000D01*
X243926D01*
X244688Y287381D01*
X245450Y288143D01*
X252153Y292332D02*
Y286238D01*
X251772Y285096D01*
X251391Y284715D01*
X250629Y284334D01*
X249487D01*
X248725Y284715D01*
X252153Y291190D02*
X251391Y291951D01*
X250629Y292332D01*
X249487D01*
X248725Y291951D01*
X247963Y291190D01*
X247583Y290047D01*
Y289285D01*
X247963Y288143D01*
X248725Y287381D01*
X249487Y287000D01*
X250629D01*
X251391Y287381D01*
X252153Y288143D01*
X254667Y287762D02*
X254286Y287381D01*
X254667Y287000D01*
X255048Y287381D01*
X254667Y287762D01*
X256800Y294998D02*
X258704Y287000D01*
X260608Y294998D02*
X258704Y287000D01*
X260608Y294998D02*
X262513Y287000D01*
X264417Y294998D02*
X262513Y287000D01*
X199000Y309998D02*
Y302000D01*
Y309998D02*
X201666D01*
X202809Y309617D01*
X203571Y308856D01*
X203951Y308094D01*
X204332Y306951D01*
Y305047D01*
X203951Y303904D01*
X203571Y303143D01*
X202809Y302381D01*
X201666Y302000D01*
X199000D01*
X206122Y305047D02*
X210693D01*
Y305809D01*
X210312Y306570D01*
X209931Y306951D01*
X209169Y307332D01*
X208027D01*
X207265Y306951D01*
X206503Y306190D01*
X206122Y305047D01*
Y304285D01*
X206503Y303143D01*
X207265Y302381D01*
X208027Y302000D01*
X209169D01*
X209931Y302381D01*
X210693Y303143D01*
X216596Y306190D02*
X216215Y306951D01*
X215073Y307332D01*
X213930D01*
X212788Y306951D01*
X212407Y306190D01*
X212788Y305428D01*
X213549Y305047D01*
X215454Y304666D01*
X216215Y304285D01*
X216596Y303523D01*
Y303143D01*
X216215Y302381D01*
X215073Y302000D01*
X213930D01*
X212788Y302381D01*
X212407Y303143D01*
X219034Y309998D02*
X219415Y309617D01*
X219795Y309998D01*
X219415Y310379D01*
X219034Y309998D01*
X219415Y307332D02*
Y302000D01*
X225775Y307332D02*
Y301238D01*
X225394Y300096D01*
X225013Y299715D01*
X224252Y299334D01*
X223109D01*
X222347Y299715D01*
X225775Y306190D02*
X225013Y306951D01*
X224252Y307332D01*
X223109D01*
X222347Y306951D01*
X221586Y306190D01*
X221205Y305047D01*
Y304285D01*
X221586Y303143D01*
X222347Y302381D01*
X223109Y302000D01*
X224252D01*
X225013Y302381D01*
X225775Y303143D01*
X227908Y307332D02*
Y302000D01*
Y305809D02*
X229051Y306951D01*
X229812Y307332D01*
X230955D01*
X231717Y306951D01*
X232098Y305809D01*
Y302000D01*
X234192Y305047D02*
X238763D01*
Y305809D01*
X238382Y306570D01*
X238001Y306951D01*
X237239Y307332D01*
X236097D01*
X235335Y306951D01*
X234573Y306190D01*
X234192Y305047D01*
Y304285D01*
X234573Y303143D01*
X235335Y302381D01*
X236097Y302000D01*
X237239D01*
X238001Y302381D01*
X238763Y303143D01*
X245047Y309998D02*
Y302000D01*
Y306190D02*
X244286Y306951D01*
X243524Y307332D01*
X242381D01*
X241619Y306951D01*
X240858Y306190D01*
X240477Y305047D01*
Y304285D01*
X240858Y303143D01*
X241619Y302381D01*
X242381Y302000D01*
X243524D01*
X244286Y302381D01*
X245047Y303143D01*
X253465Y309998D02*
Y302000D01*
Y306190D02*
X254226Y306951D01*
X254988Y307332D01*
X256131D01*
X256892Y306951D01*
X257654Y306190D01*
X258035Y305047D01*
Y304285D01*
X257654Y303143D01*
X256892Y302381D01*
X256131Y302000D01*
X254988D01*
X254226Y302381D01*
X253465Y303143D01*
X260130Y307332D02*
X262415Y302000D01*
X264700Y307332D02*
X262415Y302000D01*
X261653Y300477D01*
X260892Y299715D01*
X260130Y299334D01*
X259749D01*
X272698Y307332D02*
X272318Y306951D01*
X272698Y306570D01*
X273079Y306951D01*
X272698Y307332D01*
Y302762D02*
X272318Y302381D01*
X272698Y302000D01*
X273079Y302381D01*
X272698Y302762D01*
X306195Y252067D02*
X301197D01*
X300197Y251067D01*
Y249068D01*
X301197Y248068D01*
X306195D01*
X305195Y242070D02*
X306195Y243070D01*
Y245069D01*
X305195Y246069D01*
X304196D01*
X303196Y245069D01*
Y243070D01*
X302196Y242070D01*
X301197D01*
X300197Y243070D01*
Y245069D01*
X301197Y246069D01*
X306195Y240071D02*
X300197D01*
Y237072D01*
X301197Y236072D01*
X302196D01*
X303196Y237072D01*
Y240071D01*
Y237072D01*
X304196Y236072D01*
X305195D01*
X306195Y237072D01*
Y240071D01*
X303196Y234073D02*
Y230074D01*
X300197Y228075D02*
X304196D01*
X306195Y226075D01*
X304196Y224076D01*
X300197D01*
X303196D01*
Y228075D01*
X212950Y147699D02*
X216949Y141701D01*
Y147699D02*
X212950Y141701D01*
X222947D02*
X218948D01*
X222947Y145700D01*
Y146700D01*
X221947Y147699D01*
X219948D01*
X218948Y146700D01*
X99450Y110199D02*
X103449Y104201D01*
Y110199D02*
X99450Y104201D01*
X105448D02*
X107447D01*
X106448D01*
Y110199D01*
X105448Y109200D01*
X254750Y279711D02*
Y274713D01*
X255750Y273713D01*
X257749D01*
X258749Y274713D01*
Y279711D01*
X264747Y278711D02*
X263747Y279711D01*
X261748D01*
X260748Y278711D01*
Y277712D01*
X261748Y276712D01*
X263747D01*
X264747Y275712D01*
Y274713D01*
X263747Y273713D01*
X261748D01*
X260748Y274713D01*
X266746Y279711D02*
Y273713D01*
X269745D01*
X270745Y274713D01*
Y275712D01*
X269745Y276712D01*
X266746D01*
X269745D01*
X270745Y277712D01*
Y278711D01*
X269745Y279711D01*
X266746D01*
X39764Y154498D02*
Y149500D01*
X40764Y148500D01*
X42763D01*
X43762Y149500D01*
Y154498D01*
X45762D02*
X49761D01*
Y153498D01*
X45762Y149500D01*
Y148500D01*
X34500Y10998D02*
Y6000D01*
X35500Y5000D01*
X37499D01*
X38499Y6000D01*
Y10998D01*
X44497D02*
X42497Y9998D01*
X40498Y7999D01*
Y6000D01*
X41498Y5000D01*
X43497D01*
X44497Y6000D01*
Y6999D01*
X43497Y7999D01*
X40498D01*
X147500Y303798D02*
Y298800D01*
X148500Y297800D01*
X150499D01*
X151499Y298800D01*
Y303798D01*
X157497D02*
X153498D01*
Y300799D01*
X155497Y301799D01*
X156497D01*
X157497Y300799D01*
Y298800D01*
X156497Y297800D01*
X154498D01*
X153498Y298800D01*
X247350Y91166D02*
Y86168D01*
X248350Y85168D01*
X250349D01*
X251349Y86168D01*
Y91166D01*
X256347Y85168D02*
Y91166D01*
X253348Y88167D01*
X257347D01*
X241800Y148098D02*
Y143100D01*
X242800Y142100D01*
X244799D01*
X245799Y143100D01*
Y148098D01*
X247798Y147098D02*
X248798Y148098D01*
X250797D01*
X251797Y147098D01*
Y146099D01*
X250797Y145099D01*
X249797D01*
X250797D01*
X251797Y144099D01*
Y143100D01*
X250797Y142100D01*
X248798D01*
X247798Y143100D01*
X289300Y149716D02*
Y144718D01*
X290300Y143718D01*
X292299D01*
X293299Y144718D01*
Y149716D01*
X299297Y143718D02*
X295298D01*
X299297Y147717D01*
Y148716D01*
X298297Y149716D01*
X296298D01*
X295298Y148716D01*
X134000Y273498D02*
Y268500D01*
X135000Y267500D01*
X136999D01*
X137999Y268500D01*
Y273498D01*
X139998Y267500D02*
X141997D01*
X140998D01*
Y273498D01*
X139998Y272498D01*
X101936Y192498D02*
X100936Y193498D01*
X98937D01*
X97937Y192498D01*
Y191499D01*
X98937Y190499D01*
X100936D01*
X101936Y189499D01*
Y188500D01*
X100936Y187500D01*
X98937D01*
X97937Y188500D01*
X103935Y193498D02*
Y187500D01*
X105934Y189499D01*
X107934Y187500D01*
Y193498D01*
X109933Y187500D02*
X111933D01*
X110933D01*
Y193498D01*
X109933Y192498D01*
X5599Y214898D02*
X4599Y215898D01*
X2600D01*
X1600Y214898D01*
Y213899D01*
X2600Y212899D01*
X4599D01*
X5599Y211899D01*
Y210900D01*
X4599Y209900D01*
X2600D01*
X1600Y210900D01*
X7598Y215898D02*
Y209900D01*
X9597Y211899D01*
X11597Y209900D01*
Y215898D01*
X13596Y214898D02*
X14596Y215898D01*
X16595D01*
X17595Y214898D01*
Y213899D01*
X16595Y212899D01*
X15596D01*
X16595D01*
X17595Y211899D01*
Y210900D01*
X16595Y209900D01*
X14596D01*
X13596Y210900D01*
X121999Y47998D02*
X120999Y48998D01*
X119000D01*
X118000Y47998D01*
Y46999D01*
X119000Y45999D01*
X120999D01*
X121999Y44999D01*
Y44000D01*
X120999Y43000D01*
X119000D01*
X118000Y44000D01*
X123998Y48998D02*
Y43000D01*
X125997Y44999D01*
X127997Y43000D01*
Y48998D01*
X133995Y43000D02*
X129996D01*
X133995Y46999D01*
Y47998D01*
X132995Y48998D01*
X130996D01*
X129996Y47998D01*
X86500Y145000D02*
Y150998D01*
X89499D01*
X90499Y149998D01*
Y147999D01*
X89499Y146999D01*
X86500D01*
X88499D02*
X90499Y145000D01*
X92498D02*
Y150998D01*
X95497D01*
X96497Y149998D01*
Y147999D01*
X95497Y146999D01*
X92498D01*
X98496Y145000D02*
Y150998D01*
X101495D01*
X102495Y149998D01*
Y147999D01*
X101495Y146999D01*
X98496D01*
X100496D02*
X102495Y145000D01*
X107493Y150998D02*
X105494D01*
X104494Y149998D01*
Y146000D01*
X105494Y145000D01*
X107493D01*
X108493Y146000D01*
Y149998D01*
X107493Y150998D01*
X114491Y149998D02*
X113491Y150998D01*
X111492D01*
X110492Y149998D01*
Y146000D01*
X111492Y145000D01*
X113491D01*
X114491Y146000D01*
Y147999D01*
X112492D01*
X230000Y78900D02*
Y84898D01*
X232999D01*
X233999Y83898D01*
Y81899D01*
X232999Y80899D01*
X230000D01*
X231999D02*
X233999Y78900D01*
X235998D02*
X237997D01*
X236998D01*
Y84898D01*
X235998Y83898D01*
X244995Y84898D02*
X240996D01*
Y81899D01*
X242996Y82899D01*
X243995D01*
X244995Y81899D01*
Y79900D01*
X243995Y78900D01*
X241996D01*
X240996Y79900D01*
X214000Y78820D02*
Y84818D01*
X216999D01*
X217999Y83818D01*
Y81819D01*
X216999Y80819D01*
X214000D01*
X215999D02*
X217999Y78820D01*
X219998D02*
X221997D01*
X220998D01*
Y84818D01*
X219998Y83818D01*
X227995Y78820D02*
Y84818D01*
X224996Y81819D01*
X228995D01*
X74500Y175397D02*
Y181395D01*
X77499D01*
X78499Y180396D01*
Y178396D01*
X77499Y177397D01*
X74500D01*
X76499D02*
X78499Y175397D01*
X80498D02*
X82497D01*
X81498D01*
Y181395D01*
X80498Y180396D01*
X85496D02*
X86496Y181395D01*
X88495D01*
X89495Y180396D01*
Y179396D01*
X88495Y178396D01*
X87496D01*
X88495D01*
X89495Y177397D01*
Y176397D01*
X88495Y175397D01*
X86496D01*
X85496Y176397D01*
X94563Y123618D02*
Y129616D01*
X97562D01*
X98562Y128616D01*
Y126617D01*
X97562Y125617D01*
X94563D01*
X96562D02*
X98562Y123618D01*
X100561D02*
X102560D01*
X101561D01*
Y129616D01*
X100561Y128616D01*
X109558Y123618D02*
X105559D01*
X109558Y127617D01*
Y128616D01*
X108558Y129616D01*
X106559D01*
X105559Y128616D01*
X35500Y124898D02*
Y130896D01*
X38499D01*
X39499Y129896D01*
Y127897D01*
X38499Y126897D01*
X35500D01*
X37499D02*
X39499Y124898D01*
X41498D02*
X43497D01*
X42498D01*
Y130896D01*
X41498Y129896D01*
X46496Y124898D02*
X48496D01*
X47496D01*
Y130896D01*
X46496Y129896D01*
X4500Y77000D02*
Y82998D01*
X7499D01*
X8499Y81998D01*
Y79999D01*
X7499Y78999D01*
X4500D01*
X6499D02*
X8499Y77000D01*
X10498D02*
X12497D01*
X11498D01*
Y82998D01*
X10498Y81998D01*
X15496D02*
X16496Y82998D01*
X18496D01*
X19495Y81998D01*
Y78000D01*
X18496Y77000D01*
X16496D01*
X15496Y78000D01*
Y81998D01*
X248000Y5250D02*
Y11248D01*
X250999D01*
X251999Y10249D01*
Y8249D01*
X250999Y7250D01*
X248000D01*
X249999D02*
X251999Y5250D01*
X253998Y6250D02*
X254998Y5250D01*
X256997D01*
X257997Y6250D01*
Y10249D01*
X256997Y11248D01*
X254998D01*
X253998Y10249D01*
Y9249D01*
X254998Y8249D01*
X257997D01*
X214760Y5500D02*
Y11498D01*
X217759D01*
X218759Y10499D01*
Y8499D01*
X217759Y7500D01*
X214760D01*
X216759D02*
X218759Y5500D01*
X220758Y10499D02*
X221758Y11498D01*
X223757D01*
X224757Y10499D01*
Y9499D01*
X223757Y8499D01*
X224757Y7500D01*
Y6500D01*
X223757Y5500D01*
X221758D01*
X220758Y6500D01*
Y7500D01*
X221758Y8499D01*
X220758Y9499D01*
Y10499D01*
X221758Y8499D02*
X223757D01*
X247937Y27000D02*
Y32998D01*
X250936D01*
X251936Y31998D01*
Y29999D01*
X250936Y28999D01*
X247937D01*
X249936D02*
X251936Y27000D01*
X253935Y32998D02*
X257934D01*
Y31998D01*
X253935Y28000D01*
Y27000D01*
X214563D02*
Y32998D01*
X217562D01*
X218562Y31998D01*
Y29999D01*
X217562Y28999D01*
X214563D01*
X216562D02*
X218562Y27000D01*
X224560Y32998D02*
X222560Y31998D01*
X220561Y29999D01*
Y28000D01*
X221561Y27000D01*
X223560D01*
X224560Y28000D01*
Y28999D01*
X223560Y29999D01*
X220561D01*
X111000Y237000D02*
Y242998D01*
X113999D01*
X114999Y241998D01*
Y239999D01*
X113999Y238999D01*
X111000D01*
X112999D02*
X114999Y237000D01*
X120997Y242998D02*
X116998D01*
Y239999D01*
X118997Y240999D01*
X119997D01*
X120997Y239999D01*
Y238000D01*
X119997Y237000D01*
X117998D01*
X116998Y238000D01*
X57000Y77000D02*
Y82998D01*
X59999D01*
X60999Y81998D01*
Y79999D01*
X59999Y78999D01*
X57000D01*
X58999D02*
X60999Y77000D01*
X65997D02*
Y82998D01*
X62998Y79999D01*
X66997D01*
X204000Y182400D02*
Y188398D01*
X206999D01*
X207999Y187398D01*
Y185399D01*
X206999Y184399D01*
X204000D01*
X205999D02*
X207999Y182400D01*
X209998Y187398D02*
X210998Y188398D01*
X212997D01*
X213997Y187398D01*
Y186399D01*
X212997Y185399D01*
X211997D01*
X212997D01*
X213997Y184399D01*
Y183400D01*
X212997Y182400D01*
X210998D01*
X209998Y183400D01*
X96142Y260500D02*
Y266498D01*
X99141D01*
X100140Y265498D01*
Y263499D01*
X99141Y262499D01*
X96142D01*
X98141D02*
X100140Y260500D01*
X106139D02*
X102140D01*
X106139Y264499D01*
Y265498D01*
X105139Y266498D01*
X103139D01*
X102140Y265498D01*
X110500Y260500D02*
Y266498D01*
X113499D01*
X114499Y265498D01*
Y263499D01*
X113499Y262499D01*
X110500D01*
X112499D02*
X114499Y260500D01*
X116498D02*
X118497D01*
X117498D01*
Y266498D01*
X116498Y265498D01*
X98999Y238000D02*
Y241998D01*
X97999Y242998D01*
X96000D01*
X95000Y241998D01*
Y238000D01*
X96000Y237000D01*
X97999D01*
X96999Y238999D02*
X98999Y237000D01*
X97999D02*
X98999Y238000D01*
X100998Y237000D02*
X102997D01*
X101998D01*
Y242998D01*
X100998Y241998D01*
X50445Y203500D02*
Y209498D01*
X53444D01*
X54444Y208498D01*
Y206499D01*
X53444Y205499D01*
X50445D01*
X56443Y209498D02*
Y203500D01*
X58442Y205499D01*
X60442Y203500D01*
Y209498D01*
X66440D02*
X62441D01*
Y206499D01*
X64440Y207499D01*
X65440D01*
X66440Y206499D01*
Y204500D01*
X65440Y203500D01*
X63441D01*
X62441Y204500D01*
X68439Y203500D02*
X70438D01*
X69439D01*
Y209498D01*
X68439Y208498D01*
X73437D02*
X74437Y209498D01*
X76437D01*
X77436Y208498D01*
Y204500D01*
X76437Y203500D01*
X74437D01*
X73437Y204500D01*
Y208498D01*
X79435D02*
X80435Y209498D01*
X82434D01*
X83434Y208498D01*
Y204500D01*
X82434Y203500D01*
X80435D01*
X79435Y204500D01*
Y208498D01*
X71800Y132498D02*
Y126500D01*
X75799D01*
X81797Y132498D02*
X77798D01*
Y126500D01*
X81797D01*
X77798Y129499D02*
X79797D01*
X83796Y132498D02*
Y126500D01*
X86795D01*
X87795Y127500D01*
Y131498D01*
X86795Y132498D01*
X83796D01*
X93793Y126500D02*
X89794D01*
X93793Y130499D01*
Y131498D01*
X92793Y132498D01*
X90794D01*
X89794Y131498D01*
X49000Y132620D02*
Y126622D01*
X52999D01*
X58997Y132620D02*
X54998D01*
Y126622D01*
X58997D01*
X54998Y129621D02*
X56997D01*
X60996Y132620D02*
Y126622D01*
X63995D01*
X64995Y127622D01*
Y131620D01*
X63995Y132620D01*
X60996D01*
X66994Y126622D02*
X68994D01*
X67994D01*
Y132620D01*
X66994Y131620D01*
X59500Y224498D02*
Y218500D01*
X63499D01*
X65498D02*
X67497D01*
X66498D01*
Y224498D01*
X65498Y223498D01*
X5499Y164198D02*
X3499D01*
X4499D01*
Y159200D01*
X3499Y158200D01*
X2500D01*
X1500Y159200D01*
X7498Y158200D02*
Y164198D01*
X10497D01*
X11497Y163198D01*
Y161199D01*
X10497Y160199D01*
X7498D01*
X13496Y158200D02*
X15495D01*
X14496D01*
Y164198D01*
X13496Y163198D01*
X18495Y158200D02*
X20494D01*
X19494D01*
Y164198D01*
X18495Y163198D01*
X188758Y39498D02*
X186759D01*
X187759D01*
Y34499D01*
X186759Y33500D01*
X185759D01*
X184759Y34499D01*
X190758Y33500D02*
Y39498D01*
X193757D01*
X194756Y38498D01*
Y36499D01*
X193757Y35499D01*
X190758D01*
X196756Y33500D02*
X198755D01*
X197755D01*
Y39498D01*
X196756Y38498D01*
X201754D02*
X202754Y39498D01*
X204753D01*
X205753Y38498D01*
Y34499D01*
X204753Y33500D01*
X202754D01*
X201754Y34499D01*
Y38498D01*
X156258Y39498D02*
X154259D01*
X155259D01*
Y34499D01*
X154259Y33500D01*
X153259D01*
X152260Y34499D01*
X158258Y33500D02*
Y39498D01*
X161257D01*
X162256Y38498D01*
Y36499D01*
X161257Y35499D01*
X158258D01*
X164256Y34499D02*
X165255Y33500D01*
X167255D01*
X168254Y34499D01*
Y38498D01*
X167255Y39498D01*
X165255D01*
X164256Y38498D01*
Y37498D01*
X165255Y36499D01*
X168254D01*
X247499Y21498D02*
X245499D01*
X246499D01*
Y16500D01*
X245499Y15500D01*
X244500D01*
X243500Y16500D01*
X249498Y15500D02*
Y21498D01*
X252497D01*
X253497Y20498D01*
Y18499D01*
X252497Y17499D01*
X249498D01*
X255496Y20498D02*
X256496Y21498D01*
X258495D01*
X259495Y20498D01*
Y19499D01*
X258495Y18499D01*
X259495Y17499D01*
Y16500D01*
X258495Y15500D01*
X256496D01*
X255496Y16500D01*
Y17499D01*
X256496Y18499D01*
X255496Y19499D01*
Y20498D01*
X256496Y18499D02*
X258495D01*
X214062Y20998D02*
X212062D01*
X213062D01*
Y16000D01*
X212062Y15000D01*
X211063D01*
X210063Y16000D01*
X216061Y15000D02*
Y20998D01*
X219060D01*
X220060Y19998D01*
Y17999D01*
X219060Y16999D01*
X216061D01*
X222059Y20998D02*
X226058D01*
Y19998D01*
X222059Y16000D01*
Y15000D01*
X248116Y43998D02*
X246116D01*
X247116D01*
Y39000D01*
X246116Y38000D01*
X245116D01*
X244117Y39000D01*
X250115Y38000D02*
Y43998D01*
X253114D01*
X254114Y42998D01*
Y40999D01*
X253114Y39999D01*
X250115D01*
X260112Y43998D02*
X258112Y42998D01*
X256113Y40999D01*
Y39000D01*
X257113Y38000D01*
X259112D01*
X260112Y39000D01*
Y39999D01*
X259112Y40999D01*
X256113D01*
X214062Y44498D02*
X212062D01*
X213062D01*
Y39500D01*
X212062Y38500D01*
X211063D01*
X210063Y39500D01*
X216061Y38500D02*
Y44498D01*
X219060D01*
X220060Y43498D01*
Y41499D01*
X219060Y40499D01*
X216061D01*
X226058Y44498D02*
X222059D01*
Y41499D01*
X224059Y42499D01*
X225058D01*
X226058Y41499D01*
Y39500D01*
X225058Y38500D01*
X223059D01*
X222059Y39500D01*
X189999Y57998D02*
X187999D01*
X188999D01*
Y53000D01*
X187999Y52000D01*
X187000D01*
X186000Y53000D01*
X191998Y52000D02*
Y57998D01*
X194997D01*
X195997Y56998D01*
Y54999D01*
X194997Y53999D01*
X191998D01*
X200995Y52000D02*
Y57998D01*
X197996Y54999D01*
X201995D01*
X156625Y57498D02*
X154625D01*
X155625D01*
Y52500D01*
X154625Y51500D01*
X153626D01*
X152626Y52500D01*
X158624Y51500D02*
Y57498D01*
X161623D01*
X162623Y56498D01*
Y54499D01*
X161623Y53499D01*
X158624D01*
X164622Y56498D02*
X165622Y57498D01*
X167621D01*
X168621Y56498D01*
Y55499D01*
X167621Y54499D01*
X166621D01*
X167621D01*
X168621Y53499D01*
Y52500D01*
X167621Y51500D01*
X165622D01*
X164622Y52500D01*
X63621Y311498D02*
X61621D01*
X62621D01*
Y306500D01*
X61621Y305500D01*
X60622D01*
X59622Y306500D01*
X65620Y305500D02*
Y311498D01*
X68619D01*
X69619Y310498D01*
Y308499D01*
X68619Y307499D01*
X65620D01*
X75617Y305500D02*
X71618D01*
X75617Y309499D01*
Y310498D01*
X74617Y311498D01*
X72618D01*
X71618Y310498D01*
X6649Y269231D02*
X4649D01*
X5649D01*
Y264232D01*
X4649Y263233D01*
X3650D01*
X2650Y264232D01*
X8648Y263233D02*
Y269231D01*
X11647D01*
X12647Y268231D01*
Y266232D01*
X11647Y265232D01*
X8648D01*
X14646Y263233D02*
X16646D01*
X15646D01*
Y269231D01*
X14646Y268231D01*
X21367Y281576D02*
X19368D01*
X20368D01*
Y276578D01*
X19368Y275578D01*
X18368D01*
X17368Y276578D01*
X23367Y275578D02*
X25366D01*
X24366D01*
Y281576D01*
X23367Y280576D01*
X42150Y187648D02*
Y181650D01*
X45149D01*
X46149Y182650D01*
Y186648D01*
X45149Y187648D01*
X42150D01*
X51147Y181650D02*
Y187648D01*
X48148Y184649D01*
X52147D01*
X99500Y36498D02*
Y30500D01*
X102499D01*
X103499Y31500D01*
Y35498D01*
X102499Y36498D01*
X99500D01*
X105498Y35498D02*
X106498Y36498D01*
X108497D01*
X109497Y35498D01*
Y34499D01*
X108497Y33499D01*
X107497D01*
X108497D01*
X109497Y32499D01*
Y31500D01*
X108497Y30500D01*
X106498D01*
X105498Y31500D01*
X86000Y36498D02*
Y30500D01*
X88999D01*
X89999Y31500D01*
Y35498D01*
X88999Y36498D01*
X86000D01*
X95997Y30500D02*
X91998D01*
X95997Y34499D01*
Y35498D01*
X94997Y36498D01*
X92998D01*
X91998Y35498D01*
X95500Y294778D02*
Y288779D01*
X98499D01*
X99499Y289779D01*
Y293778D01*
X98499Y294778D01*
X95500D01*
X101498Y288779D02*
X103497D01*
X102498D01*
Y294778D01*
X101498Y293778D01*
X9899Y112598D02*
X8899Y113598D01*
X6900D01*
X5900Y112598D01*
Y108600D01*
X6900Y107600D01*
X8899D01*
X9899Y108600D01*
X15897Y113598D02*
X11898D01*
Y107600D01*
X15897D01*
X11898Y110599D02*
X13897D01*
X20895Y107600D02*
Y113598D01*
X17896Y110599D01*
X21895D01*
X85999Y59998D02*
X84999Y60998D01*
X83000D01*
X82000Y59998D01*
Y56000D01*
X83000Y55000D01*
X84999D01*
X85999Y56000D01*
X91997Y60998D02*
X87998D01*
Y55000D01*
X91997D01*
X87998Y57999D02*
X89997D01*
X93996Y59998D02*
X94996Y60998D01*
X96995D01*
X97995Y59998D01*
Y58999D01*
X96995Y57999D01*
X95995D01*
X96995D01*
X97995Y56999D01*
Y56000D01*
X96995Y55000D01*
X94996D01*
X93996Y56000D01*
X60999Y59998D02*
X59999Y60998D01*
X58000D01*
X57000Y59998D01*
Y56000D01*
X58000Y55000D01*
X59999D01*
X60999Y56000D01*
X66997Y60998D02*
X62998D01*
Y55000D01*
X66997D01*
X62998Y57999D02*
X64997D01*
X72995Y55000D02*
X68996D01*
X72995Y58999D01*
Y59998D01*
X71995Y60998D01*
X69996D01*
X68996Y59998D01*
X79496Y110048D02*
X78496Y111048D01*
X76497D01*
X75497Y110048D01*
Y106050D01*
X76497Y105050D01*
X78496D01*
X79496Y106050D01*
X85494Y111048D02*
X81495D01*
Y105050D01*
X85494D01*
X81495Y108049D02*
X83495D01*
X87493Y105050D02*
X89493D01*
X88493D01*
Y111048D01*
X87493Y110048D01*
X116999Y218498D02*
X115999Y219498D01*
X114000D01*
X113000Y218498D01*
Y214500D01*
X114000Y213500D01*
X115999D01*
X116999Y214500D01*
X118998Y213500D02*
X120997D01*
X119998D01*
Y219498D01*
X118998Y218498D01*
X123996Y214500D02*
X124996Y213500D01*
X126996D01*
X127995Y214500D01*
Y218498D01*
X126996Y219498D01*
X124996D01*
X123996Y218498D01*
Y217499D01*
X124996Y216499D01*
X127995D01*
X100499Y218498D02*
X99499Y219498D01*
X97500D01*
X96500Y218498D01*
Y214500D01*
X97500Y213500D01*
X99499D01*
X100499Y214500D01*
X102498Y213500D02*
X104497D01*
X103498D01*
Y219498D01*
X102498Y218498D01*
X107496D02*
X108496Y219498D01*
X110495D01*
X111495Y218498D01*
Y217499D01*
X110495Y216499D01*
X111495Y215499D01*
Y214500D01*
X110495Y213500D01*
X108496D01*
X107496Y214500D01*
Y215499D01*
X108496Y216499D01*
X107496Y217499D01*
Y218498D01*
X108496Y216499D02*
X110495D01*
X83999Y217695D02*
X82999Y218695D01*
X81000D01*
X80000Y217695D01*
Y213697D01*
X81000Y212697D01*
X82999D01*
X83999Y213697D01*
X85998Y212697D02*
X87997D01*
X86998D01*
Y218695D01*
X85998Y217695D01*
X90996Y218695D02*
X94995D01*
Y217695D01*
X90996Y213697D01*
Y212697D01*
X56762Y180398D02*
X55763Y181398D01*
X53764D01*
X52764Y180398D01*
Y176400D01*
X53764Y175400D01*
X55763D01*
X56762Y176400D01*
X58762Y175400D02*
X60761D01*
X59762D01*
Y181398D01*
X58762Y180398D01*
X67759Y181398D02*
X65760Y180398D01*
X63760Y178399D01*
Y176400D01*
X64760Y175400D01*
X66759D01*
X67759Y176400D01*
Y177399D01*
X66759Y178399D01*
X63760D01*
X55999Y105518D02*
X54999Y106518D01*
X53000D01*
X52000Y105518D01*
Y101519D01*
X53000Y100520D01*
X54999D01*
X55999Y101519D01*
X57998Y100520D02*
X59997D01*
X58998D01*
Y106518D01*
X57998Y105518D01*
X66995Y106518D02*
X62996D01*
Y103519D01*
X64996Y104518D01*
X65996D01*
X66995Y103519D01*
Y101519D01*
X65996Y100520D01*
X63996D01*
X62996Y101519D01*
X37999Y104998D02*
X36999Y105998D01*
X35000D01*
X34000Y104998D01*
Y101000D01*
X35000Y100000D01*
X36999D01*
X37999Y101000D01*
X39998Y100000D02*
X41997D01*
X40998D01*
Y105998D01*
X39998Y104998D01*
X47995Y100000D02*
Y105998D01*
X44996Y102999D01*
X48995D01*
X42999Y81998D02*
X41999Y82998D01*
X40000D01*
X39000Y81998D01*
Y78000D01*
X40000Y77000D01*
X41999D01*
X42999Y78000D01*
X44998Y77000D02*
X46997D01*
X45998D01*
Y82998D01*
X44998Y81998D01*
X49996D02*
X50996Y82998D01*
X52996D01*
X53995Y81998D01*
Y80999D01*
X52996Y79999D01*
X51996D01*
X52996D01*
X53995Y78999D01*
Y78000D01*
X52996Y77000D01*
X50996D01*
X49996Y78000D01*
X25999Y81998D02*
X24999Y82998D01*
X23000D01*
X22000Y81998D01*
Y78000D01*
X23000Y77000D01*
X24999D01*
X25999Y78000D01*
X27998Y77000D02*
X29997D01*
X28998D01*
Y82998D01*
X27998Y81998D01*
X36995Y77000D02*
X32996D01*
X36995Y80999D01*
Y81998D01*
X35996Y82998D01*
X33996D01*
X32996Y81998D01*
X203999Y274879D02*
X202999Y275878D01*
X201000D01*
X200000Y274879D01*
Y270880D01*
X201000Y269880D01*
X202999D01*
X203999Y270880D01*
X205998Y269880D02*
X207997D01*
X206998D01*
Y275878D01*
X205998Y274879D01*
X210996Y269880D02*
X212996D01*
X211996D01*
Y275878D01*
X210996Y274879D01*
X291499Y83818D02*
X290499Y84818D01*
X288500D01*
X287500Y83818D01*
Y79819D01*
X288500Y78820D01*
X290499D01*
X291499Y79819D01*
X293498Y78820D02*
X295497D01*
X294498D01*
Y84818D01*
X293498Y83818D01*
X298496D02*
X299496Y84818D01*
X301496D01*
X302495Y83818D01*
Y79819D01*
X301496Y78820D01*
X299496D01*
X298496Y79819D01*
Y83818D01*
X114999Y290018D02*
X113999Y291018D01*
X112000D01*
X111000Y290018D01*
Y286019D01*
X112000Y285020D01*
X113999D01*
X114999Y286019D01*
X116998D02*
X117998Y285020D01*
X119997D01*
X120997Y286019D01*
Y290018D01*
X119997Y291018D01*
X117998D01*
X116998Y290018D01*
Y289018D01*
X117998Y288019D01*
X120997D01*
X280492Y187318D02*
X279492Y188318D01*
X277493D01*
X276493Y187318D01*
Y183319D01*
X277493Y182320D01*
X279492D01*
X280492Y183319D01*
X282491Y187318D02*
X283491Y188318D01*
X285490D01*
X286490Y187318D01*
Y186318D01*
X285490Y185319D01*
X286490Y184319D01*
Y183319D01*
X285490Y182320D01*
X283491D01*
X282491Y183319D01*
Y184319D01*
X283491Y185319D01*
X282491Y186318D01*
Y187318D01*
X283491Y185319D02*
X285490D01*
X266499Y187398D02*
X265499Y188398D01*
X263500D01*
X262500Y187398D01*
Y183400D01*
X263500Y182400D01*
X265499D01*
X266499Y183400D01*
X268498Y188398D02*
X272497D01*
Y187398D01*
X268498Y183400D01*
Y182400D01*
X251498Y187358D02*
X250499Y188358D01*
X248499D01*
X247500Y187358D01*
Y183360D01*
X248499Y182360D01*
X250499D01*
X251498Y183360D01*
X257497Y188358D02*
X255497Y187358D01*
X253498Y185359D01*
Y183360D01*
X254497Y182360D01*
X256497D01*
X257497Y183360D01*
Y184360D01*
X256497Y185359D01*
X253498D01*
X237999Y187346D02*
X236999Y188346D01*
X235000D01*
X234000Y187346D01*
Y183347D01*
X235000Y182348D01*
X236999D01*
X237999Y183347D01*
X243997Y188346D02*
X239998D01*
Y185347D01*
X241998Y186346D01*
X242997D01*
X243997Y185347D01*
Y183347D01*
X242997Y182348D01*
X240998D01*
X239998Y183347D01*
X222499Y187398D02*
X221499Y188398D01*
X219500D01*
X218500Y187398D01*
Y183400D01*
X219500Y182400D01*
X221499D01*
X222499Y183400D01*
X227497Y182400D02*
Y188398D01*
X224498Y185399D01*
X228497D01*
X87999Y81998D02*
X86999Y82998D01*
X85000D01*
X84000Y81998D01*
Y78000D01*
X85000Y77000D01*
X86999D01*
X87999Y78000D01*
X89998Y81998D02*
X90998Y82998D01*
X92997D01*
X93997Y81998D01*
Y80999D01*
X92997Y79999D01*
X91997D01*
X92997D01*
X93997Y78999D01*
Y78000D01*
X92997Y77000D01*
X90998D01*
X89998Y78000D01*
X73499Y81998D02*
X72499Y82998D01*
X70500D01*
X69500Y81998D01*
Y78000D01*
X70500Y77000D01*
X72499D01*
X73499Y78000D01*
X79497Y77000D02*
X75498D01*
X79497Y80999D01*
Y81998D01*
X78497Y82998D01*
X76498D01*
X75498Y81998D01*
X214998Y275359D02*
X213999Y276358D01*
X211999D01*
X211000Y275359D01*
Y271360D01*
X211999Y270360D01*
X213999D01*
X214998Y271360D01*
X216998Y270360D02*
X218997D01*
X217997D01*
Y276358D01*
X216998Y275359D01*
D11*
X133000Y265500D02*
G03*
X133000Y265500I-1000J0D01*
G01*
D12*
X105992Y223150D02*
G03*
X105992Y223150I-492J0D01*
G01*
X76728Y134153D02*
G03*
X76728Y134153I-492J0D01*
G01*
X255177Y224783D02*
G03*
X255177Y224783I-492J0D01*
G01*
X152543Y293847D02*
G03*
X152543Y293847I-492J0D01*
G01*
X46705Y10110D02*
X72295D01*
X46705D02*
Y23890D01*
X72295D01*
Y10110D02*
Y23890D01*
D13*
X67444Y135158D02*
G03*
X64556Y135158I-1444J0D01*
G01*
X73161Y45500D02*
G03*
X73161Y45500I-8661J0D01*
G01*
X98661D02*
G03*
X98661Y45500I-8661J0D01*
G01*
X22661Y95500D02*
G03*
X22661Y95500I-8661J0D01*
G01*
X92209Y93000D02*
G03*
X92209Y93000I-8661J0D01*
G01*
X59563Y296563D02*
Y304437D01*
X91059D01*
Y296563D02*
Y304437D01*
X59563Y296563D02*
X91059D01*
X83185D02*
Y304437D01*
X96244Y232199D02*
Y235349D01*
X99787D01*
X96244Y223538D02*
Y226688D01*
Y223538D02*
X99787D01*
X67444Y135158D02*
X70331D01*
X61669D02*
X64556D01*
X61669Y154842D02*
X70331D01*
Y135158D02*
Y154842D01*
X61669Y135158D02*
Y154842D01*
X64500Y41563D02*
X71969Y49031D01*
X64500Y45500D02*
X70500Y51500D01*
X64500Y49437D02*
X68032Y52969D01*
X64500Y37626D02*
Y54000D01*
Y37626D02*
X73187Y46313D01*
X64500Y37000D02*
Y37626D01*
X86063Y45500D02*
X93532Y38032D01*
X90000Y45500D02*
X96000Y39500D01*
X93937Y45500D02*
X97469Y41969D01*
X82126Y45500D02*
X98500D01*
X82126D02*
X90813Y36813D01*
X81500Y45500D02*
X82126D01*
X112000Y40500D02*
X139000D01*
X112000Y1000D02*
Y40500D01*
Y1000D02*
X139000D01*
Y40500D01*
X197937Y42563D02*
Y50437D01*
X182189Y42563D02*
X205811D01*
Y50437D01*
X182189D02*
X205811D01*
X182189Y42563D02*
Y50437D01*
X164937Y42563D02*
Y50437D01*
X149189Y42563D02*
X172811D01*
Y50437D01*
X149189D02*
X172811D01*
X149189Y42563D02*
Y50437D01*
X268437Y14063D02*
Y21937D01*
X260563Y14063D02*
X276311D01*
Y21937D01*
X260563D02*
X276311D01*
X260563Y14063D02*
Y21937D01*
X268437Y37063D02*
Y44937D01*
X260563Y37063D02*
X276311D01*
Y44937D01*
X260563D02*
X276311D01*
X260563Y37063D02*
Y44937D01*
X235500Y14063D02*
Y21937D01*
X227626D02*
X243374D01*
X227626Y14063D02*
Y21937D01*
Y14063D02*
X243374D01*
Y21937D01*
X235500Y37063D02*
Y44937D01*
X227626D02*
X243374D01*
X227626Y37063D02*
Y44937D01*
Y37063D02*
X243374D01*
Y44937D01*
X28000Y167000D02*
Y206500D01*
X1000Y167000D02*
X28000D01*
X1000D02*
Y206500D01*
X28000D01*
X5500Y95500D02*
X6126D01*
X14813Y86813D01*
X6126Y95500D02*
X22500D01*
X17937D02*
X21468Y91969D01*
X14000Y95500D02*
X20000Y89500D01*
X10063Y95500D02*
X17531Y88032D01*
X313000Y210020D02*
X314142D01*
X313000D02*
Y212717D01*
X256024Y237224D02*
Y239902D01*
Y212717D02*
Y220059D01*
Y229508D02*
Y232028D01*
X256024Y245098D02*
Y249744D01*
X256024Y254941D02*
Y264409D01*
X279724D02*
X314142D01*
X256024D02*
X261614D01*
X279724Y212717D02*
X314142D01*
X256024D02*
X261614D01*
X314142Y210020D02*
Y267106D01*
X313000Y264409D02*
Y267106D01*
X314142D01*
X2063Y259831D02*
X9937D01*
Y228335D02*
Y259831D01*
X2063Y228335D02*
X9937D01*
X2063D02*
Y259831D01*
Y236209D02*
X9937D01*
X252000Y96815D02*
X264000D01*
Y136185D01*
X252000Y96815D02*
Y136185D01*
X83547Y84500D02*
Y85126D01*
X92234Y93813D01*
X83547Y85126D02*
Y101500D01*
Y96937D02*
X87079Y100469D01*
X83547Y93000D02*
X89547Y99000D01*
X83547Y89063D02*
X91016Y96531D01*
X157957Y273158D02*
Y292843D01*
X165043Y273158D02*
Y292843D01*
X157957D02*
X165043D01*
X157957Y273158D02*
X165043D01*
X23037Y254001D02*
X19327Y257712D01*
Y254001D02*
X23037Y257712D01*
D14*
X73287Y31500D02*
G03*
X73287Y31500I-787J0D01*
G01*
X69787Y20500D02*
G03*
X69787Y20500I-787J0D01*
G01*
X248608Y137500D02*
G03*
X248608Y137500I-608J0D01*
G01*
D15*
X258000Y134185D02*
G03*
X260000Y136185I0J2000D01*
G01*
X256000Y136185D02*
G03*
X258000Y134185I2000J0D01*
G01*
X212347Y104051D02*
G03*
X230653Y104059I9153J-98D01*
G01*
X230653Y129051D02*
G03*
X212347Y129044I-9153J98D01*
G01*
X98847Y66551D02*
G03*
X117153Y66559I9153J-98D01*
G01*
X117153Y91551D02*
G03*
X98847Y91544I-9153J98D01*
G01*
X119599Y270067D02*
Y275260D01*
Y278260D02*
Y283453D01*
X112400Y278260D02*
Y283453D01*
Y270067D02*
Y275260D01*
Y270067D02*
X119600D01*
X112400Y283453D02*
X119600D01*
X110900Y258452D02*
X118100D01*
Y245067D02*
Y258452D01*
X110900Y245067D02*
X118100D01*
X110900D02*
Y258452D01*
X97400Y245067D02*
X104600D01*
X97400D02*
Y258453D01*
X104600D01*
Y245067D02*
Y258453D01*
X111400Y235224D02*
X118600D01*
Y221838D02*
Y235224D01*
X111400Y221838D02*
X118600D01*
X111400D02*
Y235224D01*
X115401Y204760D02*
Y209952D01*
Y196567D02*
Y201760D01*
X122600Y196567D02*
Y201760D01*
Y204760D02*
Y209952D01*
X115400D02*
X122600D01*
X115400Y196567D02*
X122600D01*
X98401Y204760D02*
Y209952D01*
Y196567D02*
Y201760D01*
X105600Y196567D02*
Y201760D01*
Y204760D02*
Y209952D01*
X98400D02*
X105600D01*
X98400Y196567D02*
X105600D01*
X93599Y196567D02*
Y201760D01*
Y204760D02*
Y209953D01*
X86400Y204760D02*
Y209953D01*
Y196567D02*
Y201760D01*
Y196567D02*
X93600D01*
X86400Y209953D02*
X93600D01*
X94400Y130567D02*
X101600D01*
X94400D02*
Y143953D01*
X101600D01*
Y130567D02*
Y143953D01*
X94400Y121452D02*
X101600D01*
Y108067D02*
Y121452D01*
X94400Y108067D02*
X101600D01*
X94400D02*
Y121452D01*
X63099Y85067D02*
Y90260D01*
Y93260D02*
Y98453D01*
X55900Y93260D02*
Y98453D01*
Y85067D02*
Y90260D01*
Y85067D02*
X63100D01*
X55900Y98453D02*
X63100D01*
X47099Y85067D02*
Y90260D01*
Y93260D02*
Y98453D01*
X39900Y93260D02*
Y98453D01*
Y85067D02*
Y90260D01*
Y85067D02*
X47100D01*
X39900Y98453D02*
X47100D01*
X85401Y70759D02*
Y75952D01*
Y62567D02*
Y67760D01*
X92600Y62567D02*
Y67760D01*
Y70759D02*
Y75952D01*
X85400D02*
X92600D01*
X85400Y62567D02*
X92600D01*
X33099Y62567D02*
Y67760D01*
Y70760D02*
Y75953D01*
X25900Y70760D02*
Y75953D01*
Y62567D02*
Y67760D01*
Y62567D02*
X33100D01*
X25900Y75953D02*
X33100D01*
X8400Y62567D02*
X15600D01*
X8400D02*
Y75953D01*
X15600D01*
Y62567D02*
Y75953D01*
X55400Y75893D02*
X62600D01*
Y62508D02*
Y75893D01*
X55400Y62508D02*
X62600D01*
X55400D02*
Y75893D01*
X70401Y70759D02*
Y75952D01*
Y62567D02*
Y67760D01*
X77600Y62567D02*
Y67760D01*
Y70759D02*
Y75952D01*
X70400D02*
X77600D01*
X70400Y62567D02*
X77600D01*
X261807Y4650D02*
Y11850D01*
X275193D01*
Y4650D02*
Y11850D01*
X261807Y4650D02*
X275193D01*
X261548Y25900D02*
Y33100D01*
X274933D01*
Y25900D02*
Y33100D01*
X261548Y25900D02*
X274933D01*
X242193Y4900D02*
Y12100D01*
X228807Y4900D02*
X242193D01*
X228807D02*
Y12100D01*
X242193D01*
X241996Y25900D02*
Y33100D01*
X228610Y25900D02*
X241996D01*
X228610D02*
Y33100D01*
X241996D01*
X58300Y122100D02*
Y123100D01*
X52700D02*
X58300D01*
X52700Y122100D02*
Y123100D01*
X58300Y116700D02*
Y122000D01*
X52900Y122100D02*
X58300D01*
X52700Y116700D02*
Y122100D01*
X58300Y107900D02*
Y113300D01*
X58100Y107900D02*
X58300D01*
X52700D02*
X58100D01*
X52700D02*
Y108000D01*
Y113300D01*
X246900Y178953D02*
X254100D01*
X246900Y165567D02*
X254100D01*
X246900D02*
Y170760D01*
Y173760D02*
Y178953D01*
X254099Y173760D02*
Y178953D01*
Y165567D02*
Y170760D01*
X47099Y62508D02*
Y67701D01*
Y70701D02*
Y75894D01*
X39900Y70701D02*
Y75894D01*
Y62508D02*
Y67701D01*
Y62508D02*
X47100D01*
X39900Y75894D02*
X47100D01*
X52164Y158567D02*
X59364D01*
X52164Y171952D02*
X59364D01*
Y166760D02*
Y171952D01*
Y158567D02*
Y163760D01*
X52164Y158567D02*
Y163760D01*
Y166760D02*
Y171952D01*
X42100Y108067D02*
Y121453D01*
X34900D02*
X42100D01*
X34900Y108067D02*
Y121453D01*
Y108067D02*
X42100D01*
X71200Y108000D02*
Y113300D01*
Y107900D02*
Y108000D01*
Y107900D02*
X76600D01*
X76800D01*
Y113300D01*
X71200Y116700D02*
Y122100D01*
X71400D02*
X76800D01*
Y116700D02*
Y122000D01*
X71200Y122100D02*
Y123100D01*
X76800D01*
Y122100D02*
Y123100D01*
X73900Y158567D02*
Y171952D01*
Y158567D02*
X81100D01*
Y171952D01*
X73900D02*
X81100D01*
X296260Y212717D02*
Y264409D01*
X213400Y62067D02*
Y75452D01*
Y62067D02*
X220600D01*
Y75452D01*
X213400D02*
X220600D01*
X236600Y62067D02*
Y75453D01*
X229400D02*
X236600D01*
X229400Y62067D02*
Y75453D01*
Y62067D02*
X236600D01*
X261900Y178953D02*
X269100D01*
X261900Y165567D02*
X269100D01*
X261900D02*
Y170760D01*
Y173760D02*
Y178953D01*
X269099Y173760D02*
Y178953D01*
Y165567D02*
Y170760D01*
X275900Y178953D02*
X283100D01*
X275900Y165567D02*
X283100D01*
X275900D02*
Y170760D01*
Y173760D02*
Y178953D01*
X283099Y173760D02*
Y178953D01*
Y165567D02*
Y170760D01*
X210400Y266953D02*
X217600D01*
X210400Y253567D02*
X217600D01*
X210400D02*
Y258760D01*
Y261760D02*
Y266953D01*
X217599Y261760D02*
Y266953D01*
Y253567D02*
Y258760D01*
X217900Y178953D02*
X225100D01*
X217900Y165567D02*
X225100D01*
X217900D02*
Y170760D01*
Y173760D02*
Y178953D01*
X225099Y173760D02*
Y178953D01*
Y165567D02*
Y170760D01*
X210600Y165567D02*
Y178953D01*
X203400D02*
X210600D01*
X203400Y165567D02*
Y178953D01*
Y165567D02*
X210600D01*
X260000Y136185D02*
X264000D01*
X252000D02*
X256000D01*
X230653Y104059D02*
Y129051D01*
X212346Y104051D02*
Y129044D01*
X233400Y165567D02*
X240600D01*
X233400Y178952D02*
X240600D01*
Y173759D02*
Y178952D01*
Y165567D02*
Y170759D01*
X233401Y165567D02*
Y170759D01*
Y173759D02*
Y178952D01*
X117153Y66559D02*
Y91551D01*
X98846Y66551D02*
Y91544D01*
X199400Y253047D02*
X206600D01*
X199400Y266433D02*
X206600D01*
Y261240D02*
Y266433D01*
Y253047D02*
Y258240D01*
X199401Y253047D02*
Y258240D01*
Y261240D02*
Y266433D01*
X286900Y75453D02*
X294100D01*
X286900Y62067D02*
X294100D01*
X286900D02*
Y67260D01*
Y70260D02*
Y75453D01*
X294099Y70260D02*
Y75453D01*
Y62067D02*
Y67260D01*
X269666Y253895D02*
X268999Y254562D01*
X267666D01*
X267000Y253895D01*
Y251229D01*
X267666Y250563D01*
X268999D01*
X269666Y251229D01*
Y252562D01*
X268333D01*
X270999Y250563D02*
Y254562D01*
X273664Y250563D01*
Y254562D01*
X274997D02*
Y250563D01*
X276997D01*
X277663Y251229D01*
Y253895D01*
X276997Y254562D01*
X274997D01*
X267000Y244562D02*
Y240563D01*
X268999D01*
X269666Y241229D01*
Y243895D01*
X268999Y244562D01*
X267000D01*
X270999Y242562D02*
X273664D01*
X272332Y243895D02*
Y241229D01*
X267000Y235562D02*
Y231563D01*
X268999D01*
X269666Y232229D01*
Y234895D01*
X268999Y235562D01*
X267000D01*
X270999Y233562D02*
X273664D01*
X267000Y226562D02*
Y223896D01*
X268333Y222563D01*
X269666Y223896D01*
Y226562D01*
X273664Y225895D02*
X272998Y226562D01*
X271665D01*
X270999Y225895D01*
Y223229D01*
X271665Y222563D01*
X272998D01*
X273664Y223229D01*
X277663Y225895D02*
X276997Y226562D01*
X275664D01*
X274997Y225895D01*
Y223229D01*
X275664Y222563D01*
X276997D01*
X277663Y223229D01*
D16*
X257661Y81898D02*
G03*
X265535Y81898I3937J0D01*
G01*
X118500Y13500D02*
Y27500D01*
Y13500D02*
X122500D01*
Y27500D01*
X118500D02*
X122500D01*
X118500Y21500D02*
X122500D01*
X128500Y13500D02*
Y27500D01*
Y13500D02*
X132500D01*
Y27500D01*
X128500D02*
X132500D01*
X128500Y21500D02*
X132500D01*
X17500Y187500D02*
X21500D01*
X17500Y193500D02*
X21500D01*
Y179500D02*
Y193500D01*
X17500Y179500D02*
X21500D01*
X17500D02*
Y193500D01*
X7500Y187500D02*
X11500D01*
X7500Y193500D02*
X11500D01*
Y179500D02*
Y193500D01*
X7500Y179500D02*
X11500D01*
X7500D02*
Y193500D01*
X291500Y136559D02*
X295437D01*
X313185Y105705D02*
Y136413D01*
X291500Y128559D02*
Y136559D01*
Y105705D02*
Y113559D01*
X308035Y136559D02*
X313185Y136559D01*
X308035Y105559D02*
X313185D01*
X291500Y105559D02*
X295437Y105559D01*
X270350Y61425D02*
Y63968D01*
X252689Y61425D02*
Y63807D01*
X270350Y79768D02*
Y81898D01*
X252689Y79807D02*
Y81898D01*
Y61425D02*
X270350D01*
X265535Y81898D02*
X270350D01*
X252689D02*
X257661D01*
D17*
X95063Y279358D02*
X102937D01*
X95063Y275421D02*
X102937D01*
X95063Y279358D02*
X99000Y275421D01*
X102937Y279358D01*
X58595Y198378D02*
X70406D01*
X58595Y192079D02*
X70406D01*
X58595D02*
Y198378D01*
X70406Y192079D02*
Y198378D01*
X99563Y20579D02*
X107437D01*
X99563Y16642D02*
X107437D01*
X99563Y20579D02*
X103500Y16642D01*
X107437Y20579D01*
X86563D02*
X94437D01*
X86563Y16642D02*
X94437D01*
X86563Y20579D02*
X90500Y16642D01*
X94437Y20579D01*
X41563Y166421D02*
X45500Y170358D01*
X49437Y166421D01*
X41563Y170358D02*
X49437D01*
X41563Y166421D02*
X49437D01*
D18*
X116000Y275760D02*
Y276260D01*
Y277260D02*
Y277760D01*
X114500Y277260D02*
X117500D01*
X114500Y276260D02*
X117500D01*
X119000Y203760D02*
Y204259D01*
Y202259D02*
Y202760D01*
X117500D02*
X120500D01*
X117500Y203760D02*
X120500D01*
X102000D02*
Y204259D01*
Y202259D02*
Y202760D01*
X100500D02*
X103500D01*
X100500Y203760D02*
X103500D01*
X90000Y202260D02*
Y202760D01*
Y203760D02*
Y204260D01*
X88500Y203760D02*
X91500D01*
X88500Y202760D02*
X91500D01*
X59500Y90760D02*
Y91260D01*
Y92260D02*
Y92760D01*
X58000Y92260D02*
X61000D01*
X58000Y91260D02*
X61000D01*
X43500Y90760D02*
Y91260D01*
Y92260D02*
Y92760D01*
X42000Y92260D02*
X45000D01*
X42000Y91260D02*
X45000D01*
X89000Y69760D02*
Y70259D01*
Y68260D02*
Y68760D01*
X87500D02*
X90500D01*
X87500Y69760D02*
X90500D01*
X29500Y68260D02*
Y68760D01*
Y69760D02*
Y70260D01*
X28000Y69760D02*
X31000D01*
X28000Y68760D02*
X31000D01*
X74000Y69760D02*
Y70259D01*
Y68260D02*
Y68760D01*
X72500D02*
X75500D01*
X72500Y69760D02*
X75500D01*
X249000Y171760D02*
X252000D01*
X249000Y172760D02*
X252000D01*
X250500D02*
Y173260D01*
Y171260D02*
Y171760D01*
X43500Y68201D02*
Y68701D01*
Y69701D02*
Y70201D01*
X42000Y69701D02*
X45000D01*
X42000Y68701D02*
X45000D01*
X54264Y165760D02*
X57264D01*
X54264Y164760D02*
X57264D01*
X55764Y164260D02*
Y164760D01*
Y165760D02*
Y166260D01*
X264000Y171760D02*
X267000D01*
X264000Y172760D02*
X267000D01*
X265500D02*
Y173260D01*
Y171260D02*
Y171760D01*
X278000D02*
X281000D01*
X278000Y172760D02*
X281000D01*
X279500D02*
Y173260D01*
Y171260D02*
Y171760D01*
X212500Y259760D02*
X215500D01*
X212500Y260760D02*
X215500D01*
X214000D02*
Y261260D01*
Y259260D02*
Y259760D01*
X220000Y171760D02*
X223000D01*
X220000Y172760D02*
X223000D01*
X221500D02*
Y173260D01*
Y171260D02*
Y171760D01*
X221500Y111051D02*
Y114051D01*
Y119051D02*
Y122051D01*
X217500Y119051D02*
X225500D01*
X217500Y114051D02*
X225500D01*
X217500Y115551D02*
Y117551D01*
X225500D01*
Y115551D02*
Y117551D01*
X217500Y115551D02*
X225500D01*
X235500Y172759D02*
X238500D01*
X235500Y171759D02*
X238500D01*
X237000Y171259D02*
Y171759D01*
Y172759D02*
Y173259D01*
X108000Y73551D02*
Y76551D01*
Y81551D02*
Y84551D01*
X104000Y81551D02*
X112000D01*
X104000Y76551D02*
X112000D01*
X104000Y78051D02*
Y80051D01*
X112000D01*
Y78051D02*
Y80051D01*
X104000Y78051D02*
X112000D01*
X201500Y260240D02*
X204500D01*
X201500Y259240D02*
X204500D01*
X203000Y258740D02*
Y259240D01*
Y260240D02*
Y260740D01*
X289000Y68260D02*
X292000D01*
X289000Y69260D02*
X292000D01*
X290500D02*
Y69760D01*
Y67760D02*
Y68260D01*
D19*
X87122Y300500D02*
D03*
X201874Y46500D02*
D03*
X168874D02*
D03*
X272374Y18000D02*
D03*
Y41000D02*
D03*
X231563Y18000D02*
D03*
Y41000D02*
D03*
X6000Y232272D02*
D03*
D20*
X120500Y24500D02*
D03*
X130500D02*
D03*
X19500Y190500D02*
D03*
X9500D02*
D03*
M02*
