G04*
G04 #@! TF.GenerationSoftware,Altium Limited,Altium Designer,19.0.4 (130)*
G04*
G04 Layer_Physical_Order=1*
G04 Layer_Color=255*
%FSLAX25Y25*%
%MOIN*%
G70*
G01*
G75*
%ADD10C,0.01000*%
%ADD11C,0.02000*%
%ADD21R,0.07874X0.05906*%
%ADD22R,0.05000X0.03500*%
%ADD23R,0.04724X0.01968*%
%ADD24R,0.04000X0.05500*%
%ADD25R,0.01968X0.03937*%
%ADD26R,0.08661X0.02362*%
%ADD27R,0.08661X0.02362*%
%ADD28R,0.02953X0.06693*%
%ADD29R,0.12205X0.06693*%
%ADD30R,0.03500X0.05000*%
G04:AMPARAMS|DCode=31|XSize=50mil|YSize=35mil|CornerRadius=0mil|HoleSize=0mil|Usage=FLASHONLY|Rotation=90.000|XOffset=0mil|YOffset=0mil|HoleType=Round|Shape=Octagon|*
%AMOCTAGOND31*
4,1,8,0.00875,0.02500,-0.00875,0.02500,-0.01750,0.01625,-0.01750,-0.01625,-0.00875,-0.02500,0.00875,-0.02500,0.01750,-0.01625,0.01750,0.01625,0.00875,0.02500,0.0*
%
%ADD31OCTAGOND31*%

%ADD32O,0.05906X0.01968*%
%ADD33R,0.05906X0.01968*%
%ADD34R,0.05512X0.01575*%
%ADD35R,0.07480X0.07087*%
%ADD36O,0.08661X0.02362*%
%ADD37R,0.04528X0.01181*%
%ADD77C,0.03000*%
%ADD78C,0.01500*%
%ADD79C,0.05000*%
%ADD80C,0.04000*%
%ADD81C,0.02500*%
%ADD82C,0.20000*%
%ADD83C,0.06693*%
%ADD84R,0.06693X0.06693*%
%ADD85C,0.05906*%
%ADD86R,0.05906X0.05906*%
%ADD87R,0.07480X0.07480*%
%ADD88C,0.07480*%
%ADD89C,0.04724*%
%ADD90R,0.04724X0.04724*%
%ADD91R,0.04724X0.04724*%
%ADD92R,0.06693X0.06693*%
%ADD93C,0.09843*%
%ADD94R,0.09843X0.09843*%
%ADD95O,0.17717X0.11811*%
%ADD96R,0.07087X0.07087*%
%ADD97C,0.07087*%
%ADD98R,0.05906X0.05906*%
%ADD99C,0.07000*%
%ADD100C,0.05118*%
%ADD101C,0.02400*%
%ADD102C,0.06000*%
%ADD103C,0.03000*%
%ADD104C,0.03150*%
G36*
X171844Y306723D02*
X171720Y306600D01*
X171609Y306455D01*
X171511Y306288D01*
X171426Y306099D01*
X171354Y305887D01*
X171296Y305653D01*
X171250Y305397D01*
X171217Y305119D01*
X171191Y304497D01*
X168191Y304727D01*
X168186Y305051D01*
X168143Y305634D01*
X168105Y305893D01*
X168057Y306131D01*
X167997Y306348D01*
X167927Y306543D01*
X167847Y306717D01*
X167755Y306870D01*
X167653Y307001D01*
X171844Y306723D01*
D02*
G37*
G36*
X11811Y311430D02*
X66494D01*
Y306964D01*
X66016Y305810D01*
X65827Y304374D01*
Y304273D01*
X65326Y304022D01*
X64532Y304351D01*
X64000Y304421D01*
Y300500D01*
Y296579D01*
X64532Y296649D01*
X65153Y296906D01*
X65653Y296572D01*
Y283999D01*
X54702Y273047D01*
X17606D01*
X17606Y273047D01*
X16171Y272858D01*
X14833Y272304D01*
X13684Y271423D01*
X13684Y271423D01*
X4030Y261769D01*
X3530Y261976D01*
Y303150D01*
X3519Y303237D01*
X3669Y304769D01*
X4142Y306326D01*
X4909Y307761D01*
X5941Y309019D01*
X7199Y310052D01*
X8634Y310819D01*
X10192Y311291D01*
X11723Y311442D01*
X11811Y311430D01*
D02*
G37*
G36*
X110452Y297702D02*
Y281620D01*
X109991Y281428D01*
X106718Y284701D01*
X106708Y284711D01*
X106319Y285151D01*
X106025Y285522D01*
X105876Y285737D01*
X105887Y285869D01*
X105927Y286047D01*
X105918Y286261D01*
X105935Y286473D01*
X105902Y286653D01*
X105894Y286836D01*
X105830Y287040D01*
X105792Y287250D01*
X105713Y287416D01*
X105658Y287590D01*
X105544Y287771D01*
X105452Y287963D01*
X105333Y288103D01*
X105235Y288258D01*
X105078Y288402D01*
X104940Y288564D01*
X104789Y288668D01*
X104654Y288792D01*
X104465Y288891D01*
X104289Y289013D01*
X104116Y289074D01*
X103954Y289159D01*
X103746Y289205D01*
X103545Y289277D01*
X103362Y289291D01*
X103183Y289331D01*
X102970Y289323D01*
X102757Y289339D01*
X102577Y289306D01*
X102394Y289299D01*
X102190Y289235D01*
X101980Y289196D01*
X101815Y289118D01*
X101640Y289063D01*
X101460Y288948D01*
X101267Y288857D01*
X101128Y288738D01*
X100973Y288640D01*
X100880Y288539D01*
X97676D01*
X97551Y288701D01*
X97427Y288904D01*
X97312Y289013D01*
X97215Y289140D01*
X97026Y289284D01*
X96854Y289448D01*
X96714Y289524D01*
X96588Y289620D01*
X96368Y289711D01*
X96160Y289825D01*
X96005Y289862D01*
X95858Y289923D01*
X95623Y289954D01*
X95392Y290009D01*
X95233Y290005D01*
X95075Y290026D01*
X94840Y289995D01*
X94602Y289989D01*
X94450Y289944D01*
X94292Y289923D01*
X94072Y289832D01*
X93845Y289764D01*
X93709Y289681D01*
X93562Y289620D01*
X93374Y289476D01*
X93171Y289352D01*
X93062Y289236D01*
X92935Y289140D01*
X92791Y288951D01*
X92627Y288779D01*
X92551Y288639D01*
X92474Y288539D01*
X91500D01*
X90325Y288384D01*
X89231Y287931D01*
X88291Y287209D01*
X56320Y255239D01*
X56261Y255189D01*
X56160Y255114D01*
X56083Y255065D01*
X56030Y255036D01*
X56009Y255027D01*
X55916Y255023D01*
X55585Y254966D01*
X55252Y254923D01*
X55197Y254900D01*
X55138Y254890D01*
X54833Y254749D01*
X54522Y254620D01*
X54475Y254584D01*
X54420Y254559D01*
X54162Y254344D01*
X53895Y254139D01*
X53859Y254092D01*
X53813Y254054D01*
X53619Y253780D01*
X53414Y253513D01*
X53392Y253457D01*
X53357Y253409D01*
X53241Y253094D01*
X53112Y252783D01*
X53104Y252724D01*
X53084Y252668D01*
X53053Y252333D01*
X53009Y252000D01*
X53017Y251941D01*
X53016Y251935D01*
X52791Y251709D01*
X52069Y250769D01*
X51616Y249675D01*
X51527Y249000D01*
X56000D01*
Y248500D01*
X56500D01*
Y244027D01*
X57175Y244116D01*
X58269Y244569D01*
X59209Y245291D01*
X59435Y245516D01*
X59441Y245517D01*
X59500Y245509D01*
X59833Y245553D01*
X60168Y245584D01*
X60224Y245604D01*
X60283Y245612D01*
X60593Y245741D01*
X60909Y245857D01*
X60958Y245892D01*
X61013Y245915D01*
X61279Y246119D01*
X61554Y246313D01*
X61592Y246359D01*
X61639Y246395D01*
X61844Y246662D01*
X62059Y246920D01*
X62084Y246975D01*
X62120Y247022D01*
X62249Y247333D01*
X62390Y247638D01*
X62400Y247697D01*
X62423Y247752D01*
X62467Y248085D01*
X62523Y248416D01*
X62527Y248509D01*
X62536Y248530D01*
X62565Y248583D01*
X62614Y248660D01*
X62689Y248761D01*
X62739Y248820D01*
X93039Y279120D01*
X93098Y279075D01*
X93243Y278930D01*
X93410Y278835D01*
X93562Y278718D01*
X93751Y278640D01*
X93929Y278538D01*
X94115Y278489D01*
X94292Y278416D01*
X94495Y278389D01*
X94693Y278337D01*
X94885Y278338D01*
X95075Y278313D01*
X95278Y278340D01*
X95483Y278341D01*
X95668Y278391D01*
X95858Y278416D01*
X96047Y278494D01*
X96245Y278548D01*
X96411Y278645D01*
X96588Y278718D01*
X96750Y278843D01*
X96927Y278946D01*
X97254Y279173D01*
X97630Y278919D01*
X97677Y278876D01*
X97806Y278809D01*
X97921Y278722D01*
X98154Y278626D01*
X98377Y278510D01*
X98519Y278478D01*
X98652Y278424D01*
X98902Y278392D01*
X99148Y278337D01*
X99293Y278343D01*
X99436Y278325D01*
X99686Y278359D01*
X99937Y278370D01*
X100042Y278402D01*
X100976Y277605D01*
X101666Y276915D01*
X101475Y276453D01*
X92063D01*
Y271907D01*
X92049Y271802D01*
X92063Y271696D01*
Y271104D01*
X91303Y270206D01*
X80791Y259694D01*
X80069Y258754D01*
X79616Y257659D01*
X79461Y256484D01*
Y238776D01*
X79616Y237601D01*
X80069Y236507D01*
X80791Y235567D01*
X81908Y234450D01*
X81716Y233988D01*
X62931D01*
X45209Y251709D01*
X44269Y252431D01*
X43175Y252884D01*
X42000Y253039D01*
X31463D01*
X31386Y253045D01*
X31263Y253064D01*
X31173Y253083D01*
X31115Y253101D01*
X31101Y253106D01*
X31091Y253118D01*
X31028Y253170D01*
X31026Y253172D01*
X31024Y253173D01*
X30101Y253931D01*
X28972Y254534D01*
X27747Y254906D01*
X26472Y255031D01*
X25198Y254906D01*
X23973Y254534D01*
X22844Y253931D01*
X21854Y253118D01*
X21042Y252129D01*
X20438Y250999D01*
X20066Y249774D01*
X19941Y248500D01*
X20066Y247226D01*
X20438Y246001D01*
X20593Y245711D01*
X20336Y245282D01*
X14086D01*
X12035Y247334D01*
X12029Y247356D01*
X12011Y247451D01*
X11994Y247584D01*
X11982Y247755D01*
X11979Y247992D01*
X11982Y248020D01*
X11867Y249187D01*
X11526Y250309D01*
X10973Y251343D01*
X10470Y251957D01*
X10973Y252571D01*
X11492Y253540D01*
X19904Y261952D01*
X57000D01*
X58436Y262142D01*
X59774Y262696D01*
X60923Y263577D01*
X75123Y277778D01*
X76005Y278927D01*
X76559Y280265D01*
X76748Y281701D01*
Y294549D01*
X77248Y294886D01*
X78081Y294633D01*
X79248Y294518D01*
X80415Y294633D01*
X80868Y294771D01*
X81169Y294547D01*
Y294547D01*
X93075D01*
Y304953D01*
X103202D01*
X110452Y297702D01*
D02*
G37*
G36*
X153560Y289333D02*
X155051D01*
X154766Y289303D01*
X154511Y289212D01*
X154286Y289062D01*
X154091Y288851D01*
X153926Y288580D01*
X153791Y288248D01*
X153725Y288000D01*
X153791Y287752D01*
X153926Y287420D01*
X154091Y287149D01*
X154286Y286938D01*
X154511Y286788D01*
X154766Y286697D01*
X155051Y286667D01*
X153560D01*
X153551Y286321D01*
X150551D01*
X150542Y286667D01*
X149051D01*
X149336Y286697D01*
X149591Y286788D01*
X149816Y286938D01*
X150011Y287149D01*
X150176Y287420D01*
X150311Y287752D01*
X150378Y288000D01*
X150311Y288248D01*
X150176Y288580D01*
X150011Y288851D01*
X149816Y289062D01*
X149591Y289212D01*
X149336Y289303D01*
X149051Y289333D01*
X150542D01*
X150551Y289679D01*
X153551D01*
X153560Y289333D01*
D02*
G37*
G36*
X95075Y281339D02*
X95045Y281559D01*
X94955Y281757D01*
X94805Y281931D01*
X94595Y282082D01*
X94325Y282210D01*
X93995Y282314D01*
X93605Y282396D01*
X93155Y282453D01*
X92645Y282488D01*
X92075Y282500D01*
Y285500D01*
X92645Y285515D01*
X93155Y285560D01*
X93605Y285635D01*
X93995Y285740D01*
X94325Y285875D01*
X94595Y286040D01*
X94805Y286235D01*
X94955Y286460D01*
X95045Y286715D01*
X95075Y287000D01*
Y281339D01*
D02*
G37*
G36*
X153560Y284333D02*
X155051D01*
X154766Y284303D01*
X154511Y284212D01*
X154286Y284062D01*
X154091Y283851D01*
X153926Y283580D01*
X153791Y283248D01*
X153725Y283000D01*
X153791Y282751D01*
X153926Y282420D01*
X154091Y282149D01*
X154286Y281938D01*
X154511Y281788D01*
X154766Y281697D01*
X155051Y281667D01*
X153560D01*
X153551Y281321D01*
X150551D01*
X150542Y281667D01*
X149051D01*
X149336Y281697D01*
X149591Y281788D01*
X149816Y281938D01*
X150011Y282149D01*
X150176Y282420D01*
X150311Y282751D01*
X150378Y283000D01*
X150311Y283248D01*
X150176Y283580D01*
X150011Y283851D01*
X149816Y284062D01*
X149591Y284212D01*
X149336Y284303D01*
X149051Y284333D01*
X150542D01*
X150551Y284679D01*
X153551D01*
X153560Y284333D01*
D02*
G37*
G36*
X167189Y279509D02*
X167175Y279603D01*
X167131Y279686D01*
X167059Y279760D01*
X166957Y279823D01*
X166827Y279877D01*
X166668Y279922D01*
X166480Y279956D01*
X166262Y279980D01*
X166016Y279995D01*
X165741Y280000D01*
Y281000D01*
X166016Y281005D01*
X166480Y281044D01*
X166668Y281079D01*
X166827Y281123D01*
X166957Y281177D01*
X167059Y281240D01*
X167131Y281314D01*
X167175Y281397D01*
X167189Y281490D01*
Y279509D01*
D02*
G37*
G36*
X102778Y286052D02*
X102720Y285752D01*
X102739Y285416D01*
X102836Y285045D01*
X103011Y284638D01*
X103263Y284196D01*
X103593Y283719D01*
X104000Y283206D01*
X104484Y282658D01*
X105046Y282075D01*
X103661Y279217D01*
X103012Y279846D01*
X101863Y280825D01*
X101364Y281177D01*
X100915Y281436D01*
X100516Y281604D01*
X100166Y281679D01*
X99867Y281662D01*
X99618Y281552D01*
X99419Y281351D01*
X102913Y286318D01*
X102778Y286052D01*
D02*
G37*
G36*
X175254Y280725D02*
X175283Y280639D01*
X175325Y280546D01*
X175380Y280448D01*
X175448Y280343D01*
X175528Y280233D01*
X175727Y279994D01*
X175977Y279731D01*
X175467Y278826D01*
X175285Y279001D01*
X174962Y279268D01*
X174820Y279362D01*
X174691Y279428D01*
X174575Y279467D01*
X174473Y279479D01*
X174383Y279464D01*
X174307Y279421D01*
X174244Y279352D01*
X175237Y280805D01*
X175254Y280725D01*
D02*
G37*
G36*
X153560Y279333D02*
X155051D01*
X154766Y279303D01*
X154511Y279212D01*
X154286Y279062D01*
X154091Y278851D01*
X153926Y278580D01*
X153791Y278249D01*
X153725Y278000D01*
X153791Y277751D01*
X153926Y277420D01*
X154091Y277149D01*
X154286Y276938D01*
X154511Y276788D01*
X154766Y276697D01*
X155051Y276667D01*
X153560D01*
X153551Y276321D01*
X150551D01*
X150542Y276667D01*
X149051D01*
X149336Y276697D01*
X149591Y276788D01*
X149816Y276938D01*
X150011Y277149D01*
X150176Y277420D01*
X150311Y277751D01*
X150378Y278000D01*
X150311Y278249D01*
X150176Y278580D01*
X150011Y278851D01*
X149816Y279062D01*
X149591Y279212D01*
X149336Y279303D01*
X149051Y279333D01*
X150542D01*
X150551Y279679D01*
X153551D01*
X153560Y279333D01*
D02*
G37*
G36*
X168034Y274333D02*
X167960Y274391D01*
X167872Y274421D01*
X167772Y274425D01*
X167658Y274401D01*
X167531Y274351D01*
X167390Y274273D01*
X167237Y274168D01*
X167070Y274036D01*
X166890Y273877D01*
X166697Y273691D01*
X165990Y274398D01*
X166180Y274595D01*
X166478Y274948D01*
X166586Y275105D01*
X166667Y275249D01*
X166721Y275379D01*
X166749Y275496D01*
X166749Y275601D01*
X166722Y275691D01*
X166668Y275769D01*
X168034Y274333D01*
D02*
G37*
G36*
X153474D02*
X153366Y274313D01*
X153224Y274251D01*
X153048Y274146D01*
X152838Y273997D01*
X152318Y273570D01*
X151662Y272971D01*
X150872Y272200D01*
X148510Y274080D01*
X148575Y274150D01*
X148622Y274212D01*
X148653Y274267D01*
X148667Y274315D01*
X148664Y274356D01*
X148645Y274390D01*
X148608Y274417D01*
X148555Y274437D01*
X148485Y274450D01*
X148398Y274456D01*
X153474Y274333D01*
D02*
G37*
G36*
X113524Y271488D02*
X113509Y271494D01*
X113462Y271499D01*
X113385Y271504D01*
X111980Y271520D01*
Y274520D01*
X113524Y274551D01*
Y271488D01*
D02*
G37*
G36*
X118518Y274712D02*
X118608Y274672D01*
X118758Y274636D01*
X118968Y274605D01*
X119568Y274558D01*
X120918Y274522D01*
X121488Y274520D01*
Y271520D01*
X120918Y271517D01*
X118608Y271367D01*
X118518Y271327D01*
X118488Y271282D01*
Y274758D01*
X118518Y274712D01*
D02*
G37*
G36*
X99318Y267559D02*
X99084Y267729D01*
X98808Y267814D01*
X98490D01*
X98130Y267729D01*
X97727Y267559D01*
X97281Y267305D01*
X96793Y266965D01*
X96263Y266541D01*
X95075Y265438D01*
X92954Y267559D01*
X93548Y268174D01*
X94481Y269278D01*
X94820Y269765D01*
X95075Y270211D01*
X95245Y270614D01*
X95330Y270975D01*
Y271293D01*
X95245Y271569D01*
X95075Y271802D01*
X99318Y267559D01*
D02*
G37*
G36*
X216518Y265693D02*
X216608Y265652D01*
X216758Y265617D01*
X216968Y265586D01*
X217568Y265538D01*
X218918Y265502D01*
X219488Y265500D01*
Y262500D01*
X218918Y262498D01*
X216608Y262348D01*
X216518Y262307D01*
X216488Y262262D01*
Y265738D01*
X216518Y265693D01*
D02*
G37*
G36*
X211512Y262262D02*
X211482Y262307D01*
X211392Y262348D01*
X211242Y262383D01*
X211032Y262414D01*
X210432Y262462D01*
X209082Y262498D01*
X208512Y262500D01*
Y265500D01*
X209082Y265502D01*
X211392Y265652D01*
X211482Y265693D01*
X211512Y265738D01*
Y262262D01*
D02*
G37*
G36*
X208488Y262500D02*
X207918Y262492D01*
X206568Y262379D01*
X206238Y262311D01*
X205968Y262227D01*
X205758Y262129D01*
X205608Y262015D01*
X205518Y261886D01*
X205488Y261742D01*
Y265218D01*
X205518Y265272D01*
X205608Y265320D01*
X205758Y265362D01*
X205968Y265399D01*
X206238Y265430D01*
X207408Y265489D01*
X208488Y265500D01*
Y262500D01*
D02*
G37*
G36*
X201109Y266764D02*
X202188Y265853D01*
X202670Y265519D01*
X203113Y265266D01*
X203518Y265093D01*
X203885Y265000D01*
X204213Y264988D01*
X204503Y265057D01*
X204755Y265206D01*
X200512Y261742D01*
X200491Y262021D01*
X200427Y262315D01*
X200321Y262624D01*
X200173Y262949D01*
X199982Y263289D01*
X199748Y263644D01*
X199473Y264015D01*
X198794Y264802D01*
X198391Y265218D01*
X200512Y267340D01*
X201109Y266764D01*
D02*
G37*
G36*
X136334Y260846D02*
X136143Y260841D01*
X135971Y260826D01*
X135820Y260802D01*
X135689Y260766D01*
X135577Y260721D01*
X135486Y260666D01*
X135415Y260601D01*
X135364Y260526D01*
X135333Y260441D01*
X135322Y260347D01*
X135334Y261835D01*
X136334Y261846D01*
Y260846D01*
D02*
G37*
G36*
X266955Y258589D02*
X266705Y258740D01*
X266426Y258821D01*
X266120Y258831D01*
X265785Y258770D01*
X265422Y258639D01*
X265031Y258438D01*
X264611Y258166D01*
X264163Y257824D01*
X263687Y257411D01*
X263183Y256928D01*
X260828Y258815D01*
X261305Y259314D01*
X262035Y260213D01*
X262287Y260613D01*
X262465Y260981D01*
X262566Y261315D01*
X262593Y261617D01*
X262545Y261886D01*
X262421Y262122D01*
X262222Y262325D01*
X266955Y258589D01*
D02*
G37*
G36*
X134380Y260173D02*
X134118Y259908D01*
X133124Y258773D01*
X133055Y258660D01*
X133014Y258569D01*
X133000Y258499D01*
X131999Y259500D01*
X132069Y259514D01*
X132160Y259555D01*
X132273Y259624D01*
X132408Y259721D01*
X132743Y259997D01*
X133408Y260618D01*
X133673Y260880D01*
X134380Y260173D01*
D02*
G37*
G36*
X118207Y257793D02*
X117845Y257420D01*
X117280Y256767D01*
X117077Y256487D01*
X116927Y256239D01*
X116831Y256021D01*
X116787Y255835D01*
X116797Y255680D01*
X116860Y255557D01*
X116976Y255464D01*
X113714Y257226D01*
X113867Y257171D01*
X114043Y257160D01*
X114241Y257193D01*
X114460Y257269D01*
X114701Y257390D01*
X114965Y257555D01*
X115250Y257763D01*
X115557Y258016D01*
X116238Y258652D01*
X118207Y257793D01*
D02*
G37*
G36*
X104902Y256988D02*
X104516Y256588D01*
X103907Y255866D01*
X103683Y255544D01*
X103513Y255248D01*
X103398Y254978D01*
X103336Y254735D01*
X103329Y254517D01*
X103375Y254325D01*
X103476Y254160D01*
X100910Y257226D01*
X101053Y257103D01*
X101227Y257039D01*
X101433Y257034D01*
X101669Y257088D01*
X101936Y257201D01*
X102234Y257373D01*
X102564Y257604D01*
X102924Y257894D01*
X103738Y258652D01*
X104902Y256988D01*
D02*
G37*
G36*
X128677Y256500D02*
X128657Y256690D01*
X128597Y256860D01*
X128497Y257010D01*
X128356Y257140D01*
X128174Y257250D01*
X127953Y257340D01*
X127692Y257410D01*
X127390Y257460D01*
X127048Y257490D01*
X126666Y257500D01*
Y259500D01*
X127048Y259510D01*
X127390Y259540D01*
X127692Y259590D01*
X127953Y259660D01*
X128174Y259750D01*
X128356Y259860D01*
X128497Y259990D01*
X128597Y260140D01*
X128657Y260310D01*
X128677Y260500D01*
Y256500D01*
D02*
G37*
G36*
X273383Y258503D02*
X273129Y258412D01*
X272904Y258262D01*
X272709Y258051D01*
X272544Y257779D01*
X272409Y257447D01*
X272304Y257055D01*
X272229Y256603D01*
X272184Y256090D01*
X272169Y255517D01*
X269169D01*
X269154Y256090D01*
X269109Y256603D01*
X269034Y257055D01*
X268929Y257447D01*
X268794Y257779D01*
X268630Y258051D01*
X268435Y258262D01*
X268210Y258412D01*
X267955Y258503D01*
X267670Y258533D01*
X273668D01*
X273383Y258503D01*
D02*
G37*
G36*
X257549Y256929D02*
X257812Y256707D01*
X258076Y256512D01*
X258342Y256344D01*
X258609Y256202D01*
X258877Y256086D01*
X259147Y255996D01*
X259418Y255933D01*
X259691Y255896D01*
X259965Y255886D01*
X256457Y252378D01*
X256447Y252652D01*
X256410Y252924D01*
X256347Y253195D01*
X256257Y253465D01*
X256141Y253734D01*
X255999Y254001D01*
X255830Y254266D01*
X255635Y254531D01*
X255414Y254794D01*
X255166Y255055D01*
X257288Y257176D01*
X257549Y256929D01*
D02*
G37*
G36*
X205521Y257574D02*
X205619Y257358D01*
X205783Y257091D01*
X206013Y256771D01*
X206669Y255977D01*
X208145Y254398D01*
X208768Y253768D01*
X205232Y250232D01*
X204460Y250998D01*
X200922Y254101D01*
X200683Y254222D01*
X200512Y254262D01*
X205488Y257738D01*
X205521Y257574D01*
D02*
G37*
G36*
X60782Y251160D02*
X60536Y250901D01*
X60316Y250641D01*
X60122Y250380D01*
X59955Y250119D01*
X59814Y249856D01*
X59698Y249594D01*
X59610Y249330D01*
X59547Y249066D01*
X59510Y248801D01*
X59500Y248535D01*
X56035Y252000D01*
X56301Y252010D01*
X56566Y252047D01*
X56830Y252110D01*
X57094Y252199D01*
X57356Y252314D01*
X57619Y252455D01*
X57880Y252622D01*
X58141Y252816D01*
X58401Y253036D01*
X58660Y253282D01*
X60782Y251160D01*
D02*
G37*
G36*
X134744Y250492D02*
X135412Y249903D01*
X135725Y249663D01*
X136025Y249461D01*
X136310Y249295D01*
X136583Y249166D01*
X136841Y249074D01*
X137086Y249018D01*
X137317Y249000D01*
Y248000D01*
X137086Y247982D01*
X136841Y247926D01*
X136583Y247834D01*
X136310Y247705D01*
X136025Y247539D01*
X135725Y247337D01*
X135412Y247097D01*
X134744Y246508D01*
X134390Y246158D01*
Y250842D01*
X134744Y250492D01*
D02*
G37*
G36*
X29167Y250769D02*
X29380Y250608D01*
X29612Y250465D01*
X29861Y250342D01*
X30128Y250237D01*
X30413Y250152D01*
X30717Y250085D01*
X31038Y250038D01*
X31377Y250009D01*
X31735Y250000D01*
Y247000D01*
X31377Y246990D01*
X31038Y246962D01*
X30717Y246915D01*
X30413Y246848D01*
X30128Y246762D01*
X29861Y246658D01*
X29612Y246534D01*
X29380Y246392D01*
X29167Y246231D01*
X28972Y246050D01*
Y250950D01*
X29167Y250769D01*
D02*
G37*
G36*
X8958Y247631D02*
X8981Y247292D01*
X9021Y246972D01*
X9080Y246671D01*
X9156Y246390D01*
X9250Y246129D01*
X9361Y245887D01*
X9491Y245664D01*
X9638Y245461D01*
X9803Y245278D01*
X8742Y244217D01*
X8558Y244382D01*
X8355Y244529D01*
X8133Y244658D01*
X7891Y244770D01*
X7630Y244864D01*
X7349Y244940D01*
X7048Y244998D01*
X6728Y245039D01*
X6389Y245062D01*
X6030Y245067D01*
X8953Y247990D01*
X8958Y247631D01*
D02*
G37*
G36*
X98512Y246282D02*
X103488D01*
X103300Y246252D01*
X103132Y246162D01*
X102984Y246012D01*
X102856Y245802D01*
X102747Y245532D01*
X102658Y245202D01*
X102589Y244812D01*
X102540Y244362D01*
X102500Y243282D01*
X99500D01*
X99490Y243852D01*
X99411Y244812D01*
X99342Y245202D01*
X99253Y245532D01*
X99144Y245802D01*
X99016Y246012D01*
X98868Y246162D01*
X98700Y246252D01*
X98512Y246282D01*
X98482Y246327D01*
X98392Y246367D01*
X98242Y246403D01*
X98032Y246434D01*
X97432Y246482D01*
X96082Y246517D01*
X95512Y246520D01*
Y249520D01*
X96082Y249522D01*
X98392Y249672D01*
X98482Y249712D01*
X98512Y249758D01*
Y246282D01*
D02*
G37*
G36*
X8968Y240414D02*
X9056Y240169D01*
X9167Y239954D01*
X9301Y239767D01*
X9457Y239609D01*
X9637Y239480D01*
X9840Y239379D01*
X10065Y239307D01*
X10314Y239264D01*
X10585Y239250D01*
X10223Y237750D01*
X9858Y237745D01*
X8449Y237638D01*
X8109Y237589D01*
X7120Y237388D01*
X6800Y237303D01*
X8903Y240687D01*
X8968Y240414D01*
D02*
G37*
G36*
X129096Y238118D02*
X129194Y238075D01*
X129318Y238036D01*
X129468Y238003D01*
X129643Y237975D01*
X130073Y237934D01*
X130605Y237913D01*
X130911Y237911D01*
Y236911D01*
X130605Y236908D01*
X129643Y236847D01*
X129468Y236818D01*
X129318Y236785D01*
X129194Y236747D01*
X129096Y236703D01*
X129024Y236654D01*
Y236911D01*
X128369D01*
Y237911D01*
X128701Y237940D01*
X129024Y237002D01*
Y238167D01*
X129096Y238118D01*
D02*
G37*
G36*
X105008Y236053D02*
X105076Y235301D01*
X105134Y234996D01*
X105210Y234737D01*
X105302Y234525D01*
X105411Y234361D01*
X105537Y234243D01*
X105679Y234173D01*
X105839Y234149D01*
X101171D01*
X104545Y232229D01*
X104356Y232306D01*
X104146Y232334D01*
X103915Y232314D01*
X103664Y232245D01*
X103391Y232126D01*
X103098Y231959D01*
X102784Y231744D01*
X102449Y231479D01*
X102229Y231285D01*
X100484Y229570D01*
X99070Y230984D01*
X100182Y232142D01*
X100457Y232470D01*
X100641Y232731D01*
X100796Y232985D01*
X100924Y233233D01*
X101023Y233474D01*
X101093Y233710D01*
X101136Y233939D01*
X101150Y234161D01*
X101169Y234150D01*
X101321Y234173D01*
X101463Y234243D01*
X101589Y234361D01*
X101698Y234525D01*
X101790Y234737D01*
X101866Y234996D01*
X101925Y235301D01*
X101966Y235654D01*
X101992Y236053D01*
X102000Y236500D01*
X105000D01*
X105008Y236053D01*
D02*
G37*
G36*
X115354Y231918D02*
X115250Y231810D01*
X115070Y231596D01*
X114995Y231491D01*
X114928Y231387D01*
X114872Y231284D01*
X114825Y231182D01*
X114787Y231081D01*
X114759Y230981D01*
X114740Y230882D01*
X113610Y232012D01*
X113709Y232031D01*
X113809Y232059D01*
X113910Y232096D01*
X114012Y232143D01*
X114116Y232200D01*
X114220Y232266D01*
X114325Y232342D01*
X114538Y232521D01*
X114646Y232625D01*
X115354Y231918D01*
D02*
G37*
G36*
X112512Y230534D02*
X110512Y230022D01*
Y232022D01*
X110893Y232032D01*
X111235Y232062D01*
X111536Y232112D01*
X111797Y232182D01*
X112019Y232272D01*
X112200Y232382D01*
X112341Y232512D01*
X112442Y232662D01*
X112503Y232832D01*
X112524Y233022D01*
X112512Y230534D01*
D02*
G37*
G36*
X92037Y232881D02*
X93382Y231706D01*
X93983Y231252D01*
X94537Y230888D01*
X95043Y230613D01*
X95503Y230428D01*
X95915Y230332D01*
X96280Y230326D01*
X96598Y230409D01*
X92150Y228477D01*
X92120Y228512D01*
X92031Y228606D01*
X89173Y231482D01*
X91294Y233603D01*
X92037Y232881D01*
D02*
G37*
G36*
X43342Y228150D02*
X41857Y227365D01*
X41862Y227401D01*
X41856Y227444D01*
X41839Y227494D01*
X41811Y227551D01*
X41771Y227614D01*
X41721Y227683D01*
X41587Y227843D01*
X41410Y228030D01*
X42938Y228623D01*
X43342Y228150D01*
D02*
G37*
G36*
X107264Y226681D02*
X106996Y226407D01*
X106204Y225488D01*
X106077Y225302D01*
X105977Y225134D01*
X105907Y224984D01*
X105864Y224851D01*
X105850Y224736D01*
X104267Y225818D01*
Y224917D01*
X104191Y224972D01*
X104115Y225022D01*
X104039Y225066D01*
X103963Y225104D01*
X103886Y225136D01*
X103809Y225162D01*
X103732Y225182D01*
X103655Y225197D01*
X103578Y225206D01*
X103500Y225209D01*
Y226209D01*
X103578Y226212D01*
X103655Y226220D01*
X103673Y226224D01*
X103022Y226669D01*
X103200Y226581D01*
X103402Y226544D01*
X103626Y226558D01*
X103874Y226624D01*
X104145Y226741D01*
X104440Y226909D01*
X104758Y227129D01*
X105098Y227399D01*
X105463Y227722D01*
X105850Y228095D01*
X107264Y226681D01*
D02*
G37*
G36*
X118902Y226529D02*
X118505Y226118D01*
X117880Y225381D01*
X117653Y225056D01*
X117482Y224759D01*
X117368Y224490D01*
X117310Y224250D01*
X117309Y224038D01*
X117364Y223855D01*
X117476Y223701D01*
X114660Y226517D01*
X114814Y226405D01*
X114997Y226350D01*
X115209Y226351D01*
X115449Y226409D01*
X115717Y226523D01*
X116014Y226694D01*
X116340Y226922D01*
X116694Y227206D01*
X117488Y227943D01*
X118902Y226529D01*
D02*
G37*
G36*
X38857Y226294D02*
X38908Y225904D01*
X39039Y225587D01*
X38762Y225171D01*
X27132D01*
X27132Y225171D01*
X25957Y225016D01*
X24862Y224563D01*
X23923Y223841D01*
X23922Y223841D01*
X8705Y208624D01*
X8687Y208608D01*
X8368Y208355D01*
X8296Y208306D01*
X8220Y208260D01*
X8172Y208235D01*
X8162Y208231D01*
X8083Y208211D01*
X7988Y208173D01*
X7060Y207892D01*
X5957Y207302D01*
X4991Y206509D01*
X4198Y205543D01*
X4030Y205230D01*
X3530Y205355D01*
Y228319D01*
X5500D01*
Y232272D01*
X6000D01*
Y232772D01*
X9953D01*
Y234718D01*
X30433D01*
X38857Y226294D01*
D02*
G37*
G36*
X54956Y226390D02*
X55327Y226063D01*
X55378Y226028D01*
X55423Y226003D01*
X55459Y225988D01*
X55488Y225983D01*
X54300Y224796D01*
X54295Y224824D01*
X54280Y224861D01*
X54255Y224905D01*
X54220Y224957D01*
X54175Y225016D01*
X54055Y225157D01*
X53798Y225425D01*
X54859Y226485D01*
X54956Y226390D01*
D02*
G37*
G36*
X256469Y221252D02*
X256429Y221448D01*
X256310Y221623D01*
X256112Y221778D01*
X255835Y221912D01*
X255479Y222026D01*
X255043Y222118D01*
X254528Y222191D01*
X253934Y222242D01*
X252508Y222284D01*
Y227284D01*
X253260Y227294D01*
X255043Y227449D01*
X255479Y227541D01*
X255835Y227655D01*
X256112Y227789D01*
X256310Y227943D01*
X256429Y228119D01*
X256469Y228315D01*
Y221252D01*
D02*
G37*
G36*
X272184Y221036D02*
X272229Y220523D01*
X272304Y220071D01*
X272409Y219678D01*
X272544Y219347D01*
X272709Y219075D01*
X272904Y218864D01*
X273129Y218713D01*
X273383Y218623D01*
X273668Y218593D01*
X267670D01*
X267955Y218623D01*
X268210Y218713D01*
X268435Y218864D01*
X268630Y219075D01*
X268794Y219347D01*
X268929Y219678D01*
X269034Y220071D01*
X269109Y220523D01*
X269154Y221036D01*
X269169Y221609D01*
X272169D01*
X272184Y221036D01*
D02*
G37*
G36*
X304769Y311291D02*
X306326Y310819D01*
X307761Y310052D01*
X309019Y309019D01*
X310052Y307761D01*
X310819Y306326D01*
X311291Y304769D01*
X311442Y303237D01*
X311430Y303150D01*
Y144844D01*
X310968Y144653D01*
X309090Y146531D01*
X308203Y147212D01*
X307169Y147641D01*
X306059Y147787D01*
X286121D01*
X285547Y147806D01*
Y165333D01*
X285858Y166084D01*
X286048Y167520D01*
X285858Y168956D01*
X285304Y170293D01*
X285000Y170690D01*
Y173270D01*
X283707D01*
X283503Y173610D01*
X283447Y173770D01*
X283884Y174825D01*
X283970Y175477D01*
X284128Y175598D01*
X284223Y175723D01*
X284337Y175830D01*
X284462Y176035D01*
X284609Y176225D01*
X284668Y176370D01*
X284751Y176503D01*
X284819Y176733D01*
X284911Y176955D01*
X284931Y177110D01*
X284976Y177260D01*
X284983Y177500D01*
X285014Y177738D01*
X284993Y177893D01*
X284998Y178050D01*
X284942Y178283D01*
X284911Y178521D01*
X284851Y178666D01*
X284814Y178818D01*
X284700Y179029D01*
X284609Y179251D01*
X284513Y179375D01*
X284438Y179513D01*
X284274Y179687D01*
X284128Y179878D01*
X284066Y179925D01*
X284039Y180255D01*
Y189842D01*
X283884Y191017D01*
X283431Y192112D01*
X282709Y193052D01*
X275208Y200553D01*
Y204201D01*
X275308Y204278D01*
X275449Y204354D01*
X275620Y204517D01*
X275808Y204661D01*
X275905Y204788D01*
X276021Y204898D01*
X276145Y205100D01*
X276289Y205288D01*
X276350Y205436D01*
X276434Y205572D01*
X276501Y205799D01*
X276591Y206018D01*
X276612Y206176D01*
X276657Y206330D01*
X276661Y206491D01*
X277477Y206927D01*
X278529Y207790D01*
X279392Y208842D01*
X280033Y210041D01*
X280428Y211343D01*
X280512Y212197D01*
X270669D01*
X260827D01*
X260911Y211343D01*
X261306Y210041D01*
X261947Y208842D01*
X262810Y207790D01*
X263861Y206927D01*
X264677Y206491D01*
X264681Y206330D01*
X264726Y206176D01*
X264747Y206018D01*
X264838Y205799D01*
X264905Y205572D01*
X264988Y205436D01*
X265050Y205288D01*
X265194Y205100D01*
X265317Y204898D01*
X265433Y204788D01*
X265531Y204661D01*
X265718Y204517D01*
X265890Y204354D01*
X266030Y204278D01*
X266130Y204201D01*
Y198673D01*
X266285Y197498D01*
X266739Y196404D01*
X267460Y195464D01*
X274961Y187962D01*
Y180559D01*
X274646Y180539D01*
X270059D01*
X269228Y180561D01*
X268962Y180582D01*
X268771Y180661D01*
X268677Y180673D01*
X268588Y180704D01*
X268287Y180725D01*
X267988Y180764D01*
X267894Y180752D01*
X267800Y180758D01*
X267504Y180700D01*
X267205Y180661D01*
X267118Y180625D01*
X267025Y180606D01*
X266886Y180539D01*
X264114D01*
X263975Y180606D01*
X263882Y180625D01*
X263795Y180661D01*
X263496Y180700D01*
X263200Y180758D01*
X263106Y180752D01*
X263012Y180764D01*
X262713Y180725D01*
X262412Y180704D01*
X262322Y180673D01*
X262229Y180661D01*
X262174Y180638D01*
X260647Y180539D01*
X255059D01*
X254228Y180561D01*
X253962Y180582D01*
X253771Y180661D01*
X253678Y180673D01*
X253588Y180704D01*
X253287Y180725D01*
X252988Y180764D01*
X252894Y180752D01*
X252800Y180758D01*
X252504Y180700D01*
X252205Y180661D01*
X252117Y180625D01*
X252025Y180606D01*
X251886Y180539D01*
X249750D01*
X249750Y180539D01*
X249750Y180539D01*
X249114D01*
X248975Y180606D01*
X248883Y180625D01*
X248795Y180661D01*
X248496Y180700D01*
X248200Y180758D01*
X248106Y180752D01*
X248012Y180764D01*
X247713Y180725D01*
X247412Y180704D01*
X247323Y180673D01*
X247229Y180661D01*
X247174Y180638D01*
X245647Y180539D01*
X241559D01*
X240728Y180561D01*
X240462Y180582D01*
X240271Y180661D01*
X240177Y180673D01*
X240088Y180704D01*
X239787Y180725D01*
X239488Y180764D01*
X239394Y180752D01*
X239300Y180758D01*
X239004Y180700D01*
X238705Y180661D01*
X238617Y180625D01*
X238525Y180606D01*
X238386Y180539D01*
X235614D01*
X235475Y180606D01*
X235383Y180625D01*
X235295Y180661D01*
X234996Y180700D01*
X234700Y180758D01*
X234606Y180752D01*
X234512Y180764D01*
X234213Y180725D01*
X233912Y180704D01*
X233822Y180673D01*
X233729Y180661D01*
X233674Y180638D01*
X232147Y180539D01*
X226059D01*
X225228Y180561D01*
X224962Y180582D01*
X224771Y180661D01*
X224677Y180673D01*
X224588Y180704D01*
X224287Y180725D01*
X223988Y180764D01*
X223894Y180752D01*
X223800Y180758D01*
X223504Y180700D01*
X223205Y180661D01*
X223117Y180625D01*
X223025Y180606D01*
X222886Y180539D01*
X221500D01*
X220325Y180384D01*
X219231Y179931D01*
X218291Y179209D01*
X217569Y178269D01*
X217116Y177175D01*
X216961Y176000D01*
X217116Y174825D01*
X217553Y173770D01*
X217425Y173406D01*
X217358Y173270D01*
X216000D01*
Y163770D01*
X217970D01*
Y162799D01*
X217831Y162618D01*
X217408Y161596D01*
X217264Y160500D01*
X217408Y159404D01*
X217831Y158382D01*
X218505Y157504D01*
X219382Y156831D01*
X220404Y156408D01*
X221500Y156264D01*
X222596Y156408D01*
X223618Y156831D01*
X224496Y157504D01*
X225169Y158382D01*
X225592Y159404D01*
X225736Y160500D01*
X225592Y161596D01*
X225169Y162618D01*
X225030Y162799D01*
Y163770D01*
X227000D01*
Y171461D01*
X231500D01*
Y168012D01*
X229264Y165776D01*
X228703Y165045D01*
X228350Y164193D01*
X228230Y163280D01*
Y150059D01*
X228092Y149878D01*
X227668Y148857D01*
X227524Y147760D01*
X227624Y146999D01*
X227151Y146766D01*
X214431Y159485D01*
X214169Y160118D01*
X213495Y160995D01*
X212618Y161669D01*
X211596Y162092D01*
X210500Y162236D01*
X209404Y162092D01*
X208382Y161669D01*
X207505Y160995D01*
X206831Y160118D01*
X206408Y159096D01*
X206264Y158000D01*
X206387Y157061D01*
X205851Y156649D01*
X205178Y155772D01*
X204755Y154750D01*
X204610Y153654D01*
X204755Y152557D01*
X205178Y151535D01*
X205851Y150658D01*
X206728Y149985D01*
X207476Y149675D01*
X235825Y121326D01*
X236609Y120724D01*
X237521Y120346D01*
X238500Y120218D01*
X240884D01*
X241273Y119718D01*
X241178Y119000D01*
X241315Y117960D01*
X241717Y116991D01*
X242093Y116500D01*
X241717Y116009D01*
X241315Y115040D01*
X241178Y114000D01*
X241315Y112960D01*
X241717Y111991D01*
X241888Y111767D01*
X241717Y111379D01*
X241197Y111295D01*
X227116Y125377D01*
X227087Y125753D01*
X227086Y125842D01*
X227107Y126000D01*
X226916Y127451D01*
X226356Y128804D01*
X225465Y129965D01*
X224304Y130856D01*
X222951Y131416D01*
X221500Y131607D01*
X220049Y131416D01*
X218696Y130856D01*
X217535Y129965D01*
X216644Y128804D01*
X216084Y127451D01*
X215893Y126000D01*
X216084Y124549D01*
X216644Y123196D01*
X217535Y122035D01*
X218696Y121144D01*
X220049Y120584D01*
X221500Y120393D01*
X221634Y120411D01*
X222005Y120399D01*
X222118Y120388D01*
X222120Y120388D01*
X239515Y102992D01*
X239324Y102530D01*
X231065D01*
X227116Y106479D01*
X227087Y106855D01*
X227086Y106944D01*
X227107Y107102D01*
X226916Y108554D01*
X226356Y109906D01*
X225465Y111067D01*
X224304Y111958D01*
X222951Y112518D01*
X221500Y112709D01*
X220049Y112518D01*
X218696Y111958D01*
X217535Y111067D01*
X216644Y109906D01*
X216084Y108554D01*
X215893Y107102D01*
X216084Y105651D01*
X216644Y104299D01*
X217535Y103138D01*
X218696Y102246D01*
X220049Y101686D01*
X221500Y101495D01*
X221634Y101513D01*
X222005Y101502D01*
X222118Y101490D01*
X222120Y101490D01*
X225964Y97646D01*
X225773Y97184D01*
X198740Y97184D01*
X198297Y97684D01*
X198377Y98500D01*
X198255Y99744D01*
X197892Y100940D01*
X197302Y102043D01*
X196509Y103009D01*
X196216Y103250D01*
Y103750D01*
X196509Y103991D01*
X197302Y104957D01*
X197892Y106060D01*
X198255Y107256D01*
X198377Y108500D01*
X198255Y109744D01*
X197892Y110940D01*
X197302Y112043D01*
X196509Y113009D01*
X196216Y113250D01*
Y113750D01*
X196509Y113991D01*
X197302Y114957D01*
X197892Y116060D01*
X198255Y117256D01*
X198377Y118500D01*
X198255Y119744D01*
X197892Y120940D01*
X197302Y122043D01*
X196509Y123009D01*
X196216Y123250D01*
Y123750D01*
X196509Y123991D01*
X197302Y124957D01*
X197892Y126060D01*
X198255Y127256D01*
X198377Y128500D01*
X198255Y129744D01*
X197892Y130940D01*
X197302Y132043D01*
X196509Y133009D01*
X196216Y133250D01*
Y133750D01*
X196509Y133991D01*
X197302Y134957D01*
X197892Y136060D01*
X198255Y137256D01*
X198377Y138500D01*
X198255Y139744D01*
X197892Y140940D01*
X197302Y142043D01*
X196509Y143009D01*
X196216Y143250D01*
Y143750D01*
X196509Y143991D01*
X197302Y144957D01*
X197892Y146060D01*
X198255Y147256D01*
X198377Y148500D01*
X198255Y149744D01*
X197892Y150940D01*
X197302Y152043D01*
X196509Y153009D01*
X196216Y153250D01*
Y153750D01*
X196509Y153991D01*
X197302Y154957D01*
X197892Y156060D01*
X198255Y157256D01*
X198377Y158500D01*
X198255Y159744D01*
X197892Y160940D01*
X197302Y162043D01*
X196509Y163009D01*
X196216Y163250D01*
Y163750D01*
X196414Y163912D01*
X196422Y163918D01*
X196437Y163922D01*
X196522Y163939D01*
X196645Y163956D01*
X196710Y163961D01*
X201500D01*
Y163770D01*
X204406D01*
X204512Y163756D01*
X204618Y163770D01*
X212500D01*
Y171250D01*
Y175639D01*
X212547Y176000D01*
Y250452D01*
X218993D01*
X248585Y220861D01*
X248585Y220861D01*
X249734Y219979D01*
X251072Y219425D01*
X252508Y219236D01*
X253210D01*
X253457Y219229D01*
Y218240D01*
X256239D01*
X256280Y218232D01*
X256375Y218239D01*
X256469Y218226D01*
X256574Y218240D01*
X262844D01*
X263012Y217769D01*
X262810Y217603D01*
X261947Y216552D01*
X261306Y215352D01*
X260911Y214051D01*
X260827Y213197D01*
X270669D01*
X280512D01*
X280428Y214051D01*
X280033Y215352D01*
X279392Y216552D01*
X278529Y217603D01*
X277477Y218466D01*
X276661Y218902D01*
X276657Y219064D01*
X276612Y219217D01*
X276591Y219376D01*
X276501Y219595D01*
X276434Y219822D01*
X276350Y219958D01*
X276289Y220106D01*
X276145Y220293D01*
X276021Y220495D01*
X275905Y220606D01*
X275808Y220732D01*
X275620Y220877D01*
X275449Y221040D01*
X275308Y221116D01*
X275208Y221193D01*
Y255933D01*
X275308Y256010D01*
X275449Y256086D01*
X275620Y256249D01*
X275808Y256393D01*
X275905Y256520D01*
X276021Y256631D01*
X276145Y256833D01*
X276289Y257020D01*
X276350Y257168D01*
X276434Y257305D01*
X276501Y257531D01*
X276591Y257750D01*
X276612Y257909D01*
X276657Y258062D01*
X276661Y258224D01*
X277477Y258660D01*
X278529Y259523D01*
X279392Y260574D01*
X280033Y261774D01*
X280428Y263075D01*
X280512Y263929D01*
X270669D01*
Y264429D01*
X270169D01*
Y271368D01*
X267717D01*
X266363Y271235D01*
X265061Y270840D01*
X263861Y270199D01*
X262810Y269336D01*
X261947Y268284D01*
X261306Y267085D01*
X260911Y265783D01*
X260834Y265000D01*
X260737Y264961D01*
X260582Y264844D01*
X260413Y264750D01*
X260267Y264608D01*
X260105Y264486D01*
X259986Y264334D01*
X259847Y264199D01*
X259743Y264025D01*
X259618Y263865D01*
X259542Y263687D01*
X259443Y263521D01*
X259387Y263325D01*
X259308Y263138D01*
X259280Y262947D01*
X259228Y262760D01*
X259225Y262557D01*
X259196Y262356D01*
X259220Y262164D01*
X259217Y261970D01*
X259267Y261774D01*
X259285Y261626D01*
X259043Y261328D01*
X258238Y260523D01*
X251552Y267209D01*
X250612Y267931D01*
X249517Y268384D01*
X248342Y268539D01*
X218559D01*
X217728Y268561D01*
X217462Y268582D01*
X217271Y268661D01*
X217178Y268673D01*
X217088Y268704D01*
X216787Y268724D01*
X216488Y268764D01*
X216394Y268752D01*
X216300Y268758D01*
X216004Y268700D01*
X215705Y268661D01*
X215617Y268625D01*
X215525Y268606D01*
X215386Y268539D01*
X212614D01*
X212475Y268606D01*
X212383Y268625D01*
X212295Y268661D01*
X211996Y268700D01*
X211700Y268758D01*
X211606Y268752D01*
X211512Y268764D01*
X211213Y268724D01*
X210912Y268704D01*
X210823Y268673D01*
X210729Y268661D01*
X210674Y268638D01*
X209146Y268539D01*
X203697D01*
X203140Y269009D01*
X183440Y288709D01*
X182500Y289431D01*
X181405Y289884D01*
X180230Y290039D01*
X178634D01*
X178304Y290415D01*
X178316Y290500D01*
X178172Y291592D01*
X177751Y292609D01*
X177080Y293482D01*
X176207Y294152D01*
X175190Y294573D01*
X174230Y294700D01*
Y304743D01*
X174234Y304836D01*
X174903Y305650D01*
X175460Y306693D01*
X175803Y307824D01*
X175919Y309000D01*
X175803Y310176D01*
X175574Y310930D01*
X175945Y311430D01*
X303150D01*
X303237Y311442D01*
X304769Y311291D01*
D02*
G37*
G36*
X67176Y217956D02*
X68296Y217002D01*
X68629Y216768D01*
X68942Y216577D01*
X69234Y216429D01*
X69506Y216323D01*
X69757Y216259D01*
X69988Y216238D01*
X66024Y212745D01*
X66205Y212966D01*
X66298Y213231D01*
X66303Y213542D01*
X66221Y213898D01*
X66051Y214300D01*
X65794Y214747D01*
X65450Y215239D01*
X65017Y215777D01*
X63891Y216988D01*
X66762Y218359D01*
X67176Y217956D01*
D02*
G37*
G36*
X70018Y216003D02*
X70108Y215792D01*
X70258Y215607D01*
X70468Y215446D01*
X70738Y215310D01*
X71068Y215198D01*
X71458Y215111D01*
X71908Y215050D01*
X72418Y215012D01*
X72988Y215000D01*
Y212000D01*
X72418Y211988D01*
X71458Y211889D01*
X71068Y211802D01*
X70738Y211690D01*
X70468Y211554D01*
X70258Y211393D01*
X70108Y211208D01*
X70018Y210997D01*
X69988Y210762D01*
Y216238D01*
X70018Y216003D01*
D02*
G37*
G36*
X60988Y210762D02*
X60614Y210741D01*
X60236Y210677D01*
X59851Y210571D01*
X59462Y210423D01*
X59067Y210232D01*
X58666Y209998D01*
X58261Y209723D01*
X57850Y209404D01*
X57434Y209044D01*
X57012Y208641D01*
X54891Y210762D01*
X55479Y211371D01*
X56404Y212466D01*
X56741Y212952D01*
X56995Y213396D01*
X57165Y213800D01*
X57252Y214163D01*
X57256Y214485D01*
X57175Y214765D01*
X57012Y215005D01*
X60988Y210762D01*
D02*
G37*
G36*
X116512Y205262D02*
X116482Y205307D01*
X116392Y205348D01*
X116242Y205383D01*
X116032Y205414D01*
X115432Y205462D01*
X114082Y205498D01*
X113512Y205500D01*
Y208500D01*
X114082Y208502D01*
X116392Y208652D01*
X116482Y208693D01*
X116512Y208738D01*
Y205262D01*
D02*
G37*
G36*
X104518Y208693D02*
X104608Y208652D01*
X104758Y208617D01*
X104968Y208586D01*
X105568Y208538D01*
X106918Y208502D01*
X107488Y208500D01*
Y205500D01*
X106918Y205498D01*
X104608Y205348D01*
X104518Y205307D01*
X104488Y205262D01*
Y208738D01*
X104518Y208693D01*
D02*
G37*
G36*
X103755Y205262D02*
X103502Y205413D01*
X103212Y205483D01*
X102883Y205472D01*
X102516Y205381D01*
X102111Y205209D01*
X101668Y204957D01*
X101186Y204624D01*
X100666Y204210D01*
X100108Y203716D01*
X99512Y203141D01*
X97391Y205262D01*
X97794Y205679D01*
X98473Y206466D01*
X98748Y206836D01*
X98982Y207192D01*
X99173Y207532D01*
X99321Y207856D01*
X99427Y208166D01*
X99491Y208459D01*
X99512Y208738D01*
X103755Y205262D01*
D02*
G37*
G36*
X88108Y210284D02*
X89186Y209376D01*
X89668Y209043D01*
X90111Y208791D01*
X90516Y208619D01*
X90883Y208528D01*
X91212Y208517D01*
X91502Y208587D01*
X91755Y208738D01*
X87512Y205262D01*
X87491Y205541D01*
X87427Y205835D01*
X87321Y206144D01*
X87173Y206468D01*
X86982Y206808D01*
X86748Y207164D01*
X86473Y207534D01*
X85794Y208321D01*
X85391Y208738D01*
X87512Y210859D01*
X88108Y210284D01*
D02*
G37*
G36*
X273383Y206771D02*
X273129Y206680D01*
X272904Y206529D01*
X272709Y206318D01*
X272544Y206047D01*
X272409Y205715D01*
X272304Y205323D01*
X272229Y204871D01*
X272184Y204358D01*
X272169Y203785D01*
X269169D01*
X269154Y204358D01*
X269109Y204871D01*
X269034Y205323D01*
X268929Y205715D01*
X268794Y206047D01*
X268630Y206318D01*
X268435Y206529D01*
X268210Y206680D01*
X267955Y206771D01*
X267670Y206801D01*
X273668D01*
X273383Y206771D01*
D02*
G37*
G36*
X13779Y205158D02*
X13540Y204904D01*
X13331Y204653D01*
X13152Y204405D01*
X13005Y204159D01*
X12888Y203916D01*
X12802Y203676D01*
X12746Y203438D01*
X12721Y203202D01*
X12727Y202970D01*
X12764Y202740D01*
X8826Y205278D01*
X9037Y205331D01*
X9253Y205406D01*
X9473Y205502D01*
X9698Y205618D01*
X9927Y205756D01*
X10160Y205914D01*
X10640Y206295D01*
X10887Y206516D01*
X11138Y206759D01*
X13779Y205158D01*
D02*
G37*
G36*
X63528Y201455D02*
X63756Y201453D01*
Y198453D01*
X63528Y198450D01*
Y197996D01*
X63500Y198083D01*
X63417Y198161D01*
X63279Y198229D01*
X63085Y198288D01*
X62836Y198339D01*
X62531Y198380D01*
X62495Y198382D01*
X62461Y198380D01*
X62238Y198339D01*
X62056Y198288D01*
X61914Y198229D01*
X61813Y198161D01*
X61752Y198083D01*
X61732Y197996D01*
Y198435D01*
X60760Y198453D01*
Y201453D01*
X61286Y201457D01*
X61732Y201489D01*
Y201909D01*
X61752Y201822D01*
X61813Y201745D01*
X61914Y201676D01*
X62056Y201617D01*
X62238Y201567D01*
X62404Y201536D01*
X62836Y201567D01*
X63085Y201617D01*
X63279Y201676D01*
X63417Y201745D01*
X63500Y201822D01*
X63528Y201909D01*
Y201455D01*
D02*
G37*
G36*
X182775Y202074D02*
X182718Y201998D01*
X182667Y201917D01*
X182622Y201830D01*
X182585Y201738D01*
X182554Y201640D01*
X182531Y201536D01*
X182514Y201426D01*
X182503Y201310D01*
X182500Y201189D01*
X181500D01*
X181497Y201310D01*
X181486Y201426D01*
X181469Y201536D01*
X181446Y201640D01*
X181415Y201738D01*
X181378Y201830D01*
X181333Y201917D01*
X181282Y201998D01*
X181225Y202074D01*
X181160Y202143D01*
X182840D01*
X182775Y202074D01*
D02*
G37*
G36*
X94020Y198270D02*
X92476Y198238D01*
X92488Y201258D01*
X94020Y201270D01*
Y198270D01*
D02*
G37*
G36*
X91755Y197794D02*
X91503Y197943D01*
X91213Y198012D01*
X90885Y198000D01*
X90518Y197907D01*
X90113Y197734D01*
X89670Y197481D01*
X89188Y197147D01*
X88668Y196732D01*
X87512Y195660D01*
X85391Y197782D01*
X85794Y198198D01*
X86473Y198986D01*
X86748Y199356D01*
X86982Y199711D01*
X87173Y200051D01*
X87321Y200376D01*
X87427Y200685D01*
X87491Y200979D01*
X87512Y201258D01*
X91755Y197794D01*
D02*
G37*
G36*
X120772Y201316D02*
X121457Y200874D01*
X121662Y200766D01*
X121856Y200677D01*
X122039Y200608D01*
X122211Y200559D01*
X122371Y200530D01*
X122520Y200520D01*
Y198520D01*
X122371Y198510D01*
X122211Y198480D01*
X122039Y198431D01*
X121856Y198362D01*
X121662Y198274D01*
X121457Y198166D01*
X121012Y197890D01*
X120772Y197723D01*
X120521Y197536D01*
Y201503D01*
X120772Y201316D01*
D02*
G37*
G36*
X69242Y192374D02*
X69332Y192296D01*
X69482Y192228D01*
X69692Y192168D01*
X69962Y192118D01*
X70292Y192077D01*
X71132Y192022D01*
X72212Y192004D01*
Y189004D01*
X71642Y188999D01*
X69962Y188890D01*
X69692Y188840D01*
X69482Y188780D01*
X69332Y188712D01*
X69242Y188634D01*
X69212Y188547D01*
Y192460D01*
X69242Y192374D01*
D02*
G37*
G36*
X69212Y188547D02*
X69029Y188526D01*
X68820Y188463D01*
X68586Y188356D01*
X68326Y188208D01*
X68041Y188017D01*
X67731Y187784D01*
X67034Y187190D01*
X66236Y186426D01*
X64086Y188518D01*
X64691Y189130D01*
X66759Y191465D01*
X66982Y191786D01*
X67141Y192060D01*
X67236Y192284D01*
X67268Y192460D01*
X69212Y188547D01*
D02*
G37*
G36*
X116936Y185101D02*
X117696Y184424D01*
X118051Y184148D01*
X118387Y183915D01*
X118707Y183725D01*
X119008Y183577D01*
X119293Y183471D01*
X119560Y183407D01*
X119809Y183386D01*
Y182386D01*
X119560Y182365D01*
X119293Y182301D01*
X119008Y182195D01*
X118707Y182047D01*
X118387Y181856D01*
X118051Y181623D01*
X117696Y181348D01*
X116936Y180670D01*
X116529Y180268D01*
Y182284D01*
X116038Y182246D01*
X115725Y182184D01*
X115456Y182111D01*
X115232Y182027D01*
X115053Y181931D01*
X114918Y181825D01*
Y183947D01*
X115053Y183841D01*
X115232Y183745D01*
X115456Y183661D01*
X115725Y183588D01*
X116038Y183526D01*
X116396Y183476D01*
X116529Y183465D01*
Y185504D01*
X116936Y185101D01*
D02*
G37*
G36*
X101463Y184672D02*
X99882Y182923D01*
X96179Y186626D01*
X96226Y186641D01*
X96302Y186688D01*
X96406Y186767D01*
X96699Y187020D01*
X97928Y188207D01*
X101463Y184672D01*
D02*
G37*
G36*
X128770Y182463D02*
X128983Y182329D01*
X129230Y182211D01*
X129514Y182110D01*
X129833Y182025D01*
X130189Y181957D01*
X130579Y181904D01*
X131468Y181849D01*
X131966Y181846D01*
X128654Y178533D01*
X128651Y179032D01*
X128595Y179921D01*
X128543Y180311D01*
X128475Y180667D01*
X128390Y180986D01*
X128289Y181270D01*
X128171Y181517D01*
X128037Y181730D01*
X127887Y181906D01*
X128594Y182613D01*
X128770Y182463D01*
D02*
G37*
G36*
X98737Y180170D02*
X98717Y180084D01*
X98700Y179954D01*
X98671Y179568D01*
X98642Y177860D01*
X93642D01*
X93524Y180215D01*
X98760D01*
X98737Y180170D01*
D02*
G37*
G36*
X281010Y180168D02*
X281089Y179208D01*
X281158Y178818D01*
X281247Y178488D01*
X281356Y178218D01*
X281484Y178008D01*
X281632Y177858D01*
X281800Y177768D01*
X281988Y177738D01*
X277012D01*
X277200Y177768D01*
X277368Y177858D01*
X277516Y178008D01*
X277644Y178218D01*
X277753Y178488D01*
X277842Y178818D01*
X277911Y179208D01*
X277960Y179658D01*
X278000Y180738D01*
X281000D01*
X281010Y180168D01*
D02*
G37*
G36*
X116264Y179988D02*
X116074Y179744D01*
X115906Y179485D01*
X115761Y179209D01*
X115638Y178917D01*
X115537Y178609D01*
X115459Y178285D01*
X115403Y177945D01*
X115369Y177588D01*
X115358Y177216D01*
X112358D01*
X112347Y177588D01*
X112314Y177945D01*
X112258Y178285D01*
X112179Y178609D01*
X112079Y178917D01*
X111956Y179209D01*
X111810Y179485D01*
X111643Y179744D01*
X111453Y179988D01*
X111240Y180215D01*
X116476D01*
X116264Y179988D01*
D02*
G37*
G36*
X277012Y174262D02*
X276982Y174307D01*
X276892Y174348D01*
X276742Y174383D01*
X276532Y174414D01*
X275932Y174462D01*
X274582Y174498D01*
X274012Y174500D01*
Y177500D01*
X274582Y177502D01*
X276892Y177652D01*
X276982Y177693D01*
X277012Y177738D01*
Y174262D01*
D02*
G37*
G36*
X268018Y177693D02*
X268108Y177652D01*
X268258Y177617D01*
X268468Y177586D01*
X269068Y177538D01*
X270418Y177502D01*
X270988Y177500D01*
Y174500D01*
X270418Y174498D01*
X268108Y174348D01*
X268018Y174307D01*
X267988Y174262D01*
Y177738D01*
X268018Y177693D01*
D02*
G37*
G36*
X263012Y174262D02*
X262982Y174307D01*
X262892Y174348D01*
X262742Y174383D01*
X262532Y174414D01*
X261932Y174462D01*
X260582Y174498D01*
X260012Y174500D01*
Y177500D01*
X260582Y177502D01*
X262892Y177652D01*
X262982Y177693D01*
X263012Y177738D01*
Y174262D01*
D02*
G37*
G36*
X253018Y177693D02*
X253108Y177652D01*
X253258Y177617D01*
X253468Y177586D01*
X254068Y177538D01*
X255418Y177502D01*
X255988Y177500D01*
Y174500D01*
X255418Y174498D01*
X253108Y174348D01*
X253018Y174307D01*
X252988Y174262D01*
Y177738D01*
X253018Y177693D01*
D02*
G37*
G36*
X248012Y174262D02*
X247982Y174307D01*
X247892Y174348D01*
X247742Y174383D01*
X247532Y174414D01*
X246932Y174462D01*
X245582Y174498D01*
X245012Y174500D01*
Y177500D01*
X245582Y177502D01*
X247892Y177652D01*
X247982Y177693D01*
X248012Y177738D01*
Y174262D01*
D02*
G37*
G36*
X239518Y177693D02*
X239608Y177652D01*
X239758Y177617D01*
X239968Y177586D01*
X240568Y177538D01*
X241918Y177502D01*
X242488Y177500D01*
Y174500D01*
X241918Y174498D01*
X239608Y174348D01*
X239518Y174307D01*
X239488Y174262D01*
Y177738D01*
X239518Y177693D01*
D02*
G37*
G36*
X234512Y174262D02*
X234482Y174307D01*
X234392Y174348D01*
X234242Y174383D01*
X234032Y174414D01*
X233432Y174462D01*
X232082Y174498D01*
X231512Y174500D01*
Y177500D01*
X232082Y177502D01*
X234392Y177652D01*
X234482Y177693D01*
X234512Y177738D01*
Y174262D01*
D02*
G37*
G36*
X224018Y177693D02*
X224108Y177652D01*
X224258Y177617D01*
X224468Y177586D01*
X225068Y177538D01*
X226418Y177502D01*
X226988Y177500D01*
Y174500D01*
X226418Y174498D01*
X224108Y174348D01*
X224018Y174307D01*
X223988Y174262D01*
Y177738D01*
X224018Y177693D01*
D02*
G37*
G36*
X41575Y172339D02*
X41525Y172423D01*
X41375Y172497D01*
X41125Y172564D01*
X40775Y172621D01*
X40325Y172669D01*
X38375Y172762D01*
X36575Y172780D01*
Y177779D01*
X37525Y177784D01*
X41125Y177996D01*
X41375Y178062D01*
X41525Y178137D01*
X41575Y178220D01*
Y172339D01*
D02*
G37*
G36*
X57274Y173168D02*
X57353Y172208D01*
X57422Y171818D01*
X57511Y171488D01*
X57620Y171218D01*
X57748Y171008D01*
X57896Y170858D01*
X58064Y170768D01*
X58252Y170738D01*
X53276D01*
X53464Y170768D01*
X53632Y170858D01*
X53780Y171008D01*
X53908Y171218D01*
X54017Y171488D01*
X54106Y171818D01*
X54175Y172208D01*
X54224Y172658D01*
X54264Y173738D01*
X57264D01*
X57274Y173168D01*
D02*
G37*
G36*
X277733Y166751D02*
X277632Y166802D01*
X277438Y166848D01*
X277149Y166888D01*
X277012Y166898D01*
Y166782D01*
X276982Y166827D01*
X276892Y166867D01*
X276742Y166903D01*
X276532Y166934D01*
X276458Y166940D01*
X276290Y166953D01*
X272500Y167020D01*
Y170020D01*
X277008Y170251D01*
X277012Y170258D01*
Y170252D01*
X277733Y170289D01*
Y166751D01*
D02*
G37*
G36*
X12885Y175176D02*
X13035Y175034D01*
X13284Y174909D01*
X13634Y174800D01*
X14085Y174709D01*
X14635Y174634D01*
X16035Y174533D01*
X17834Y174500D01*
Y169500D01*
X16884Y169492D01*
X14085Y169291D01*
X13634Y169200D01*
X13284Y169091D01*
X13035Y168966D01*
X12885Y168824D01*
X12834Y168666D01*
Y175334D01*
X12885Y175176D01*
D02*
G37*
G36*
X75609Y172283D02*
X76688Y171373D01*
X77170Y171039D01*
X77613Y170785D01*
X78018Y170612D01*
X78385Y170520D01*
X78713Y170508D01*
X79003Y170577D01*
X79255Y170726D01*
X75012Y167262D01*
X74991Y167541D01*
X74927Y167834D01*
X74821Y168144D01*
X74673Y168468D01*
X74482Y168808D01*
X74248Y169164D01*
X73973Y169534D01*
X73294Y170321D01*
X72891Y170738D01*
X75012Y172859D01*
X75609Y172283D01*
D02*
G37*
G36*
X53276Y167262D02*
X53246Y167307D01*
X53156Y167348D01*
X53006Y167383D01*
X52796Y167414D01*
X52196Y167462D01*
X50846Y167498D01*
X50276Y167500D01*
Y170500D01*
X50846Y170502D01*
X53156Y170652D01*
X53246Y170693D01*
X53276Y170738D01*
Y167262D01*
D02*
G37*
G36*
X268018Y170212D02*
X268108Y170172D01*
X268258Y170136D01*
X268468Y170105D01*
X269068Y170058D01*
X270418Y170022D01*
X270988Y170020D01*
Y167020D01*
X270418Y167017D01*
X268108Y166867D01*
X268018Y166827D01*
X267988Y166782D01*
Y170258D01*
X268018Y170212D01*
D02*
G37*
G36*
X204512Y166782D02*
X204482Y166823D01*
X204392Y166860D01*
X204242Y166893D01*
X204032Y166921D01*
X203432Y166965D01*
X201512Y167000D01*
Y170000D01*
X202082Y170003D01*
X204242Y170126D01*
X204392Y170165D01*
X204482Y170209D01*
X204512Y170258D01*
Y166782D01*
D02*
G37*
G36*
X194565Y170682D02*
X194758Y170539D01*
X194972Y170413D01*
X195204Y170303D01*
X195455Y170211D01*
X195726Y170135D01*
X196015Y170076D01*
X196324Y170034D01*
X196652Y170008D01*
X196999Y170000D01*
Y167000D01*
X196652Y166992D01*
X196324Y166966D01*
X196015Y166924D01*
X195726Y166865D01*
X195455Y166789D01*
X195204Y166697D01*
X194972Y166587D01*
X194758Y166461D01*
X194565Y166318D01*
X194390Y166157D01*
Y170843D01*
X194565Y170682D01*
D02*
G37*
G36*
X252921Y168119D02*
X252894Y168028D01*
X252895Y167923D01*
X252924Y167803D01*
X252982Y167669D01*
X253068Y167520D01*
X253182Y167357D01*
X253325Y167180D01*
X253695Y166782D01*
X252988Y166075D01*
X252782Y166274D01*
X252413Y166587D01*
X252250Y166702D01*
X252101Y166788D01*
X251967Y166846D01*
X251847Y166875D01*
X251742Y166876D01*
X251651Y166849D01*
X251574Y166794D01*
X252976Y168196D01*
X252921Y168119D01*
D02*
G37*
G36*
X236535Y166775D02*
X236393Y166753D01*
X236252Y166718D01*
X236110Y166668D01*
X235969Y166605D01*
X235828Y166527D01*
X235686Y166435D01*
X235545Y166329D01*
X235403Y166209D01*
X235262Y166075D01*
X233848D01*
X234512Y166782D01*
X236676D01*
X236535Y166775D01*
D02*
G37*
G36*
X222405Y166784D02*
X222320Y166753D01*
X222245Y166703D01*
X222180Y166632D01*
X222125Y166541D01*
X222080Y166429D01*
X222045Y166298D01*
X222020Y166146D01*
X222005Y165974D01*
X222000Y165782D01*
X221000D01*
X220995Y165974D01*
X220980Y166146D01*
X220955Y166298D01*
X220920Y166429D01*
X220875Y166541D01*
X220820Y166632D01*
X220755Y166703D01*
X220680Y166753D01*
X220595Y166784D01*
X220500Y166794D01*
X222500D01*
X222405Y166784D01*
D02*
G37*
G36*
X26616Y166325D02*
X27069Y165231D01*
X27791Y164291D01*
X28731Y163569D01*
X29825Y163116D01*
X31000Y162961D01*
X32175Y163116D01*
X33269Y163569D01*
X34209Y164291D01*
X34380Y164461D01*
X38563D01*
Y155547D01*
X48433D01*
Y148319D01*
Y145139D01*
X44147Y140853D01*
X43506Y140017D01*
X43103Y139044D01*
X42965Y138000D01*
X42965Y138000D01*
Y126000D01*
X42965Y126000D01*
X43103Y124956D01*
X43506Y123983D01*
X43685Y123750D01*
X43438Y123250D01*
X33000D01*
Y115183D01*
X32439Y114950D01*
X31499Y114229D01*
X24791Y107520D01*
X24069Y106580D01*
X23616Y105486D01*
X23461Y104311D01*
Y91000D01*
X23581Y90093D01*
X23107Y89859D01*
X19362Y93604D01*
Y97046D01*
X19547Y98453D01*
Y114702D01*
X32742Y127896D01*
X33440Y128108D01*
X34543Y128698D01*
X35509Y129491D01*
X36302Y130457D01*
X36892Y131560D01*
X37255Y132756D01*
X37377Y134000D01*
X37255Y135244D01*
X36892Y136440D01*
X36302Y137543D01*
X35509Y138509D01*
X34724Y139154D01*
X34903Y139654D01*
X35346D01*
Y143500D01*
X31000D01*
X26654D01*
Y139654D01*
X27097D01*
X27276Y139154D01*
X26491Y138509D01*
X25698Y137543D01*
X25108Y136440D01*
X24896Y135742D01*
X10077Y120923D01*
X9196Y119774D01*
X8642Y118436D01*
X8452Y117000D01*
Y98453D01*
X8638Y97046D01*
Y93091D01*
X9154D01*
X9483Y92715D01*
X9461Y92547D01*
X9616Y91373D01*
X10069Y90278D01*
X10791Y89338D01*
X11366Y88763D01*
X11403Y88672D01*
X11474Y88580D01*
X11526Y88476D01*
X11713Y88268D01*
X11884Y88046D01*
X11976Y87975D01*
X12054Y87888D01*
X12288Y87735D01*
X12511Y87565D01*
X12533Y87555D01*
X12847Y87281D01*
X16596Y83532D01*
X16499Y83042D01*
X16231Y82931D01*
X15291Y82209D01*
X11608Y78527D01*
X11593Y78513D01*
X11148Y78119D01*
X10774Y77821D01*
X10671Y77750D01*
X10078D01*
X9965Y77764D01*
X9868Y77750D01*
X6500D01*
Y68250D01*
Y65880D01*
X6453Y65520D01*
Y55500D01*
X6642Y54064D01*
X7196Y52726D01*
X8077Y51577D01*
X15060Y44594D01*
X15087Y44324D01*
X15430Y43193D01*
X15987Y42151D01*
X16737Y41237D01*
X17650Y40487D01*
X18693Y39930D01*
X19824Y39587D01*
X20366Y39533D01*
X50398Y9502D01*
Y8440D01*
X50384Y8334D01*
X50398Y8229D01*
Y8166D01*
X50394Y8088D01*
X50398Y8070D01*
Y3530D01*
X11811D01*
X11723Y3519D01*
X10192Y3669D01*
X8634Y4142D01*
X7199Y4909D01*
X5941Y5941D01*
X4909Y7199D01*
X4142Y8634D01*
X3669Y10192D01*
X3519Y11723D01*
X3530Y11811D01*
Y165654D01*
X12640D01*
X12702Y165642D01*
X12769Y165648D01*
X12834Y165640D01*
X12940Y165654D01*
X15846D01*
Y166384D01*
X16462Y166428D01*
X17060Y166108D01*
X18256Y165745D01*
X19500Y165623D01*
X20744Y165745D01*
X21940Y166108D01*
X22584Y166453D01*
X26599D01*
X26616Y166325D01*
D02*
G37*
G36*
X58273Y170459D02*
X58337Y170166D01*
X58443Y169856D01*
X58591Y169532D01*
X58782Y169192D01*
X59016Y168836D01*
X59291Y168466D01*
X59970Y167679D01*
X60373Y167262D01*
X58252Y165141D01*
X57656Y165716D01*
X56578Y166624D01*
X56096Y166957D01*
X55653Y167209D01*
X55248Y167381D01*
X54881Y167472D01*
X54552Y167483D01*
X54261Y167413D01*
X54009Y167262D01*
X58252Y170738D01*
X58273Y170459D01*
D02*
G37*
G36*
X81402Y163258D02*
X81005Y162847D01*
X80380Y162110D01*
X80153Y161784D01*
X79982Y161487D01*
X79868Y161218D01*
X79810Y160978D01*
X79809Y160767D01*
X79864Y160584D01*
X79976Y160429D01*
X77160Y163246D01*
X77314Y163134D01*
X77497Y163078D01*
X77709Y163080D01*
X77949Y163137D01*
X78217Y163252D01*
X78514Y163423D01*
X78840Y163650D01*
X79194Y163934D01*
X79988Y164672D01*
X81402Y163258D01*
D02*
G37*
G36*
X222003Y162190D02*
X222014Y162074D01*
X222031Y161964D01*
X222054Y161860D01*
X222085Y161762D01*
X222122Y161670D01*
X222167Y161583D01*
X222218Y161502D01*
X222275Y161426D01*
X222340Y161357D01*
X220660D01*
X220725Y161426D01*
X220782Y161502D01*
X220833Y161583D01*
X220878Y161670D01*
X220915Y161762D01*
X220946Y161860D01*
X220969Y161964D01*
X220986Y162074D01*
X220997Y162190D01*
X221000Y162311D01*
X222000D01*
X222003Y162190D01*
D02*
G37*
G36*
X98654Y163892D02*
X98838Y161642D01*
X98949Y161092D01*
X99084Y160642D01*
X99243Y160292D01*
X99428Y160042D01*
X99637Y159892D01*
X99870Y159842D01*
X92414D01*
X92647Y159892D01*
X92856Y160042D01*
X93040Y160292D01*
X93200Y160642D01*
X93335Y161092D01*
X93445Y161642D01*
X93531Y162292D01*
X93629Y163892D01*
X93642Y164842D01*
X98642D01*
X98654Y163892D01*
D02*
G37*
G36*
X115369Y161412D02*
X115403Y161055D01*
X115459Y160715D01*
X115537Y160391D01*
X115638Y160083D01*
X115761Y159791D01*
X115906Y159515D01*
X116074Y159256D01*
X116264Y159012D01*
X116476Y158785D01*
X111240D01*
X111453Y159012D01*
X111643Y159256D01*
X111810Y159515D01*
X111956Y159791D01*
X112079Y160083D01*
X112179Y160391D01*
X112258Y160715D01*
X112314Y161055D01*
X112347Y161412D01*
X112358Y161784D01*
X115358D01*
X115369Y161412D01*
D02*
G37*
G36*
X49455Y164167D02*
X49545Y163922D01*
X49695Y163706D01*
X49905Y163519D01*
X50175Y163360D01*
X50505Y163231D01*
X50895Y163130D01*
X51345Y163058D01*
X51531Y163042D01*
X53006Y163126D01*
X53156Y163165D01*
X53246Y163209D01*
X53276Y163258D01*
Y159782D01*
X58252D01*
X58064Y159752D01*
X57896Y159662D01*
X57748Y159512D01*
X57620Y159302D01*
X57511Y159032D01*
X57422Y158702D01*
X57353Y158312D01*
X57303Y157862D01*
X57264Y156782D01*
X54264D01*
X54254Y157352D01*
X54175Y158312D01*
X54106Y158702D01*
X54017Y159032D01*
X53908Y159302D01*
X53780Y159512D01*
X53632Y159662D01*
X53464Y159752D01*
X53276Y159782D01*
X53246Y159823D01*
X53156Y159860D01*
X53006Y159893D01*
X52796Y159921D01*
X52196Y159965D01*
X51716Y159974D01*
X51345Y159942D01*
X50895Y159870D01*
X50505Y159769D01*
X50175Y159640D01*
X49905Y159481D01*
X49695Y159294D01*
X49545Y159078D01*
X49455Y158833D01*
X49425Y158559D01*
Y164441D01*
X49455Y164167D01*
D02*
G37*
G36*
X211705Y158010D02*
X211721Y157976D01*
X211747Y157934D01*
X211782Y157884D01*
X211884Y157761D01*
X212111Y157518D01*
X212207Y157421D01*
X211200Y156306D01*
X211104Y156402D01*
X210729Y156726D01*
X210675Y156760D01*
X210630Y156784D01*
X210591Y156798D01*
X210560Y156801D01*
X211700Y158036D01*
X211705Y158010D01*
D02*
G37*
G36*
X57279Y156097D02*
X57324Y155585D01*
X57399Y155133D01*
X57504Y154741D01*
X57639Y154410D01*
X57804Y154139D01*
X57999Y153928D01*
X58224Y153778D01*
X58479Y153687D01*
X58764Y153657D01*
X52764D01*
X53049Y153687D01*
X53304Y153778D01*
X53529Y153928D01*
X53724Y154139D01*
X53889Y154410D01*
X54024Y154741D01*
X54129Y155133D01*
X54204Y155585D01*
X54249Y156097D01*
X54264Y156669D01*
X57264D01*
X57279Y156097D01*
D02*
G37*
G36*
X210051Y153613D02*
X210066Y153576D01*
X210091Y153532D01*
X210126Y153480D01*
X210171Y153421D01*
X210292Y153280D01*
X210548Y153012D01*
X209488Y151952D01*
X209391Y152047D01*
X209020Y152374D01*
X208968Y152409D01*
X208924Y152434D01*
X208887Y152449D01*
X208858Y152454D01*
X210046Y153641D01*
X210051Y153613D01*
D02*
G37*
G36*
X73868Y155274D02*
X74867Y154444D01*
X75329Y154130D01*
X75766Y153883D01*
X76177Y153703D01*
X76564Y153591D01*
X76926Y153546D01*
X77262Y153568D01*
X77574Y153657D01*
X71917Y151331D01*
X71896Y151662D01*
X71833Y152003D01*
X71727Y152353D01*
X71578Y152714D01*
X71387Y153084D01*
X71154Y153464D01*
X70878Y153854D01*
X70560Y154254D01*
X69796Y155082D01*
X73331Y155790D01*
X73868Y155274D01*
D02*
G37*
G36*
X232264Y149450D02*
X232274Y149334D01*
X232291Y149224D01*
X232315Y149120D01*
X232345Y149022D01*
X232383Y148930D01*
X232427Y148843D01*
X232478Y148762D01*
X232536Y148687D01*
X232600Y148617D01*
X230920D01*
X230985Y148687D01*
X231043Y148762D01*
X231094Y148843D01*
X231138Y148930D01*
X231175Y149022D01*
X231206Y149120D01*
X231230Y149224D01*
X231247Y149334D01*
X231257Y149450D01*
X231260Y149571D01*
X232260D01*
X232264Y149450D01*
D02*
G37*
G36*
X72118Y148400D02*
Y148500D01*
X75208Y148592D01*
Y146408D01*
X75160Y146425D01*
X75053Y146441D01*
X74889Y146455D01*
X73653Y146492D01*
X73539Y146492D01*
X73659Y146331D01*
X73522Y146463D01*
X73450Y146493D01*
X72926Y146496D01*
X72917Y146494D01*
X72650Y146383D01*
X72351Y146211D01*
X72020Y145978D01*
X71656Y145685D01*
X70831Y144917D01*
X69796Y146710D01*
X71917Y148669D01*
X72118Y148400D01*
D02*
G37*
G36*
X282316Y145439D02*
X282504Y145294D01*
X282707Y145167D01*
X282924Y145056D01*
X283155Y144963D01*
X283398Y144887D01*
X283960Y144833D01*
X286233Y144755D01*
X287165Y144750D01*
Y142250D01*
X286233Y142245D01*
X283170Y142042D01*
X283155Y142037D01*
X282924Y141944D01*
X282707Y141833D01*
X282504Y141706D01*
X282316Y141561D01*
X282142Y141400D01*
Y141916D01*
X281914Y141830D01*
X281767Y141731D01*
Y145269D01*
X281914Y145170D01*
X282142Y145085D01*
Y145600D01*
X282316Y145439D01*
D02*
G37*
G36*
X80575Y143637D02*
X80635Y143608D01*
X80735Y143583D01*
X80875Y143561D01*
X81055Y143542D01*
X81835Y143507D01*
X82555Y143500D01*
Y141500D01*
X82175Y141498D01*
X80635Y141392D01*
X80575Y141363D01*
X80555Y141331D01*
Y143669D01*
X80575Y143637D01*
D02*
G37*
G36*
X52207Y142630D02*
Y143208D01*
X52266Y143168D01*
X52359Y143133D01*
X52488Y143102D01*
X52652Y143075D01*
X53084Y143033D01*
X53993Y143002D01*
X54366Y143000D01*
Y142000D01*
X53993Y141998D01*
X52732Y141914D01*
X53159Y141331D01*
X53023Y141464D01*
X52855Y141535D01*
X52653Y141546D01*
X52420Y141496D01*
X52153Y141385D01*
X51854Y141214D01*
X51522Y140981D01*
X51158Y140687D01*
X50331Y139917D01*
X49324Y141738D01*
X51445Y143669D01*
X52207Y142630D01*
D02*
G37*
G36*
X95512Y142738D02*
X95524Y140500D01*
X95503Y140690D01*
X95442Y140860D01*
X95341Y141010D01*
X95200Y141140D01*
X95018Y141250D01*
X94797Y141340D01*
X94536Y141410D01*
X94235Y141460D01*
X93893Y141490D01*
X93512Y141500D01*
Y143500D01*
X95512Y142738D01*
D02*
G37*
G36*
X71744Y139685D02*
X72483Y139059D01*
X72809Y138832D01*
X73106Y138662D01*
X73374Y138549D01*
X73614Y138493D01*
X73825Y138495D01*
X74006Y138553D01*
X74159Y138669D01*
X71917Y136331D01*
X71896Y136416D01*
X71833Y136537D01*
X71727Y136694D01*
X71578Y136886D01*
X71154Y137378D01*
X69796Y138790D01*
X71331Y140083D01*
X71744Y139685D01*
D02*
G37*
G36*
X250117Y134768D02*
X250149Y134564D01*
X250202Y134358D01*
X250276Y134151D01*
X250371Y133944D01*
X250488Y133736D01*
X250626Y133526D01*
X250785Y133317D01*
X250965Y133106D01*
X251167Y132894D01*
X249972Y131967D01*
X249671Y132258D01*
X249128Y132717D01*
X248886Y132886D01*
X248664Y133014D01*
X248461Y133100D01*
X248279Y133147D01*
X248116Y133152D01*
X247974Y133116D01*
X247851Y133040D01*
X250106Y134972D01*
X250117Y134768D01*
D02*
G37*
G36*
X96108Y136804D02*
X97186Y135896D01*
X97668Y135563D01*
X98111Y135310D01*
X98516Y135138D01*
X98883Y135047D01*
X99212Y135037D01*
X99502Y135107D01*
X99755Y135258D01*
X95512Y131782D01*
X95491Y132060D01*
X95427Y132354D01*
X95321Y132664D01*
X95173Y132988D01*
X94982Y133328D01*
X94748Y133683D01*
X94473Y134054D01*
X93794Y134841D01*
X93391Y135258D01*
X95512Y137379D01*
X96108Y136804D01*
D02*
G37*
G36*
X252956Y131106D02*
X253327Y130780D01*
X253379Y130745D01*
X253422Y130720D01*
X253459Y130705D01*
X253488Y130700D01*
X252300Y129512D01*
X252295Y129541D01*
X252280Y129578D01*
X252255Y129622D01*
X252220Y129673D01*
X252175Y129732D01*
X252055Y129873D01*
X251798Y130141D01*
X252859Y131202D01*
X252956Y131106D01*
D02*
G37*
G36*
X244817Y128084D02*
X244755Y128116D01*
X244668Y128144D01*
X244556Y128169D01*
X244419Y128190D01*
X244069Y128224D01*
X243357Y128248D01*
X243069Y128250D01*
Y129750D01*
X243357Y129752D01*
X244556Y129831D01*
X244668Y129856D01*
X244755Y129884D01*
X244817Y129916D01*
Y128084D01*
D02*
G37*
G36*
X262284Y128790D02*
X262313Y128782D01*
X262356Y128774D01*
X262412Y128768D01*
X262661Y128754D01*
X263031Y128750D01*
Y127250D01*
X262894Y127250D01*
X262284Y127210D01*
X262269Y127200D01*
Y128800D01*
X262284Y128790D01*
D02*
G37*
G36*
X288756Y126952D02*
Y125402D01*
X288741Y125468D01*
X288696Y125527D01*
X288621Y125579D01*
X288516Y125625D01*
X288381Y125663D01*
X288216Y125694D01*
X288021Y125719D01*
X287541Y125747D01*
X287256Y125750D01*
Y127250D01*
X288756Y126952D01*
D02*
G37*
G36*
X244817Y123084D02*
X244755Y123116D01*
X244668Y123144D01*
X244556Y123169D01*
X244419Y123190D01*
X244069Y123223D01*
X243357Y123248D01*
X243069Y123250D01*
Y124750D01*
X243357Y124752D01*
X244556Y124831D01*
X244668Y124856D01*
X244755Y124884D01*
X244817Y124916D01*
Y123084D01*
D02*
G37*
G36*
X224062Y125624D02*
X224110Y124992D01*
X224155Y124709D01*
X224214Y124450D01*
X224286Y124213D01*
X224372Y123999D01*
X224472Y123808D01*
X224586Y123639D01*
X224714Y123493D01*
X224007Y122786D01*
X223861Y122914D01*
X223692Y123028D01*
X223501Y123128D01*
X223287Y123214D01*
X223050Y123286D01*
X222791Y123345D01*
X222508Y123390D01*
X222203Y123421D01*
X221526Y123441D01*
X224059Y125974D01*
X224062Y125624D01*
D02*
G37*
G36*
X288756Y120284D02*
X288746Y120336D01*
X288716Y120383D01*
X288666Y120424D01*
X288596Y120460D01*
X288506Y120490D01*
X288396Y120515D01*
X288266Y120534D01*
X288116Y120548D01*
X287756Y120559D01*
Y121559D01*
X287946Y121562D01*
X288266Y121584D01*
X288396Y121603D01*
X288506Y121628D01*
X288596Y121658D01*
X288666Y121694D01*
X288716Y121735D01*
X288746Y121782D01*
X288756Y121834D01*
Y120284D01*
D02*
G37*
G36*
X250785Y119944D02*
X250672Y119825D01*
X250567Y119703D01*
X250471Y119578D01*
X250384Y119449D01*
X250307Y119319D01*
X250237Y119185D01*
X250177Y119048D01*
X250126Y118909D01*
X250083Y118766D01*
X250050Y118621D01*
X248711Y119979D01*
X248787Y119923D01*
X248876Y119894D01*
X248979Y119893D01*
X249095Y119919D01*
X249225Y119972D01*
X249369Y120053D01*
X249526Y120161D01*
X249696Y120297D01*
X249880Y120461D01*
X250078Y120651D01*
X250785Y119944D01*
D02*
G37*
G36*
X288756Y117725D02*
X288746Y117777D01*
X288716Y117824D01*
X288666Y117865D01*
X288596Y117901D01*
X288506Y117931D01*
X288396Y117956D01*
X288266Y117975D01*
X288116Y117989D01*
X287756Y118000D01*
Y119000D01*
X287946Y119003D01*
X288266Y119025D01*
X288396Y119044D01*
X288506Y119069D01*
X288596Y119099D01*
X288666Y119135D01*
X288716Y119176D01*
X288746Y119223D01*
X288756Y119275D01*
Y117725D01*
D02*
G37*
G36*
X52889Y121537D02*
X53148Y121315D01*
X53390Y121133D01*
X53616Y120991D01*
X53826Y120890D01*
X54019Y120829D01*
X54197Y120808D01*
X54358Y120828D01*
X54502Y120888D01*
X54631Y120988D01*
X53762Y116881D01*
X53748Y117074D01*
X53705Y117277D01*
X53635Y117489D01*
X53536Y117711D01*
X53408Y117942D01*
X53253Y118182D01*
X53069Y118432D01*
X52617Y118960D01*
X52348Y119238D01*
X52614Y121800D01*
X52889Y121537D01*
D02*
G37*
G36*
X102609Y120988D02*
X102206Y120564D01*
X101846Y120140D01*
X101527Y119717D01*
X101252Y119294D01*
X101018Y118871D01*
X100827Y118448D01*
X100679Y118026D01*
X100573Y117604D01*
X100509Y117183D01*
X100488Y116762D01*
X95512Y120238D01*
X95933Y120259D01*
X96355Y120323D01*
X96776Y120429D01*
X97198Y120577D01*
X97621Y120768D01*
X98044Y121002D01*
X98467Y121277D01*
X98890Y121596D01*
X99314Y121956D01*
X99738Y122359D01*
X102609Y120988D01*
D02*
G37*
G36*
X40830Y118720D02*
X40749Y118563D01*
X40731Y118370D01*
X40778Y118141D01*
X40889Y117876D01*
X41063Y117575D01*
X41302Y117238D01*
X41605Y116866D01*
X42402Y116012D01*
X40238Y115348D01*
X39860Y115711D01*
X39168Y116291D01*
X38854Y116507D01*
X38561Y116675D01*
X38288Y116793D01*
X38037Y116862D01*
X37807Y116882D01*
X37598Y116852D01*
X37410Y116774D01*
X40976Y118840D01*
X40830Y118720D01*
D02*
G37*
G36*
X249640Y114837D02*
X249771Y114766D01*
X249906Y114704D01*
X250045Y114650D01*
X250188Y114604D01*
X250336Y114567D01*
X250488Y114537D01*
X250644Y114517D01*
X250804Y114504D01*
X250969Y114500D01*
Y113500D01*
X250804Y113496D01*
X250644Y113483D01*
X250488Y113463D01*
X250336Y113434D01*
X250188Y113396D01*
X250045Y113350D01*
X249906Y113296D01*
X249771Y113234D01*
X249640Y113163D01*
X249513Y113084D01*
Y114916D01*
X249640Y114837D01*
D02*
G37*
G36*
X95512Y112758D02*
Y109282D01*
X95482Y109418D01*
X95392Y109540D01*
X95242Y109648D01*
X95032Y109741D01*
X94762Y109820D01*
X94432Y109885D01*
X94042Y109935D01*
X93082Y109993D01*
X92512Y110000D01*
Y113000D01*
X95512Y112758D01*
D02*
G37*
G36*
X75768Y113800D02*
X75858Y113632D01*
X76008Y113484D01*
X76218Y113356D01*
X76488Y113247D01*
X76818Y113158D01*
X77208Y113089D01*
X77658Y113040D01*
X78738Y113000D01*
Y110000D01*
X78168Y109990D01*
X77208Y109911D01*
X76818Y109842D01*
X76488Y109753D01*
X76218Y109644D01*
X76008Y109516D01*
X75858Y109368D01*
X75768Y109200D01*
X75738Y109012D01*
Y113988D01*
X75768Y113800D01*
D02*
G37*
G36*
X53762Y109012D02*
X53742Y109202D01*
X53682Y109371D01*
X53582Y109521D01*
X53442Y109651D01*
X53262Y109760D01*
X53042Y109850D01*
X52782Y109920D01*
X52482Y109970D01*
X52142Y110000D01*
X51762Y110010D01*
Y112010D01*
X52144Y112020D01*
X52485Y112050D01*
X52787Y112100D01*
X53048Y112170D01*
X53269Y112260D01*
X53451Y112370D01*
X53592Y112500D01*
X53693Y112650D01*
X53753Y112820D01*
X53774Y113010D01*
X53762Y109012D01*
D02*
G37*
G36*
X249640Y109837D02*
X249771Y109766D01*
X249906Y109704D01*
X250045Y109650D01*
X250188Y109604D01*
X250336Y109566D01*
X250488Y109537D01*
X250644Y109517D01*
X250804Y109504D01*
X250969Y109500D01*
Y108500D01*
X250804Y108496D01*
X250644Y108483D01*
X250488Y108463D01*
X250336Y108433D01*
X250188Y108396D01*
X250045Y108350D01*
X249906Y108296D01*
X249771Y108234D01*
X249640Y108163D01*
X249513Y108084D01*
Y109916D01*
X249640Y109837D01*
D02*
G37*
G36*
X40800Y109252D02*
X40632Y109162D01*
X40484Y109012D01*
X40356Y108802D01*
X40247Y108532D01*
X40158Y108202D01*
X40089Y107812D01*
X40040Y107362D01*
X40000Y106282D01*
X37000D01*
X36990Y106852D01*
X36911Y107812D01*
X36842Y108202D01*
X36753Y108532D01*
X36644Y108802D01*
X36516Y109012D01*
X36368Y109162D01*
X36200Y109252D01*
X36012Y109282D01*
X40988D01*
X40800Y109252D01*
D02*
G37*
G36*
X224062Y106727D02*
X224110Y106094D01*
X224155Y105812D01*
X224214Y105552D01*
X224286Y105316D01*
X224372Y105102D01*
X224472Y104910D01*
X224586Y104742D01*
X224714Y104596D01*
X224007Y103888D01*
X223861Y104016D01*
X223692Y104130D01*
X223501Y104230D01*
X223287Y104316D01*
X223050Y104389D01*
X222791Y104447D01*
X222508Y104492D01*
X222203Y104523D01*
X221526Y104543D01*
X224059Y107077D01*
X224062Y106727D01*
D02*
G37*
G36*
X244496Y103299D02*
X244438Y103372D01*
X244366Y103438D01*
X244281Y103496D01*
X244183Y103546D01*
X244072Y103589D01*
X243947Y103623D01*
X243809Y103650D01*
X243657Y103670D01*
X243493Y103681D01*
X243315Y103685D01*
X243485Y104685D01*
X243676Y104688D01*
X244172Y104722D01*
X244312Y104743D01*
X244553Y104798D01*
X244654Y104833D01*
X244742Y104872D01*
X244817Y104916D01*
X244496Y103299D01*
D02*
G37*
G36*
X244817Y98084D02*
X244691Y98163D01*
X244560Y98234D01*
X244425Y98296D01*
X244286Y98350D01*
X244142Y98396D01*
X243995Y98434D01*
X243843Y98463D01*
X243687Y98483D01*
X243526Y98496D01*
X243362Y98500D01*
Y99500D01*
X243526Y99504D01*
X243687Y99517D01*
X243843Y99537D01*
X243995Y99567D01*
X244142Y99604D01*
X244286Y99650D01*
X244425Y99704D01*
X244560Y99766D01*
X244691Y99837D01*
X244817Y99916D01*
Y98084D01*
D02*
G37*
G36*
X57012Y93762D02*
X56982Y93807D01*
X56892Y93848D01*
X56742Y93883D01*
X56532Y93914D01*
X55932Y93962D01*
X54582Y93998D01*
X54012Y94000D01*
Y97000D01*
X54582Y97002D01*
X56892Y97152D01*
X56982Y97193D01*
X57012Y97238D01*
Y93762D01*
D02*
G37*
G36*
X46018Y97193D02*
X46108Y97152D01*
X46258Y97117D01*
X46468Y97086D01*
X47068Y97038D01*
X48418Y97002D01*
X48988Y97000D01*
Y94000D01*
X48418Y93998D01*
X46108Y93848D01*
X46018Y93807D01*
X45988Y93762D01*
Y97238D01*
X46018Y97193D01*
D02*
G37*
G36*
X42186Y98956D02*
X42610Y98596D01*
X43033Y98277D01*
X43456Y98002D01*
X43879Y97768D01*
X44302Y97577D01*
X44724Y97429D01*
X45145Y97323D01*
X45567Y97259D01*
X45988Y97238D01*
X41012Y93762D01*
X40991Y94183D01*
X40927Y94604D01*
X40821Y95026D01*
X40673Y95448D01*
X40482Y95871D01*
X40248Y96294D01*
X39973Y96717D01*
X39654Y97140D01*
X39294Y97564D01*
X38891Y97988D01*
X41762Y99359D01*
X42186Y98956D01*
D02*
G37*
G36*
X88124Y91270D02*
X88098Y91203D01*
X88075Y91110D01*
X88055Y90992D01*
X88025Y90681D01*
X88006Y90270D01*
X88000Y89758D01*
X85000D01*
X84999Y90026D01*
X84925Y91110D01*
X84902Y91203D01*
X84876Y91270D01*
X84847Y91313D01*
X88153D01*
X88124Y91270D01*
D02*
G37*
G36*
X16372Y92473D02*
X16401Y92406D01*
X16450Y92325D01*
X16520Y92227D01*
X16718Y91985D01*
X16996Y91681D01*
X17353Y91315D01*
X15232Y89194D01*
X15041Y89383D01*
X14223Y90097D01*
X14141Y90146D01*
X14074Y90176D01*
X14024Y90185D01*
X16362Y92524D01*
X16372Y92473D01*
D02*
G37*
G36*
X110078Y90046D02*
X110559Y89633D01*
X110790Y89465D01*
X111015Y89323D01*
X111233Y89207D01*
X111446Y89116D01*
X111652Y89052D01*
X111852Y89013D01*
X112045Y89000D01*
Y88000D01*
X111852Y87987D01*
X111652Y87948D01*
X111446Y87884D01*
X111233Y87793D01*
X111015Y87677D01*
X110790Y87535D01*
X110559Y87367D01*
X110321Y87173D01*
X109827Y86709D01*
Y90291D01*
X110078Y90046D01*
D02*
G37*
G36*
X106173Y86709D02*
X105922Y86954D01*
X105441Y87367D01*
X105210Y87535D01*
X104985Y87677D01*
X104767Y87793D01*
X104554Y87884D01*
X104348Y87948D01*
X104148Y87987D01*
X103955Y88000D01*
Y89000D01*
X104148Y89013D01*
X104348Y89052D01*
X104554Y89116D01*
X104767Y89207D01*
X104985Y89323D01*
X105210Y89465D01*
X105441Y89633D01*
X105679Y89827D01*
X106173Y90291D01*
Y86709D01*
D02*
G37*
G36*
X57012Y86282D02*
X56982Y86327D01*
X56892Y86367D01*
X56742Y86403D01*
X56532Y86434D01*
X55932Y86482D01*
X54582Y86517D01*
X54012Y86520D01*
Y89520D01*
X54582Y89522D01*
X56892Y89672D01*
X56982Y89713D01*
X57012Y89758D01*
Y86282D01*
D02*
G37*
G36*
X129610Y86158D02*
X129256Y86508D01*
X128588Y87097D01*
X128275Y87337D01*
X127975Y87539D01*
X127690Y87705D01*
X127417Y87834D01*
X127159Y87926D01*
X126914Y87982D01*
X126683Y88000D01*
Y89000D01*
X126914Y89018D01*
X127159Y89074D01*
X127417Y89166D01*
X127690Y89295D01*
X127975Y89461D01*
X128275Y89663D01*
X128588Y89903D01*
X129256Y90492D01*
X129610Y90842D01*
Y86158D01*
D02*
G37*
G36*
X46018Y89713D02*
X46108Y89672D01*
X46258Y89636D01*
X46468Y89605D01*
X47068Y89558D01*
X48418Y89522D01*
X48988Y89520D01*
Y86520D01*
X48418Y86517D01*
X46108Y86367D01*
X46018Y86327D01*
X45988Y86282D01*
X45800Y86252D01*
X45632Y86162D01*
X45484Y86012D01*
X45356Y85802D01*
X45247Y85532D01*
X45158Y85202D01*
X45089Y84812D01*
X45039Y84362D01*
X45000Y83282D01*
X42000D01*
X41990Y83852D01*
X41911Y84812D01*
X41842Y85202D01*
X41753Y85532D01*
X41644Y85802D01*
X41516Y86012D01*
X41368Y86162D01*
X41200Y86252D01*
X41012Y86282D01*
X45988D01*
Y89758D01*
X46018Y89713D01*
D02*
G37*
G36*
X288640Y81439D02*
X288598Y81450D01*
X288498Y81461D01*
X288121Y81478D01*
X285582Y81500D01*
Y83500D01*
X288640Y83561D01*
Y81439D01*
D02*
G37*
G36*
X277207Y81793D02*
X277063Y81639D01*
X276934Y81480D01*
X276820Y81317D01*
X276722Y81148D01*
X276638Y80975D01*
X276570Y80798D01*
X276517Y80615D01*
X276479Y80428D01*
X276456Y80236D01*
X276449Y80040D01*
X272590Y81185D01*
X272786Y81156D01*
X273009Y81179D01*
X273261Y81253D01*
X273539Y81379D01*
X273846Y81555D01*
X274180Y81783D01*
X274542Y82062D01*
X275348Y82774D01*
X275793Y83207D01*
X277207Y81793D01*
D02*
G37*
G36*
X246748Y80040D02*
X246223Y80028D01*
Y81028D01*
X246760Y81052D01*
X246748Y80040D01*
D02*
G37*
G36*
X238979Y79800D02*
X238884Y79797D01*
X238790Y79784D01*
X238696Y79763D01*
X238604Y79733D01*
X238512Y79694D01*
X238421Y79646D01*
X238330Y79589D01*
X238241Y79524D01*
X238152Y79449D01*
X238064Y79366D01*
X237356Y80073D01*
X237440Y80161D01*
X237514Y80250D01*
X237580Y80340D01*
X237636Y80430D01*
X237684Y80521D01*
X237723Y80613D01*
X237754Y80706D01*
X237775Y80799D01*
X237787Y80893D01*
X237790Y80988D01*
X238979Y79800D01*
D02*
G37*
G36*
X271945Y77481D02*
X271935Y77495D01*
X271905Y77509D01*
X271855Y77521D01*
X271785Y77531D01*
X271585Y77547D01*
X270945Y77559D01*
Y78559D01*
X271135Y78560D01*
X271905Y78609D01*
X271935Y78623D01*
X271945Y78638D01*
Y77481D01*
D02*
G37*
G36*
X129610Y76157D02*
X129256Y76508D01*
X128588Y77097D01*
X128275Y77337D01*
X127975Y77539D01*
X127690Y77705D01*
X127417Y77834D01*
X127159Y77926D01*
X126914Y77982D01*
X126683Y78000D01*
Y79000D01*
X126914Y79018D01*
X127159Y79074D01*
X127417Y79166D01*
X127690Y79295D01*
X127975Y79461D01*
X128275Y79663D01*
X128588Y79903D01*
X129256Y80492D01*
X129610Y80843D01*
Y76157D01*
D02*
G37*
G36*
X271945Y74922D02*
X271935Y74936D01*
X271905Y74950D01*
X271855Y74962D01*
X271785Y74972D01*
X271585Y74987D01*
X270945Y75000D01*
Y76000D01*
X271135Y76001D01*
X271905Y76050D01*
X271935Y76064D01*
X271945Y76078D01*
Y74922D01*
D02*
G37*
G36*
X251262Y76064D02*
X251292Y76050D01*
X251342Y76038D01*
X251412Y76028D01*
X251612Y76013D01*
X252252Y76000D01*
Y75000D01*
X252062Y74999D01*
X251292Y74950D01*
X251262Y74936D01*
X251252Y74922D01*
Y76078D01*
X251262Y76064D01*
D02*
G37*
G36*
X31008Y76609D02*
X31073Y75870D01*
X31130Y75569D01*
X31202Y75315D01*
X31291Y75108D01*
X31396Y74946D01*
X31518Y74830D01*
X31655Y74761D01*
X31809Y74738D01*
X27191D01*
X27345Y74761D01*
X27482Y74830D01*
X27604Y74946D01*
X27709Y75108D01*
X27798Y75315D01*
X27871Y75569D01*
X27927Y75870D01*
X27968Y76216D01*
X27992Y76609D01*
X28000Y77047D01*
X31000D01*
X31008Y76609D01*
D02*
G37*
G36*
X45010Y77109D02*
X45089Y76149D01*
X45158Y75759D01*
X45247Y75429D01*
X45356Y75159D01*
X45484Y74949D01*
X45632Y74799D01*
X45800Y74709D01*
X45988Y74679D01*
X41012D01*
X41200Y74709D01*
X41368Y74799D01*
X41516Y74949D01*
X41644Y75159D01*
X41753Y75429D01*
X41842Y75759D01*
X41911Y76149D01*
X41960Y76599D01*
X42000Y77679D01*
X45000D01*
X45010Y77109D01*
D02*
G37*
G36*
X16609Y74988D02*
X16206Y74569D01*
X15527Y73762D01*
X15252Y73374D01*
X15018Y72996D01*
X14827Y72628D01*
X14679Y72271D01*
X14573Y71925D01*
X14509Y71588D01*
X14488Y71262D01*
X9995Y74738D01*
X10253Y74593D01*
X10548Y74527D01*
X10880Y74540D01*
X11248Y74633D01*
X11654Y74806D01*
X12097Y75058D01*
X12577Y75389D01*
X13093Y75800D01*
X13647Y76290D01*
X14238Y76859D01*
X16609Y74988D01*
D02*
G37*
G36*
X63609Y74679D02*
X63206Y74262D01*
X62527Y73475D01*
X62252Y73105D01*
X62018Y72749D01*
X61827Y72409D01*
X61679Y72085D01*
X61573Y71776D01*
X61509Y71482D01*
X61488Y71203D01*
X57245Y74667D01*
X57497Y74518D01*
X57787Y74449D01*
X58115Y74461D01*
X58482Y74553D01*
X58887Y74726D01*
X59330Y74980D01*
X59812Y75314D01*
X60332Y75729D01*
X61488Y76800D01*
X63609Y74679D01*
D02*
G37*
G36*
X235488Y74238D02*
X234000D01*
X234095Y74248D01*
X234180Y74278D01*
X234255Y74328D01*
X234320Y74398D01*
X234375Y74488D01*
X234420Y74598D01*
X234455Y74728D01*
X234480Y74878D01*
X234495Y75048D01*
X234500Y75238D01*
X235500D01*
X235488Y74238D01*
D02*
G37*
G36*
X77488Y73750D02*
X77297Y73745D01*
X77125Y73730D01*
X76974Y73705D01*
X76842Y73670D01*
X76731Y73625D01*
X76640Y73570D01*
X76569Y73505D01*
X76518Y73430D01*
X76487Y73345D01*
X76476Y73250D01*
X76488Y74738D01*
X76498Y74740D01*
X76528Y74742D01*
X76978Y74749D01*
X77488Y74750D01*
Y73750D01*
D02*
G37*
G36*
X251258Y73516D02*
X251276Y73513D01*
X251306Y73510D01*
X251468Y73503D01*
X251853Y73500D01*
Y72500D01*
X251737Y72499D01*
X251394Y72475D01*
X251338Y72464D01*
X251295Y72451D01*
X251265Y72435D01*
X251246Y72418D01*
X251240Y72399D01*
X251252Y73519D01*
X251258Y73516D01*
D02*
G37*
G36*
X263796Y73777D02*
X263833Y73759D01*
X263883Y73743D01*
X263945Y73729D01*
X264019Y73717D01*
X264205Y73700D01*
X264439Y73692D01*
X264575Y73691D01*
X264480Y72191D01*
X264344Y72190D01*
X263793Y72156D01*
X263745Y72145D01*
X263711Y72132D01*
X263689Y72119D01*
X263771Y73797D01*
X263796Y73777D01*
D02*
G37*
G36*
X230524Y71500D02*
X230514Y71595D01*
X230484Y71680D01*
X230433Y71755D01*
X230362Y71820D01*
X230271Y71875D01*
X230160Y71920D01*
X230028Y71955D01*
X229876Y71980D01*
X229704Y71995D01*
X229512Y72000D01*
Y73000D01*
X229704Y73005D01*
X229876Y73020D01*
X230028Y73045D01*
X230160Y73080D01*
X230271Y73125D01*
X230362Y73180D01*
X230433Y73245D01*
X230484Y73320D01*
X230514Y73405D01*
X230524Y73500D01*
Y71500D01*
D02*
G37*
G36*
X219486Y73405D02*
X219516Y73320D01*
X219567Y73245D01*
X219638Y73180D01*
X219729Y73125D01*
X219840Y73080D01*
X219972Y73045D01*
X220124Y73020D01*
X220296Y73005D01*
X220488Y73000D01*
Y72000D01*
X220296Y71995D01*
X220124Y71980D01*
X219972Y71955D01*
X219840Y71920D01*
X219729Y71875D01*
X219638Y71820D01*
X219567Y71755D01*
X219516Y71680D01*
X219486Y71595D01*
X219476Y71500D01*
Y73500D01*
X219486Y73405D01*
D02*
G37*
G36*
X90755Y71262D02*
X90502Y71413D01*
X90212Y71483D01*
X89883Y71472D01*
X89516Y71381D01*
X89111Y71209D01*
X88668Y70957D01*
X88186Y70624D01*
X87666Y70210D01*
X87108Y69716D01*
X86512Y69141D01*
X84391Y71262D01*
X84794Y71679D01*
X85473Y72466D01*
X85748Y72836D01*
X85982Y73192D01*
X86173Y73532D01*
X86321Y73856D01*
X86427Y74165D01*
X86491Y74459D01*
X86512Y74738D01*
X90755Y71262D01*
D02*
G37*
G36*
X32018Y74687D02*
X32108Y74642D01*
X32258Y74602D01*
X32468Y74567D01*
X32738Y74537D01*
X33908Y74481D01*
X34988Y74471D01*
Y71470D01*
X34418Y71468D01*
X32108Y71337D01*
X32018Y71302D01*
X31988Y71262D01*
Y74738D01*
X32018Y74687D01*
D02*
G37*
G36*
X46018Y74634D02*
X46108Y74593D01*
X46258Y74558D01*
X46468Y74527D01*
X47068Y74479D01*
X48418Y74443D01*
X48988Y74441D01*
Y71441D01*
X48418Y71439D01*
X46108Y71289D01*
X46018Y71248D01*
X45988Y71203D01*
Y74679D01*
X46018Y74634D01*
D02*
G37*
G36*
X41012Y71203D02*
X40982Y71254D01*
X40892Y71299D01*
X40742Y71339D01*
X40532Y71374D01*
X40262Y71404D01*
X39092Y71460D01*
X38012Y71470D01*
Y74471D01*
X38582Y74473D01*
X40892Y74604D01*
X40982Y74639D01*
X41012Y74679D01*
Y71203D01*
D02*
G37*
G36*
X288024Y71000D02*
X288009Y71143D01*
X287964Y71270D01*
X287888Y71382D01*
X287782Y71480D01*
X287646Y71562D01*
X287480Y71630D01*
X287283Y71683D01*
X287056Y71720D01*
X286799Y71742D01*
X286512Y71750D01*
Y73250D01*
X286799Y73257D01*
X287056Y73280D01*
X287283Y73317D01*
X287480Y73370D01*
X287646Y73438D01*
X287782Y73520D01*
X287888Y73618D01*
X287964Y73730D01*
X288009Y73857D01*
X288024Y74000D01*
Y71000D01*
D02*
G37*
G36*
X272879Y72362D02*
X273444D01*
X273447Y72460D01*
X274947D01*
X274949Y72362D01*
X275697D01*
X275554Y72347D01*
X275427Y72302D01*
X275314Y72227D01*
X275217Y72122D01*
X275134Y71987D01*
X275067Y71822D01*
X275023Y71658D01*
X275067Y71493D01*
X275134Y71326D01*
X275217Y71190D01*
X275314Y71084D01*
X275427Y71009D01*
X275554Y70964D01*
X275697Y70948D01*
X274949D01*
X274947Y70862D01*
X273447D01*
X273445Y70948D01*
X272697D01*
X272839Y70964D01*
X272967Y71009D01*
X273079Y71084D01*
X273177Y71190D01*
X273259Y71326D01*
X273327Y71493D01*
X273371Y71658D01*
X273327Y71822D01*
X273259Y71987D01*
X273177Y72122D01*
X273079Y72227D01*
X272967Y72302D01*
X272940Y72312D01*
X273086Y72191D01*
X272791Y72180D01*
X272504Y72149D01*
X272226Y72096D01*
X271956Y72021D01*
X271696Y71926D01*
X271444Y71809D01*
X271201Y71671D01*
X270967Y71512D01*
X270742Y71332D01*
X270526Y71130D01*
X268970Y71696D01*
X269049Y71790D01*
X269088Y71874D01*
X269087Y71948D01*
X269047Y72013D01*
X268966Y72067D01*
X268846Y72112D01*
X268685Y72146D01*
X268245Y72186D01*
X267965Y72191D01*
X271276Y73691D01*
X272879Y72362D01*
D02*
G37*
G36*
X244964Y71229D02*
X245036Y71169D01*
X245114Y71115D01*
X245199Y71069D01*
X245290Y71030D01*
X245387Y70998D01*
X245490Y70973D01*
X245599Y70955D01*
X245715Y70944D01*
X245801Y70942D01*
X246748Y70960D01*
Y69803D01*
X246738Y69829D01*
X246708Y69853D01*
X246658Y69873D01*
X246588Y69891D01*
X246498Y69907D01*
X246388Y69919D01*
X246108Y69935D01*
X245770Y69941D01*
X245661Y69938D01*
X245545Y69928D01*
X245435Y69912D01*
X245330Y69889D01*
X245231Y69860D01*
X245137Y69825D01*
X245048Y69783D01*
X244965Y69735D01*
X244887Y69680D01*
X244815Y69619D01*
X244897Y71297D01*
X244964Y71229D01*
D02*
G37*
G36*
X111214Y72109D02*
X111086Y71963D01*
X110972Y71794D01*
X110872Y71603D01*
X110786Y71389D01*
X110714Y71152D01*
X110655Y70893D01*
X110610Y70611D01*
X110579Y70306D01*
X110559Y69628D01*
X108026Y72161D01*
X108376Y72165D01*
X109008Y72213D01*
X109291Y72257D01*
X109550Y72316D01*
X109787Y72388D01*
X110001Y72475D01*
X110192Y72575D01*
X110361Y72689D01*
X110507Y72816D01*
X111214Y72109D01*
D02*
G37*
G36*
X274949Y69803D02*
X275697D01*
X275554Y69788D01*
X275427Y69743D01*
X275314Y69668D01*
X275217Y69563D01*
X275134Y69428D01*
X275067Y69263D01*
X275023Y69099D01*
X275067Y68934D01*
X275134Y68767D01*
X275217Y68631D01*
X275314Y68525D01*
X275427Y68450D01*
X275554Y68405D01*
X275697Y68389D01*
X274949D01*
X274947Y68303D01*
X273447D01*
X273445Y68389D01*
X272697D01*
X272839Y68405D01*
X272967Y68450D01*
X273079Y68525D01*
X273177Y68631D01*
X273259Y68767D01*
X273327Y68934D01*
X273371Y69099D01*
X273327Y69263D01*
X273259Y69428D01*
X273177Y69563D01*
X273079Y69668D01*
X272967Y69743D01*
X272839Y69788D01*
X272697Y69803D01*
X273444D01*
X273447Y69901D01*
X274947D01*
X274949Y69803D01*
D02*
G37*
G36*
X106173Y67811D02*
X105922Y68056D01*
X105441Y68470D01*
X105210Y68638D01*
X104985Y68779D01*
X104767Y68896D01*
X104554Y68986D01*
X104348Y69051D01*
X104148Y69089D01*
X103955Y69102D01*
Y70102D01*
X104148Y70115D01*
X104348Y70154D01*
X104554Y70219D01*
X104767Y70309D01*
X104985Y70425D01*
X105210Y70567D01*
X105441Y70735D01*
X105679Y70929D01*
X106173Y71394D01*
Y67811D01*
D02*
G37*
G36*
X92195Y67258D02*
X91996Y67052D01*
X91682Y66682D01*
X91568Y66519D01*
X91482Y66371D01*
X91424Y66237D01*
X91395Y66117D01*
X91394Y66011D01*
X91421Y65920D01*
X91476Y65843D01*
X90074Y67246D01*
X90150Y67190D01*
X90242Y67163D01*
X90347Y67164D01*
X90467Y67194D01*
X90601Y67252D01*
X90750Y67338D01*
X90913Y67452D01*
X91090Y67595D01*
X91488Y67965D01*
X92195Y67258D01*
D02*
G37*
G36*
X296170Y66849D02*
X295843Y66520D01*
X295980Y66520D01*
Y63520D01*
X295412Y63517D01*
X293108Y63367D01*
X293018Y63327D01*
X292988Y63282D01*
X289715Y66746D01*
X289942Y66572D01*
X290212Y66484D01*
X290527Y66482D01*
X290885Y66566D01*
X291288Y66737D01*
X291734Y66993D01*
X292224Y67335D01*
X292758Y67764D01*
X293957Y68879D01*
X296170Y66849D01*
D02*
G37*
G36*
X135357Y68230D02*
X135392Y67991D01*
X135454Y67751D01*
X135540Y67510D01*
X135653Y67266D01*
X135790Y67022D01*
X135953Y66775D01*
X136142Y66527D01*
X136356Y66277D01*
X136596Y66026D01*
X134474Y63904D01*
X134223Y64144D01*
X133973Y64358D01*
X133725Y64547D01*
X133478Y64710D01*
X133233Y64847D01*
X132990Y64960D01*
X132749Y65046D01*
X132545Y65098D01*
X132467Y65056D01*
X132263Y64929D01*
X131831Y64615D01*
X131603Y64428D01*
X130867Y63746D01*
X127924Y65045D01*
X128164Y65300D01*
X128372Y65551D01*
X128546Y65798D01*
X128687Y66040D01*
X128795Y66278D01*
X128869Y66513D01*
X128911Y66742D01*
X128919Y66968D01*
X128895Y67190D01*
X128837Y67408D01*
X132473Y65593D01*
X135346Y68467D01*
X135357Y68230D01*
D02*
G37*
G36*
X288024Y63803D02*
X288008Y63946D01*
X287963Y64073D01*
X287887Y64186D01*
X287781Y64283D01*
X287645Y64366D01*
X287478Y64433D01*
X287282Y64486D01*
X287055Y64523D01*
X286799Y64546D01*
X286512Y64553D01*
Y66053D01*
X286797Y66060D01*
X287052Y66081D01*
X287277Y66116D01*
X287472Y66166D01*
X287637Y66229D01*
X287772Y66307D01*
X287877Y66398D01*
X287952Y66504D01*
X287997Y66624D01*
X288012Y66758D01*
X288024Y63803D01*
D02*
G37*
G36*
X79488Y67250D02*
Y64250D01*
X78918Y64245D01*
X77238Y64133D01*
X76968Y64081D01*
X76758Y64021D01*
X76608Y63950D01*
X76518Y63871D01*
X76488Y63782D01*
X76298Y63752D01*
X76128Y63662D01*
X75978Y63512D01*
X75848Y63302D01*
X75738Y63032D01*
X75648Y62702D01*
X75578Y62312D01*
X75528Y61862D01*
X75488Y60782D01*
X72488D01*
X72478Y61352D01*
X72400Y62312D01*
X72332Y62702D01*
X72244Y63032D01*
X72137Y63302D01*
X72010Y63512D01*
X71863Y63662D01*
X71697Y63752D01*
X71512Y63782D01*
X71482Y63821D01*
X71392Y63857D01*
X71242Y63888D01*
X71032Y63915D01*
X70432Y63957D01*
X68512Y63990D01*
Y66990D01*
X69082Y66993D01*
X71242Y67121D01*
X71392Y67161D01*
X71482Y67207D01*
X71512Y67258D01*
Y63782D01*
X76488D01*
Y67258D01*
X79488Y67250D01*
D02*
G37*
G36*
X61518Y67159D02*
X61608Y67124D01*
X61758Y67092D01*
X61968Y67065D01*
X62568Y67023D01*
X64488Y66990D01*
Y63990D01*
X63918Y63987D01*
X61758Y63859D01*
X61608Y63819D01*
X61518Y63774D01*
X61488Y63723D01*
Y67199D01*
X61518Y67159D01*
D02*
G37*
G36*
X57109Y68744D02*
X58188Y67834D01*
X58670Y67500D01*
X59113Y67246D01*
X59518Y67073D01*
X59885Y66980D01*
X60213Y66969D01*
X60503Y67037D01*
X60755Y67187D01*
X56512Y63723D01*
X56491Y64001D01*
X56427Y64295D01*
X56321Y64604D01*
X56173Y64929D01*
X55982Y65269D01*
X55748Y65624D01*
X55473Y65995D01*
X54794Y66782D01*
X54391Y67199D01*
X56512Y69320D01*
X57109Y68744D01*
D02*
G37*
G36*
X234755Y63294D02*
X234503Y63443D01*
X234213Y63512D01*
X233885Y63500D01*
X233518Y63407D01*
X233113Y63234D01*
X232670Y62981D01*
X232188Y62647D01*
X231668Y62232D01*
X230512Y61160D01*
X228391Y63282D01*
X228794Y63698D01*
X229473Y64486D01*
X229748Y64856D01*
X229982Y65211D01*
X230173Y65551D01*
X230321Y65876D01*
X230427Y66185D01*
X230491Y66479D01*
X230512Y66758D01*
X234755Y63294D01*
D02*
G37*
G36*
X31800Y63752D02*
X31632Y63662D01*
X31484Y63512D01*
X31356Y63302D01*
X31247Y63032D01*
X31158Y62702D01*
X31089Y62312D01*
X31040Y61862D01*
X31000Y60782D01*
X28000D01*
X27990Y61352D01*
X27911Y62312D01*
X27842Y62702D01*
X27753Y63032D01*
X27644Y63302D01*
X27516Y63512D01*
X27368Y63662D01*
X27200Y63752D01*
X27012Y63782D01*
X31988D01*
X31800Y63752D01*
D02*
G37*
G36*
X219488Y63282D02*
X219304Y63229D01*
X219027Y63070D01*
X218659Y62804D01*
X218198Y62433D01*
X216261Y60683D01*
X213494Y57978D01*
X210977Y62532D01*
X211648Y63210D01*
X214194Y66087D01*
X214371Y66368D01*
X214477Y66591D01*
X214512Y66758D01*
X219488Y63282D01*
D02*
G37*
G36*
X271035Y58551D02*
X271124Y58476D01*
X271214Y58411D01*
X271304Y58354D01*
X271395Y58306D01*
X271487Y58267D01*
X271580Y58237D01*
X271673Y58216D01*
X271767Y58203D01*
X271862Y58200D01*
X270674Y57012D01*
X270671Y57107D01*
X270658Y57201D01*
X270637Y57294D01*
X270607Y57387D01*
X270568Y57479D01*
X270520Y57570D01*
X270463Y57660D01*
X270398Y57750D01*
X270323Y57839D01*
X270240Y57927D01*
X270947Y58634D01*
X271035Y58551D01*
D02*
G37*
G36*
X227277Y57925D02*
X227054Y57692D01*
X226860Y57465D01*
X226695Y57247D01*
X226559Y57036D01*
X226452Y56832D01*
X226375Y56636D01*
X226326Y56447D01*
X226306Y56266D01*
X226315Y56093D01*
X226353Y55926D01*
X222631Y57871D01*
X222738Y57912D01*
X222860Y57975D01*
X222996Y58059D01*
X223147Y58164D01*
X223491Y58438D01*
X223893Y58798D01*
X224352Y59243D01*
X227277Y57925D01*
D02*
G37*
G36*
X306683Y56447D02*
X307128Y56070D01*
X307340Y55917D01*
X307545Y55788D01*
X307744Y55683D01*
X307935Y55602D01*
X308120Y55544D01*
X308299Y55510D01*
X308470Y55500D01*
X305500Y52530D01*
X305490Y52701D01*
X305456Y52880D01*
X305398Y53065D01*
X305317Y53256D01*
X305212Y53455D01*
X305083Y53660D01*
X304930Y53872D01*
X304754Y54091D01*
X304329Y54549D01*
X306451Y56671D01*
X306683Y56447D01*
D02*
G37*
G36*
X228988Y48800D02*
X228893Y48797D01*
X228799Y48784D01*
X228706Y48763D01*
X228613Y48733D01*
X228521Y48694D01*
X228430Y48646D01*
X228340Y48589D01*
X228250Y48524D01*
X228161Y48449D01*
X228073Y48366D01*
X227366Y49073D01*
X227449Y49161D01*
X227524Y49250D01*
X227589Y49340D01*
X227646Y49430D01*
X227694Y49521D01*
X227733Y49613D01*
X227763Y49706D01*
X227784Y49799D01*
X227797Y49893D01*
X227800Y49988D01*
X228988Y48800D01*
D02*
G37*
G36*
X68954Y48474D02*
X69028Y47390D01*
X69051Y47297D01*
X69077Y47230D01*
X69106Y47187D01*
X65799D01*
X65828Y47230D01*
X65855Y47297D01*
X65877Y47390D01*
X65898Y47508D01*
X65928Y47819D01*
X65947Y48230D01*
X65953Y48742D01*
X68953D01*
X68954Y48474D01*
D02*
G37*
G36*
X166550Y50967D02*
X167654Y50031D01*
X168142Y49690D01*
X168588Y49435D01*
X168991Y49264D01*
X169351Y49178D01*
X169669Y49177D01*
X169944Y49260D01*
X170176Y49429D01*
X165945Y45198D01*
X166114Y45430D01*
X166197Y45705D01*
X166196Y46023D01*
X166110Y46383D01*
X165939Y46786D01*
X165683Y47232D01*
X165343Y47720D01*
X164917Y48251D01*
X163812Y49441D01*
X165933Y51562D01*
X166550Y50967D01*
D02*
G37*
G36*
X235211Y43941D02*
X235012Y43735D01*
X234698Y43365D01*
X234584Y43202D01*
X234498Y43054D01*
X234440Y42920D01*
X234411Y42800D01*
X234409Y42694D01*
X234436Y42603D01*
X234492Y42527D01*
X233089Y43929D01*
X233166Y43873D01*
X233257Y43846D01*
X233363Y43848D01*
X233483Y43877D01*
X233617Y43935D01*
X233766Y44021D01*
X233928Y44135D01*
X234106Y44278D01*
X234504Y44648D01*
X235211Y43941D01*
D02*
G37*
G36*
X59197Y43150D02*
X59167Y43311D01*
X59077Y43456D01*
X58927Y43583D01*
X58717Y43694D01*
X58447Y43788D01*
X58117Y43864D01*
X57727Y43924D01*
X57277Y43966D01*
X56197Y44000D01*
Y47000D01*
X56767Y47008D01*
X57727Y47076D01*
X58117Y47136D01*
X58447Y47212D01*
X58717Y47306D01*
X58927Y47417D01*
X59077Y47544D01*
X59167Y47689D01*
X59197Y47850D01*
Y43150D01*
D02*
G37*
G36*
X269639Y44449D02*
X270009Y44135D01*
X270171Y44021D01*
X270320Y43935D01*
X270454Y43877D01*
X270574Y43848D01*
X270680Y43846D01*
X270771Y43873D01*
X270848Y43929D01*
X269445Y42527D01*
X269501Y42603D01*
X269528Y42694D01*
X269527Y42800D01*
X269497Y42920D01*
X269439Y43054D01*
X269353Y43202D01*
X269239Y43365D01*
X269096Y43543D01*
X268726Y43941D01*
X269433Y44648D01*
X269639Y44449D01*
D02*
G37*
G36*
X70055Y41993D02*
X67055Y41754D01*
X67052Y42021D01*
X67011Y42663D01*
X66986Y42824D01*
X66955Y42959D01*
X66919Y43068D01*
X66878Y43151D01*
X66830Y43207D01*
X66777Y43236D01*
X69679Y44711D01*
X70055Y41993D01*
D02*
G37*
G36*
X204685Y48645D02*
X204640Y48331D01*
X204670Y47985D01*
X204773Y47608D01*
X204949Y47199D01*
X205199Y46760D01*
X205523Y46288D01*
X205920Y45785D01*
X206391Y45251D01*
X206936Y44685D01*
X205941Y41438D01*
X205274Y42084D01*
X204102Y43087D01*
X203597Y43444D01*
X203146Y43706D01*
X202748Y43871D01*
X202405Y43940D01*
X202116Y43913D01*
X201880Y43790D01*
X201698Y43571D01*
X204803Y48928D01*
X204685Y48645D01*
D02*
G37*
G36*
X91730Y44172D02*
X91797Y44146D01*
X91890Y44122D01*
X92008Y44102D01*
X92319Y44072D01*
X92730Y44053D01*
X93242Y44047D01*
Y41047D01*
X92974Y41046D01*
X91890Y40972D01*
X91797Y40949D01*
X91730Y40923D01*
X91687Y40894D01*
Y44201D01*
X91730Y44172D01*
D02*
G37*
G36*
X198906Y42435D02*
X198979Y42297D01*
X199075Y42063D01*
X199162Y41949D01*
X199229Y41822D01*
X199401Y41636D01*
X199555Y41435D01*
X199669Y41348D01*
X199766Y41243D01*
X199980Y41108D01*
X200181Y40953D01*
X200313Y40898D01*
X200434Y40822D01*
X200676Y40747D01*
X200910Y40650D01*
X201052Y40631D01*
X201189Y40589D01*
X201442Y40579D01*
X201693Y40545D01*
X201835Y40564D01*
X201978Y40558D01*
X202225Y40615D01*
X202322Y40627D01*
X203236Y39845D01*
X203240Y39841D01*
X211461Y31620D01*
Y17039D01*
X210961Y16965D01*
X210633Y18046D01*
X209898Y19422D01*
X208908Y20628D01*
X207702Y21618D01*
X206326Y22354D01*
X204832Y22807D01*
X203279Y22960D01*
X201727Y22807D01*
X200234Y22354D01*
X198857Y21618D01*
X197651Y20628D01*
X196661Y19422D01*
X195926Y18046D01*
X195921Y18031D01*
X195421Y18105D01*
Y20921D01*
X190000D01*
Y15000D01*
X189500D01*
Y14500D01*
X183579D01*
Y10548D01*
X177059D01*
X176759Y11048D01*
X177243Y11954D01*
X177696Y13447D01*
X177849Y15000D01*
X177696Y16553D01*
X177243Y18046D01*
X176508Y19422D01*
X175518Y20628D01*
X174312Y21618D01*
X172936Y22354D01*
X171443Y22807D01*
X171194Y22831D01*
X171173Y22838D01*
X171140Y22845D01*
X171051Y22894D01*
X170902Y22989D01*
X170755Y23095D01*
X170030Y23718D01*
X166404Y27344D01*
X165611Y27953D01*
X165780Y28453D01*
X173626D01*
X175062Y28642D01*
X176400Y29196D01*
X177549Y30077D01*
X188479Y41008D01*
X189449Y41526D01*
X190063Y42030D01*
X190677Y41526D01*
X191711Y40974D01*
X192833Y40633D01*
X194000Y40519D01*
X195167Y40633D01*
X196289Y40974D01*
X197323Y41526D01*
X198230Y42270D01*
X198367Y42438D01*
X198538Y42467D01*
X198906Y42435D01*
D02*
G37*
G36*
X273279Y38049D02*
X273194Y38019D01*
X273119Y37969D01*
X273054Y37899D01*
X272999Y37809D01*
X272954Y37699D01*
X272919Y37569D01*
X272894Y37419D01*
X272879Y37249D01*
X272874Y37059D01*
X271874D01*
X271869Y37249D01*
X271854Y37419D01*
X271829Y37569D01*
X271794Y37699D01*
X271749Y37809D01*
X271694Y37899D01*
X271629Y37969D01*
X271554Y38019D01*
X271469Y38049D01*
X271374Y38059D01*
X273374D01*
X273279Y38049D01*
D02*
G37*
G36*
X232468D02*
X232383Y38019D01*
X232308Y37969D01*
X232243Y37899D01*
X232188Y37809D01*
X232143Y37699D01*
X232108Y37569D01*
X232083Y37419D01*
X232068Y37249D01*
X232063Y37059D01*
X231063D01*
X231058Y37249D01*
X231043Y37419D01*
X231018Y37569D01*
X230983Y37699D01*
X230938Y37809D01*
X230883Y37899D01*
X230818Y37969D01*
X230743Y38019D01*
X230658Y38049D01*
X230563Y38059D01*
X232563D01*
X232468Y38049D01*
D02*
G37*
G36*
X54012Y38431D02*
X54050Y38369D01*
X54113Y38284D01*
X54316Y38048D01*
X55027Y37303D01*
X55268Y37060D01*
X52440Y34232D01*
X51030Y35500D01*
X54000Y38470D01*
X54012Y38431D01*
D02*
G37*
G36*
X272879Y32796D02*
X272894Y32624D01*
X272919Y32472D01*
X272954Y32340D01*
X272999Y32229D01*
X273054Y32138D01*
X273119Y32067D01*
X273194Y32017D01*
X273279Y31986D01*
X273374Y31976D01*
X271374D01*
X271469Y31986D01*
X271554Y32017D01*
X271629Y32067D01*
X271694Y32138D01*
X271749Y32229D01*
X271794Y32340D01*
X271829Y32472D01*
X271854Y32624D01*
X271869Y32796D01*
X271874Y32988D01*
X272874D01*
X272879Y32796D01*
D02*
G37*
G36*
X232068D02*
X232083Y32624D01*
X232108Y32472D01*
X232143Y32340D01*
X232188Y32229D01*
X232243Y32138D01*
X232308Y32067D01*
X232383Y32017D01*
X232468Y31986D01*
X232563Y31976D01*
X230563D01*
X230658Y31986D01*
X230743Y32017D01*
X230818Y32067D01*
X230883Y32138D01*
X230938Y32229D01*
X230983Y32340D01*
X231018Y32472D01*
X231043Y32624D01*
X231058Y32796D01*
X231063Y32988D01*
X232063D01*
X232068Y32796D01*
D02*
G37*
G36*
X240811Y31800D02*
X240901Y31632D01*
X241051Y31484D01*
X241261Y31356D01*
X241531Y31247D01*
X241861Y31158D01*
X242251Y31089D01*
X242701Y31040D01*
X243781Y31000D01*
Y28000D01*
X243211Y27990D01*
X242251Y27911D01*
X242095Y27883D01*
X242903Y27012D01*
X240781Y24891D01*
X240365Y25294D01*
X239578Y25973D01*
X239207Y26248D01*
X238852Y26482D01*
X238512Y26673D01*
X238187Y26821D01*
X237878Y26927D01*
X237584Y26991D01*
X237305Y27012D01*
X240769Y31255D01*
X240620Y31003D01*
X240551Y30713D01*
X240563Y30385D01*
X240656Y30018D01*
X240781Y29724D01*
Y31988D01*
X240811Y31800D01*
D02*
G37*
G36*
X262762Y27012D02*
X262732Y27200D01*
X262642Y27368D01*
X262492Y27516D01*
X262282Y27644D01*
X262012Y27753D01*
X261682Y27842D01*
X261292Y27911D01*
X260842Y27961D01*
X259762Y28000D01*
Y31000D01*
X260332Y31010D01*
X261292Y31089D01*
X261682Y31158D01*
X262012Y31247D01*
X262282Y31356D01*
X262492Y31484D01*
X262642Y31632D01*
X262732Y31800D01*
X262762Y31988D01*
Y27012D01*
D02*
G37*
G36*
X57713Y34626D02*
X59530Y33042D01*
X59891Y32787D01*
X60215Y32589D01*
X60502Y32448D01*
X60752Y32363D01*
X60964Y32334D01*
X58048Y25807D01*
X58162Y26229D01*
X58156Y26713D01*
X58030Y27261D01*
X57784Y27873D01*
X57419Y28549D01*
X56933Y29287D01*
X56328Y30090D01*
X54758Y31885D01*
X53793Y32879D01*
X57165Y35163D01*
X57713Y34626D01*
D02*
G37*
G36*
X107475Y28357D02*
X107625Y28282D01*
X107875Y28216D01*
X108225Y28159D01*
X108675Y28110D01*
X110625Y28018D01*
X112425Y28000D01*
Y23000D01*
X111475Y22996D01*
X107875Y22784D01*
X107625Y22718D01*
X107475Y22643D01*
X107425Y22559D01*
Y28441D01*
X107475Y28357D01*
D02*
G37*
G36*
X97961Y29425D02*
X97289Y28720D01*
X96688Y28019D01*
X96157Y27322D01*
X95698Y26629D01*
X95309Y25941D01*
X94991Y25256D01*
X94743Y24576D01*
X94566Y23900D01*
X94460Y23227D01*
X94425Y22559D01*
X86575Y28441D01*
X87243Y28476D01*
X87915Y28582D01*
X88592Y28759D01*
X89272Y29006D01*
X89957Y29325D01*
X90645Y29713D01*
X91338Y30173D01*
X92035Y30703D01*
X92736Y31304D01*
X93441Y31976D01*
X97961Y29425D01*
D02*
G37*
G36*
X247995Y22349D02*
X247888Y22487D01*
X247756Y22610D01*
X247601Y22719D01*
X247422Y22813D01*
X247219Y22893D01*
X246992Y22958D01*
X246742Y23009D01*
X246467Y23045D01*
X246169Y23067D01*
X245847Y23074D01*
X246532Y26074D01*
X246859Y26078D01*
X247706Y26138D01*
X247944Y26173D01*
X248353Y26269D01*
X248524Y26328D01*
X248673Y26396D01*
X248799Y26471D01*
X247995Y22349D01*
D02*
G37*
G36*
X51962Y31905D02*
X52121Y31409D01*
X52387Y30847D01*
X52758Y30218D01*
X53235Y29523D01*
X54508Y27933D01*
X56205Y26078D01*
X57213Y25050D01*
X53062Y22130D01*
X52385Y22802D01*
X49318Y25524D01*
X49120Y25630D01*
X48981Y25666D01*
X51909Y32334D01*
X51962Y31905D01*
D02*
G37*
G36*
X276022Y20941D02*
X275823Y20735D01*
X275509Y20366D01*
X275395Y20202D01*
X275309Y20054D01*
X275251Y19920D01*
X275221Y19800D01*
X275220Y19694D01*
X275247Y19603D01*
X275303Y19526D01*
X273901Y20929D01*
X273977Y20873D01*
X274068Y20846D01*
X274174Y20847D01*
X274294Y20877D01*
X274428Y20935D01*
X274576Y21021D01*
X274740Y21135D01*
X274917Y21278D01*
X275315Y21648D01*
X276022Y20941D01*
D02*
G37*
G36*
X228634Y17000D02*
X228624Y17095D01*
X228594Y17180D01*
X228543Y17255D01*
X228472Y17320D01*
X228381Y17375D01*
X228270Y17420D01*
X228138Y17455D01*
X227987Y17480D01*
X227815Y17495D01*
X227622Y17500D01*
Y18500D01*
X227815Y18505D01*
X227987Y18520D01*
X228138Y18545D01*
X228270Y18580D01*
X228381Y18625D01*
X228472Y18680D01*
X228543Y18745D01*
X228594Y18820D01*
X228624Y18905D01*
X228634Y19000D01*
Y17000D01*
D02*
G37*
G36*
X167826Y21622D02*
X168882Y20715D01*
X169202Y20485D01*
X169505Y20291D01*
X169793Y20133D01*
X170064Y20011D01*
X170318Y19925D01*
X170557Y19876D01*
X165028Y15765D01*
X165050Y16043D01*
X165027Y16332D01*
X164962Y16633D01*
X164854Y16946D01*
X164702Y17271D01*
X164508Y17607D01*
X164270Y17955D01*
X163989Y18315D01*
X163665Y18687D01*
X163297Y19070D01*
X167442Y21996D01*
X167826Y21622D01*
D02*
G37*
G36*
X273279Y15049D02*
X273194Y15019D01*
X273119Y14969D01*
X273054Y14899D01*
X272999Y14809D01*
X272954Y14699D01*
X272919Y14569D01*
X272894Y14419D01*
X272879Y14249D01*
X272874Y14059D01*
X271874D01*
X271869Y14249D01*
X271854Y14419D01*
X271829Y14569D01*
X271794Y14699D01*
X271749Y14809D01*
X271694Y14899D01*
X271629Y14969D01*
X271554Y15019D01*
X271469Y15049D01*
X271374Y15059D01*
X273374D01*
X273279Y15049D01*
D02*
G37*
G36*
X232468D02*
X232383Y15019D01*
X232308Y14969D01*
X232243Y14899D01*
X232188Y14809D01*
X232143Y14699D01*
X232108Y14569D01*
X232083Y14419D01*
X232068Y14249D01*
X232063Y14059D01*
X231063D01*
X231058Y14249D01*
X231043Y14419D01*
X231018Y14569D01*
X230983Y14699D01*
X230938Y14809D01*
X230883Y14899D01*
X230818Y14969D01*
X230743Y15019D01*
X230658Y15049D01*
X230563Y15059D01*
X232563D01*
X232468Y15049D01*
D02*
G37*
G36*
X232068Y11796D02*
X232083Y11624D01*
X232108Y11472D01*
X232143Y11341D01*
X232188Y11229D01*
X232243Y11138D01*
X232308Y11067D01*
X232383Y11017D01*
X232468Y10986D01*
X232563Y10976D01*
X230563D01*
X230658Y10986D01*
X230743Y11017D01*
X230818Y11067D01*
X230883Y11138D01*
X230938Y11229D01*
X230983Y11341D01*
X231018Y11472D01*
X231043Y11624D01*
X231058Y11796D01*
X231063Y11988D01*
X232063D01*
X232068Y11796D01*
D02*
G37*
G36*
X272879Y11546D02*
X272894Y11374D01*
X272919Y11222D01*
X272954Y11090D01*
X272999Y10979D01*
X273054Y10888D01*
X273119Y10817D01*
X273194Y10767D01*
X273279Y10736D01*
X273374Y10726D01*
X271374D01*
X271469Y10736D01*
X271554Y10767D01*
X271629Y10817D01*
X271694Y10888D01*
X271749Y10979D01*
X271794Y11090D01*
X271829Y11222D01*
X271854Y11374D01*
X271869Y11546D01*
X271874Y11738D01*
X272874D01*
X272879Y11546D01*
D02*
G37*
G36*
X150189Y15500D02*
X156110D01*
Y14500D01*
X150189D01*
Y10548D01*
X134963D01*
X134043Y11302D01*
X132940Y11892D01*
X131744Y12255D01*
X130500Y12377D01*
X129256Y12255D01*
X128060Y11892D01*
X127347Y11511D01*
X126847Y11810D01*
Y12347D01*
X126451D01*
X126394Y13226D01*
Y14549D01*
X129719Y17874D01*
X150189D01*
Y15500D01*
D02*
G37*
G36*
X123351Y13385D02*
X123586Y9784D01*
X123659Y9534D01*
X123742Y9384D01*
X123834Y9334D01*
X117166D01*
X117390Y9384D01*
X117591Y9534D01*
X117768Y9784D01*
X117921Y10134D01*
X118051Y10584D01*
X118157Y11134D01*
X118240Y11784D01*
X118335Y13385D01*
X118347Y14334D01*
X123346D01*
X123351Y13385D01*
D02*
G37*
G36*
X88057Y17246D02*
X89844Y15741D01*
X90644Y15188D01*
X91382Y14766D01*
X92058Y14478D01*
X92672Y14322D01*
X93224Y14299D01*
X93714Y14408D01*
X94142Y14649D01*
X86575Y8780D01*
X86525Y8863D01*
X86375Y8938D01*
X86125Y9004D01*
X85775Y9062D01*
X85325Y9110D01*
X83375Y9203D01*
X81575Y9221D01*
Y14220D01*
X82525Y14225D01*
X83825Y14301D01*
X83039Y15157D01*
X87071Y18197D01*
X88057Y17246D01*
D02*
G37*
G36*
X58677Y12630D02*
X61460Y10244D01*
X62281Y9660D01*
X63050Y9183D01*
X63765Y8812D01*
X64426Y8547D01*
X65035Y8388D01*
X65590Y8334D01*
X53410D01*
X53843Y8370D01*
X54156Y8476D01*
X54349Y8653D01*
X54422Y8900D01*
X54375Y9218D01*
X54208Y9607D01*
X53921Y10067D01*
X53514Y10597D01*
X52987Y11198D01*
X52340Y11870D01*
X57643Y13638D01*
X58677Y12630D01*
D02*
G37*
G36*
X203947Y10124D02*
X203708Y10075D01*
X203453Y9989D01*
X203182Y9867D01*
X202895Y9709D01*
X202592Y9515D01*
X202272Y9285D01*
X201584Y8717D01*
X201216Y8378D01*
X200832Y8004D01*
X196687Y10930D01*
X197054Y11313D01*
X197660Y12045D01*
X197898Y12393D01*
X198092Y12729D01*
X198244Y13054D01*
X198352Y13367D01*
X198417Y13668D01*
X198439Y13957D01*
X198418Y14235D01*
X203947Y10124D01*
D02*
G37*
G36*
X241008Y10848D02*
X241098Y10723D01*
X241248Y10612D01*
X241459Y10516D01*
X241728Y10435D01*
X242058Y10368D01*
X242448Y10317D01*
X242580Y10308D01*
X242596Y10310D01*
X242851Y10356D01*
X243084Y10416D01*
X243295Y10489D01*
X243483Y10576D01*
X243649Y10675D01*
X243792Y10788D01*
X243914Y10914D01*
X243969Y10250D01*
X243979Y10250D01*
Y10138D01*
X244263Y6729D01*
X244132Y6828D01*
X243979Y6916D01*
X243805Y6995D01*
X243609Y7062D01*
X243392Y7120D01*
X243154Y7167D01*
X242970Y7193D01*
X242448Y7139D01*
X242058Y7052D01*
X241728Y6941D01*
X241528Y6840D01*
X241558Y6797D01*
X241986Y6263D01*
X243100Y5065D01*
X241092Y2830D01*
X240483Y3435D01*
X240420Y3491D01*
X237491D01*
X237503Y6012D01*
X240967Y9307D01*
X240793Y9080D01*
X240706Y8809D01*
X240704Y8494D01*
X240789Y8135D01*
X240959Y7733D01*
X240979Y7699D01*
Y10988D01*
X241008Y10848D01*
D02*
G37*
G36*
X266497Y5762D02*
X266314Y5741D01*
X266105Y5677D01*
X265871Y5571D01*
X265611Y5423D01*
X265326Y5232D01*
X265016Y4998D01*
X264320Y4404D01*
X263522Y3641D01*
X260900Y5262D01*
X261488Y5871D01*
X262414Y6965D01*
X262752Y7451D01*
X263007Y7896D01*
X263179Y8300D01*
X263267Y8662D01*
X263273Y8984D01*
X263195Y9265D01*
X263034Y9504D01*
X266497Y5762D01*
D02*
G37*
G36*
X107256Y8727D02*
X106993Y8568D01*
X106637Y8303D01*
X105642Y7454D01*
X102526Y4484D01*
X101512Y3476D01*
X96732Y5768D01*
X99575Y8780D01*
X107425D01*
X107256Y8727D01*
D02*
G37*
G36*
X65640Y7986D02*
X65790Y7674D01*
X66040Y7399D01*
X66390Y7160D01*
X66840Y6959D01*
X67390Y6793D01*
X68040Y6665D01*
X68790Y6573D01*
X69640Y6518D01*
X70590Y6500D01*
Y1500D01*
X65590Y1666D01*
Y8334D01*
X65640Y7986D01*
D02*
G37*
%LPC*%
G36*
X63000Y304421D02*
X62468Y304351D01*
X61507Y303953D01*
X60681Y303319D01*
X60047Y302493D01*
X59649Y301532D01*
X59579Y301000D01*
X63000D01*
Y304421D01*
D02*
G37*
G36*
Y300000D02*
X59579D01*
X59649Y299468D01*
X60047Y298507D01*
X60681Y297681D01*
X61507Y297047D01*
X62468Y296649D01*
X63000Y296579D01*
Y300000D01*
D02*
G37*
G36*
X19685Y308316D02*
X17645Y308155D01*
X15655Y307678D01*
X13765Y306894D01*
X12020Y305825D01*
X10464Y304496D01*
X9135Y302940D01*
X8066Y301196D01*
X7283Y299305D01*
X6805Y297316D01*
X6645Y295276D01*
X6805Y293236D01*
X7283Y291246D01*
X8066Y289355D01*
X9135Y287611D01*
X10464Y286055D01*
X12020Y284726D01*
X13765Y283657D01*
X15655Y282874D01*
X17645Y282396D01*
X19685Y282235D01*
X21725Y282396D01*
X23715Y282874D01*
X25605Y283657D01*
X27350Y284726D01*
X28906Y286055D01*
X30235Y287611D01*
X31304Y289355D01*
X32087Y291246D01*
X32565Y293236D01*
X32725Y295276D01*
X32565Y297316D01*
X32087Y299305D01*
X31304Y301196D01*
X30235Y302940D01*
X28906Y304496D01*
X27350Y305825D01*
X25605Y306894D01*
X23715Y307678D01*
X21725Y308155D01*
X19685Y308316D01*
D02*
G37*
G36*
X55500Y248000D02*
X51527D01*
X51616Y247325D01*
X52069Y246231D01*
X52791Y245291D01*
X53731Y244569D01*
X54825Y244116D01*
X55500Y244027D01*
Y248000D01*
D02*
G37*
G36*
X9953Y231772D02*
X6500D01*
Y228319D01*
X9953D01*
Y231772D01*
D02*
G37*
G36*
X295276Y308316D02*
X293236Y308155D01*
X291246Y307678D01*
X289355Y306894D01*
X287611Y305825D01*
X286055Y304496D01*
X284726Y302940D01*
X283657Y301196D01*
X282874Y299305D01*
X282396Y297316D01*
X282235Y295276D01*
X282396Y293236D01*
X282874Y291246D01*
X283657Y289355D01*
X284726Y287611D01*
X286055Y286055D01*
X287611Y284726D01*
X289355Y283657D01*
X291246Y282874D01*
X293236Y282396D01*
X295276Y282235D01*
X297316Y282396D01*
X299305Y282874D01*
X301196Y283657D01*
X302940Y284726D01*
X304496Y286055D01*
X305825Y287611D01*
X306894Y289355D01*
X307678Y291246D01*
X308155Y293236D01*
X308316Y295276D01*
X308155Y297316D01*
X307678Y299305D01*
X306894Y301196D01*
X305825Y302940D01*
X304496Y304496D01*
X302940Y305825D01*
X301196Y306894D01*
X299305Y307678D01*
X297316Y308155D01*
X295276Y308316D01*
D02*
G37*
G36*
X273622Y271368D02*
X271169D01*
Y264929D01*
X280512D01*
X280428Y265783D01*
X280033Y267085D01*
X279392Y268284D01*
X278529Y269336D01*
X277477Y270199D01*
X276277Y270840D01*
X274976Y271235D01*
X273622Y271368D01*
D02*
G37*
G36*
X35346Y148346D02*
X31500D01*
Y144500D01*
X35346D01*
Y148346D01*
D02*
G37*
G36*
X30500D02*
X26654D01*
Y144500D01*
X30500D01*
Y148346D01*
D02*
G37*
G36*
X19685Y32725D02*
X17645Y32565D01*
X15655Y32087D01*
X13765Y31304D01*
X12020Y30235D01*
X10464Y28906D01*
X9135Y27350D01*
X8066Y25605D01*
X7283Y23715D01*
X6805Y21725D01*
X6645Y19685D01*
X6805Y17645D01*
X7283Y15655D01*
X8066Y13765D01*
X9135Y12020D01*
X10464Y10464D01*
X12020Y9135D01*
X13765Y8066D01*
X15655Y7283D01*
X17645Y6805D01*
X19685Y6645D01*
X21725Y6805D01*
X23715Y7283D01*
X25605Y8066D01*
X27350Y9135D01*
X28906Y10464D01*
X30235Y12020D01*
X31304Y13765D01*
X32087Y15655D01*
X32565Y17645D01*
X32725Y19685D01*
X32565Y21725D01*
X32087Y23715D01*
X31304Y25605D01*
X30235Y27350D01*
X28906Y28906D01*
X27350Y30235D01*
X25605Y31304D01*
X23715Y32087D01*
X21725Y32565D01*
X19685Y32725D01*
D02*
G37*
G36*
X189000Y20921D02*
X183579D01*
Y15500D01*
X189000D01*
Y20921D01*
D02*
G37*
%LPD*%
D10*
X251250Y168520D02*
X257500Y162270D01*
Y127366D02*
Y162270D01*
X249134Y119000D02*
X257500Y127366D01*
X101000Y255500D02*
X102000D01*
X54500Y118500D02*
X55500D01*
X76750Y169000D02*
X77500D01*
X101250Y199520D02*
X102000D01*
X100000Y198270D02*
X101250Y199520D01*
X100000Y197520D02*
Y198270D01*
X78480Y162500D02*
X79230D01*
X77500Y161520D02*
X78480Y162500D01*
X60760Y190504D02*
Y191488D01*
X60276Y191972D02*
X60760Y191488D01*
X59000Y212750D02*
Y213500D01*
X93327Y229449D02*
X94500D01*
X92843Y229933D02*
X93327Y229449D01*
X98016Y270500D02*
X99000D01*
X144839Y261347D02*
X163992Y280500D01*
X221000Y42000D02*
X229000Y50000D01*
X182000Y100500D02*
Y203000D01*
Y100500D02*
X188847Y93654D01*
X254546Y93654D02*
X270141Y78059D01*
X188847Y93654D02*
X254546Y93654D01*
X178500Y95146D02*
Y101453D01*
Y95146D02*
X190146Y83500D01*
X174500Y280500D02*
X178500Y276500D01*
X190146Y83500D02*
X237672D01*
X178500Y268500D02*
Y276500D01*
Y268500D02*
X178500Y101453D01*
X237872Y83700D02*
X256800D01*
X237672Y83500D02*
X237872Y83700D01*
X270141Y78059D02*
X274197D01*
X256800Y83700D02*
X265000Y75500D01*
X170949Y280500D02*
X174500D01*
X265000Y75500D02*
X274197D01*
X248941Y70441D02*
X249000Y70382D01*
X244059Y70441D02*
X248941D01*
X244000Y70500D02*
X244059Y70441D01*
X235000Y77009D02*
X238990Y81000D01*
X235000Y73750D02*
Y77009D01*
X233750Y72500D02*
X235000Y73750D01*
X233000Y72500D02*
X233750D01*
X274197Y72941D02*
X274638Y72500D01*
X253374Y75500D02*
X271874Y57000D01*
X249000Y75500D02*
X253374D01*
X127614Y182886D02*
X132000Y178500D01*
X113858Y182886D02*
X127614D01*
X247165Y119000D02*
X249134D01*
X250500Y168520D02*
X251250D01*
X132000Y258500D02*
X134846Y261347D01*
X144839D01*
X103500Y225709D02*
X104878D01*
X113750Y231022D02*
X115000Y232272D01*
X130911Y237411D02*
X132000Y238500D01*
X128369Y237411D02*
X130911D01*
X115000Y224791D02*
X115750D01*
X231563Y41000D02*
X239043Y48480D01*
Y73347D01*
X221000Y21500D02*
Y42000D01*
X231760Y163280D02*
X237000Y168520D01*
X231760Y147760D02*
Y163280D01*
X236250Y168520D02*
X237000D01*
X206980Y168500D02*
X207000Y168520D01*
X221500Y160500D02*
Y168520D01*
X51500Y142500D02*
X55764D01*
X97520Y111500D02*
X98000Y111020D01*
X55744Y161500D02*
X55764Y161520D01*
X272240Y8250D02*
X272374Y8384D01*
Y18000D01*
X231563Y8698D02*
X231760Y8500D01*
X231563Y8698D02*
Y18000D01*
X250000Y73000D02*
X251853D01*
X279000Y45853D01*
Y24626D02*
Y45853D01*
X272374Y18000D02*
X279000Y24626D01*
X221000Y21500D02*
X224500Y18000D01*
X231563D01*
X272240Y7000D02*
X272374Y7134D01*
X271980Y29500D02*
X272374Y29894D01*
Y41000D01*
X231563Y29500D02*
Y41000D01*
X241043Y72519D02*
X246493Y77969D01*
X241043Y56957D02*
Y72519D01*
Y56957D02*
X251000Y47000D01*
X266374D01*
X272374Y41000D01*
X248909Y77969D02*
X249000Y78059D01*
X246493Y77969D02*
X248909D01*
X239043Y73347D02*
X246223Y80528D01*
X248909D01*
X249000Y80618D01*
X217000Y72500D02*
X233000D01*
X132000Y248500D02*
X140799D01*
X167799Y275500D01*
X170949D01*
X163992Y280500D02*
X170949D01*
X247165Y109000D02*
X258353D01*
X265837Y116484D01*
X271801D01*
X273816Y118500D01*
X291500D01*
X272257Y121059D02*
X291500D01*
X271832Y121484D02*
X272257Y121059D01*
X262984Y121484D02*
X271832D01*
X255500Y114000D02*
X262984Y121484D01*
X247165Y114000D02*
X255500D01*
X243315Y104185D02*
X246980D01*
X221500Y126000D02*
X243315Y104185D01*
X246980D02*
X247165Y104000D01*
X229602Y99000D02*
X247165D01*
X221500Y107102D02*
X229602Y99000D01*
X59000Y72941D02*
X59750D01*
X74000Y73000D02*
X75250Y74250D01*
X80625D01*
X94875Y88500D01*
X108000D01*
X89000Y65520D02*
X89750D01*
X93833Y69602D01*
X108000D01*
X116898Y78500D02*
X132000D01*
X108000Y69602D02*
X116898Y78500D01*
X108000Y88500D02*
X132000D01*
D11*
X102000Y255500D02*
X108000Y261500D01*
X291500Y115941D02*
X303441D01*
X47000Y126000D02*
Y138000D01*
X51500Y142500D01*
X47000Y126000D02*
X54500Y118500D01*
X96500Y142500D02*
X98000Y141000D01*
X76236Y142500D02*
X96500D01*
X89250Y186770D02*
X100000Y197520D01*
X89250Y172520D02*
Y186770D01*
X79230Y162500D02*
X89250Y172520D01*
X110534Y212500D02*
X122500D01*
X98862Y224172D02*
X110534Y212500D01*
X98862Y224172D02*
Y229362D01*
X102689Y233189D01*
X124750Y201750D02*
Y210250D01*
X122520Y199520D02*
X124750Y201750D01*
X119000Y199520D02*
X122520D01*
X122500Y212500D02*
X124750Y210250D01*
X104878Y225709D02*
X110191Y231022D01*
X69000Y141000D02*
Y144500D01*
X72000Y147500D01*
X76236D01*
X69000Y141000D02*
X72500Y137500D01*
X74230D01*
X275000Y81000D02*
X276500Y82500D01*
X289700D01*
X110191Y231022D02*
X113750D01*
X115750Y224791D02*
X128369Y237411D01*
X38500Y118500D02*
X45990Y111010D01*
X54260D01*
X117500Y258500D02*
X132000D01*
X114500Y255500D02*
X117500Y258500D01*
D21*
X99000Y270500D02*
D03*
Y284279D02*
D03*
X103500Y11721D02*
D03*
Y25500D02*
D03*
X90500Y11721D02*
D03*
Y25500D02*
D03*
X45500Y161500D02*
D03*
Y175279D02*
D03*
D22*
X116000Y280500D02*
D03*
Y273020D02*
D03*
X114500Y248020D02*
D03*
Y255500D02*
D03*
X101000D02*
D03*
Y248020D02*
D03*
X115000Y224791D02*
D03*
Y232272D02*
D03*
X119000Y199520D02*
D03*
Y207000D02*
D03*
X102000Y199520D02*
D03*
Y207000D02*
D03*
X90000D02*
D03*
Y199520D02*
D03*
X98000Y141000D02*
D03*
Y133520D02*
D03*
Y111020D02*
D03*
Y118500D02*
D03*
X59500Y95500D02*
D03*
Y88020D02*
D03*
X43500Y95500D02*
D03*
Y88020D02*
D03*
X89000Y65520D02*
D03*
Y73000D02*
D03*
X29500D02*
D03*
Y65520D02*
D03*
X12000Y73000D02*
D03*
Y65520D02*
D03*
X59000Y65461D02*
D03*
Y72941D02*
D03*
X74000Y65520D02*
D03*
Y73000D02*
D03*
X250500Y168520D02*
D03*
Y176000D02*
D03*
X43500Y72941D02*
D03*
Y65461D02*
D03*
X55764Y169000D02*
D03*
Y161520D02*
D03*
X38500Y111020D02*
D03*
Y118500D02*
D03*
X77500Y169000D02*
D03*
Y161520D02*
D03*
X217000Y72500D02*
D03*
Y65020D02*
D03*
X233000D02*
D03*
Y72500D02*
D03*
X265500Y168520D02*
D03*
Y176000D02*
D03*
X279500Y168520D02*
D03*
Y176000D02*
D03*
X214000Y256520D02*
D03*
Y264000D02*
D03*
X221500Y168520D02*
D03*
Y176000D02*
D03*
X207000Y168520D02*
D03*
Y176000D02*
D03*
X237000D02*
D03*
Y168520D02*
D03*
X203000Y263480D02*
D03*
Y256000D02*
D03*
X290500Y65020D02*
D03*
Y72500D02*
D03*
D23*
X94500Y229449D02*
D03*
X103500Y233189D02*
D03*
Y225709D02*
D03*
D24*
X68000Y213500D02*
D03*
X59000D02*
D03*
D25*
X60760Y199953D02*
D03*
X68240D02*
D03*
X64500D02*
D03*
X68240Y190504D02*
D03*
X60760D02*
D03*
D26*
X76236Y142500D02*
D03*
Y147500D02*
D03*
Y152500D02*
D03*
X55764Y137500D02*
D03*
Y142500D02*
D03*
Y147500D02*
D03*
Y152500D02*
D03*
D27*
X76236Y137500D02*
D03*
D28*
X68555Y29000D02*
D03*
X59500D02*
D03*
X50445D02*
D03*
D29*
X59500Y5000D02*
D03*
D30*
X272240Y8250D02*
D03*
X264759D02*
D03*
X271980Y29500D02*
D03*
X264500D02*
D03*
X231760Y8500D02*
D03*
X239241D02*
D03*
X231563Y29500D02*
D03*
X239043D02*
D03*
X55500Y111500D02*
D03*
X74000D02*
D03*
D31*
X55500Y118500D02*
D03*
X74000D02*
D03*
D32*
X268835Y99000D02*
D03*
Y104000D02*
D03*
Y109000D02*
D03*
Y114000D02*
D03*
Y119000D02*
D03*
Y124000D02*
D03*
Y129000D02*
D03*
Y134000D02*
D03*
X247165Y99000D02*
D03*
Y104000D02*
D03*
Y109000D02*
D03*
Y114000D02*
D03*
Y119000D02*
D03*
Y124000D02*
D03*
Y129000D02*
D03*
D33*
Y134000D02*
D03*
D34*
X291500Y115941D02*
D03*
Y118500D02*
D03*
Y121059D02*
D03*
Y123618D02*
D03*
Y126177D02*
D03*
D35*
X301933Y105311D02*
D03*
Y136807D02*
D03*
D36*
X152051Y290500D02*
D03*
Y285500D02*
D03*
Y280500D02*
D03*
Y275500D02*
D03*
X170949Y290500D02*
D03*
Y285500D02*
D03*
Y280500D02*
D03*
Y275500D02*
D03*
D37*
X274197Y67823D02*
D03*
Y62705D02*
D03*
Y65264D02*
D03*
Y70382D02*
D03*
Y72941D02*
D03*
Y75500D02*
D03*
Y78059D02*
D03*
Y80618D02*
D03*
X249000Y62705D02*
D03*
Y65264D02*
D03*
Y67823D02*
D03*
Y70382D02*
D03*
Y72941D02*
D03*
Y75500D02*
D03*
Y78059D02*
D03*
Y80618D02*
D03*
D77*
X28780Y72970D02*
X43470D01*
X73971Y65490D02*
X73988Y65473D01*
X91500Y284000D02*
X101000D01*
X169691Y291757D02*
Y310309D01*
X92480Y248020D02*
X101000D01*
X90500Y250000D02*
X92480Y248020D01*
X84000Y238776D02*
X92843Y229933D01*
X84000Y238776D02*
Y256484D01*
X238500Y3000D02*
X238990Y3491D01*
X223500Y3000D02*
X238500D01*
X216000Y10500D02*
X223500Y3000D01*
X86500Y88500D02*
Y93000D01*
X77000Y79000D02*
X86500Y88500D01*
X65809Y79000D02*
X77000D01*
X53933Y128000D02*
Y136181D01*
X56618Y128000D02*
X63000Y121618D01*
Y97988D02*
Y121618D01*
X60512Y95500D02*
X63000Y97988D01*
X53933Y128000D02*
X56618D01*
X53500D02*
X53933D01*
X34709Y111020D02*
X38500D01*
X28000Y104311D02*
X34709Y111020D01*
X28000Y91000D02*
Y104311D01*
X12500Y73000D02*
X18500Y79000D01*
X74500Y152500D02*
X76236D01*
X70500Y156500D02*
X74500Y152500D01*
X74000Y118500D02*
Y121000D01*
X64500Y130500D02*
X74000Y121000D01*
X64500Y130500D02*
Y144000D01*
X53933Y136181D02*
X55252Y137500D01*
X93270D02*
X97250Y133520D01*
X76236Y137500D02*
X93270D01*
X73484Y207250D02*
X80234Y200500D01*
X67805Y207250D02*
X73484D01*
X64500Y203945D02*
X67805Y207250D01*
X64500Y199953D02*
Y203945D01*
X68240Y190504D02*
X80234D01*
X89250Y199520D01*
X90000D01*
X60760Y199953D02*
X63756D01*
X65809Y174000D02*
X71750D01*
X57004Y190504D02*
X59496D01*
X53500Y196500D02*
X59496Y190504D01*
X53500Y196500D02*
Y207250D01*
X53130Y186630D02*
X57004Y190504D01*
X71750Y174000D02*
X76750Y169000D01*
X102689Y233189D02*
X103500D01*
Y236500D01*
X101000Y239000D02*
Y248020D01*
Y239000D02*
X103500Y236500D01*
X53500Y207250D02*
X59000Y212750D01*
X8500Y202000D02*
X27132Y220632D01*
X68000Y213500D02*
Y215000D01*
X62368Y220632D02*
X68000Y215000D01*
X27132Y220632D02*
X62368D01*
X89250Y207000D02*
X90000D01*
X82750Y213500D02*
X89250Y207000D01*
X68000Y213500D02*
X82750D01*
X90000Y199520D02*
X90250Y199770D01*
X94020D01*
X101250Y207000D01*
X102000D01*
X56000Y248500D02*
X91500Y284000D01*
X61051Y229449D02*
X93327D01*
X84000Y256484D02*
X98016Y270500D01*
X101000Y284000D02*
X111980Y273020D01*
X149571D02*
X152051Y275500D01*
X116000Y273020D02*
X149571D01*
X111980D02*
X116000D01*
X61000Y147500D02*
X64500Y144000D01*
X58750Y147500D02*
X61000D01*
X75917Y147819D02*
X76236Y147500D01*
X71870Y147819D02*
X75917D01*
X63963Y155726D02*
X71870Y147819D01*
X63963Y155726D02*
Y161551D01*
X56514Y169000D02*
X63963Y161551D01*
X55764Y169000D02*
X56514D01*
X32500D02*
X55764D01*
X31000Y167500D02*
X32500Y169000D01*
X42000Y248500D02*
X61051Y229449D01*
X26472Y248500D02*
X42000D01*
X102000Y207000D02*
X119000D01*
X55764Y152500D02*
Y161520D01*
X76555Y152181D02*
X87645D01*
X92091Y147735D01*
X100464D01*
X106929Y141271D01*
Y127429D02*
Y141271D01*
X98000Y118500D02*
X106929Y127429D01*
X97250Y133520D02*
X98000D01*
X169691Y291757D02*
X170949Y290500D01*
X232250Y65020D02*
X233000D01*
X224074Y56844D02*
X232250Y65020D01*
X224074Y55574D02*
Y56844D01*
X223500Y55000D02*
X224074Y55574D01*
X247165Y134000D02*
X248102D01*
X237000Y176000D02*
X249750D01*
X243000Y138165D02*
X245713Y135453D01*
X243000Y138165D02*
Y168805D01*
X247162Y172967D01*
Y173412D01*
X249750Y176000D01*
X250500D01*
X239043Y28750D02*
Y29500D01*
Y28750D02*
X243219Y24574D01*
X249926D01*
X250500Y24000D01*
X245974Y8750D02*
X246223Y9000D01*
X239490Y8750D02*
X245974D01*
X239241Y8500D02*
X239490Y8750D01*
X261260Y3500D02*
X264759Y7000D01*
X242543Y3500D02*
X261260D01*
X239043Y7000D02*
X242543Y3500D01*
X292219Y65020D02*
X295980D01*
X289700Y82500D02*
X296500Y75700D01*
Y69300D02*
Y75700D01*
X292219Y65020D02*
X296500Y69300D01*
X295980Y65020D02*
X308500Y52500D01*
X268835Y134000D02*
Y135063D01*
X276580Y142809D01*
X40500Y45500D02*
X61547D01*
X29500Y56500D02*
X40500Y45500D01*
X203000Y46500D02*
X216000Y33500D01*
X201874Y46500D02*
X203000D01*
X216000Y10500D02*
Y33500D01*
X157501Y57873D02*
X168874Y46500D01*
X142627Y57873D02*
X157501D01*
X132000Y68500D02*
X142627Y57873D01*
X43470Y72970D02*
X43500Y72941D01*
X28750Y73000D02*
X29500D01*
X28750D02*
X28780Y72970D01*
X29500Y73000D02*
Y77047D01*
X14000Y92547D02*
X29500Y77047D01*
X265500Y168520D02*
X279500D01*
X192000Y168500D02*
X206980D01*
X113858Y156114D02*
Y182886D01*
X38500Y100500D02*
X43500Y95500D01*
X38500Y100500D02*
Y111020D01*
X74000Y111500D02*
X97520D01*
X68193Y190504D02*
X68240D01*
X55764Y178075D02*
X68193Y190504D01*
X55764Y169000D02*
Y178075D01*
X45500Y161500D02*
X55744D01*
X202250Y263480D02*
X203000D01*
X180230Y285500D02*
X202250Y263480D01*
X170949Y285500D02*
X180230D01*
X152051D02*
X170949D01*
X152051Y275500D02*
Y280500D01*
Y285500D01*
Y290500D01*
X203000Y263480D02*
X203520Y264000D01*
X248342D02*
X260000Y252343D01*
X214000Y264000D02*
X248342D01*
X203520D02*
X214000D01*
X279500Y176000D02*
Y189842D01*
X270669Y198673D02*
X279500Y189842D01*
X270669Y198673D02*
Y212697D01*
Y264429D01*
X260000Y252343D02*
X260782Y253124D01*
Y256648D01*
X268563Y264429D01*
X270669D01*
X238990Y3491D02*
Y8250D01*
X239241Y8500D01*
X239043Y29500D02*
X264500D01*
X265500Y176000D02*
X279500D01*
X250500D02*
X265500D01*
X221500D02*
X237000D01*
X67453Y45500D02*
X68555Y44398D01*
Y29000D02*
Y44398D01*
X67453Y52399D02*
X73988Y58934D01*
X67453Y45500D02*
Y52399D01*
X73988Y58934D02*
Y65473D01*
X107547Y42547D02*
X132000Y67000D01*
X90000Y42547D02*
X107547D01*
X29500Y56500D02*
Y65520D01*
X43500Y72941D02*
Y88020D01*
Y95500D02*
X59500D01*
X43500Y88020D02*
X59500D01*
X59750Y72941D02*
X65809Y79000D01*
X58250Y65461D02*
X59000D01*
X50770Y72941D02*
X58250Y65461D01*
X43500Y72941D02*
X50770D01*
X59000Y65461D02*
X59030Y65490D01*
X73971D01*
X74000Y65520D01*
X74230Y65750D01*
X81000D01*
X88250Y73000D01*
X89000D01*
D78*
X270500Y62500D02*
X274197D01*
X262757Y73500D02*
X263316Y72941D01*
X249000Y134000D02*
X253500Y129500D01*
X248102Y134000D02*
X249000D01*
X274197Y65303D02*
X290500D01*
X264759Y126500D02*
X290000D01*
X263260Y128000D02*
X264759Y126500D01*
X261374Y128000D02*
X263260D01*
X269500Y63500D02*
X270500Y62500D01*
X269500Y63500D02*
Y71165D01*
X32000Y238500D02*
X43000Y227500D01*
X6506Y240146D02*
X8152Y238500D01*
X32000D01*
X38783Y241500D02*
X55500Y224783D01*
X12520Y241500D02*
X38783D01*
X6000Y248020D02*
X12520Y241500D01*
X6000Y240146D02*
X6506D01*
X43000Y227000D02*
Y227500D01*
X271276Y72941D02*
X274197D01*
X263316D02*
X271276D01*
X262757Y73500D02*
X262874Y73000D01*
X210500Y158000D02*
X210567D01*
X239567Y129000D01*
X247165D01*
X274197Y70382D02*
Y72941D01*
Y67823D02*
Y70382D01*
X274638Y72500D02*
X290500D01*
X269500Y71165D02*
X271276Y72941D01*
X238500Y124000D02*
X247165D01*
X208846Y153654D02*
X238500Y124000D01*
D79*
X203000Y256000D02*
X221291D01*
X280000Y167020D02*
X280500Y167520D01*
X239437Y16000D02*
X264500D01*
X169001Y240310D02*
X169691Y241000D01*
X252508Y224783D02*
X260000D01*
X221291Y256000D02*
X252508Y224783D01*
X112776Y199520D02*
X119000D01*
X96142Y182886D02*
X112776Y199520D01*
X169001Y117461D02*
Y240310D01*
X105500Y310500D02*
X116000Y300000D01*
X77500Y310500D02*
X105500D01*
X71374Y304374D02*
X77500Y310500D01*
X116000Y280500D02*
Y300000D01*
X71374Y300500D02*
Y304374D01*
X203000Y256000D02*
X207000Y252000D01*
Y176000D02*
Y252000D01*
X280000Y143500D02*
Y167020D01*
X279500Y168520D02*
X280500Y167520D01*
X71201Y281701D02*
Y300327D01*
X57000Y267500D02*
X71201Y281701D01*
X17606Y267500D02*
X57000D01*
X6000Y255894D02*
X17606Y267500D01*
X90012Y11721D02*
X90256Y11476D01*
X78500Y23232D02*
Y29553D01*
X90012Y11721D02*
X90500D01*
X67178D02*
X90012D01*
X78500Y23232D02*
X90012Y11721D01*
X59500Y5000D02*
Y8245D01*
X22245Y45500D02*
X59500Y8245D01*
X21000Y45500D02*
X22245D01*
X50445Y28282D02*
X56574Y22153D01*
X56745D01*
X164445Y65461D02*
X172032Y57873D01*
X157501Y65461D02*
X164445D01*
X172032Y57873D02*
X209853D01*
X217000Y65020D01*
X173626Y34000D02*
X186126Y46500D01*
X161000Y34000D02*
X173626D01*
X153299Y41701D02*
X161000Y34000D01*
X153299Y41701D02*
Y46327D01*
X153126Y46500D02*
X153299Y46327D01*
X96142Y156114D02*
Y182886D01*
X30779Y175279D02*
X45500D01*
X27500Y172000D02*
X30779Y175279D01*
X19500Y172000D02*
X27500D01*
X9500D02*
X19500D01*
X71201Y300327D02*
X71374Y300500D01*
X194500Y256000D02*
X203000D01*
X192000Y258500D02*
X194500Y256000D01*
X239437Y41000D02*
X264500D01*
X56745Y22153D02*
X67178Y11721D01*
X21000Y45500D02*
Y46500D01*
X12000Y55500D02*
X21000Y46500D01*
X12000Y55500D02*
Y65520D01*
X43500Y60771D02*
Y65461D01*
Y60771D02*
X48500Y55771D01*
Y55500D02*
Y55771D01*
X14000Y98453D02*
Y117000D01*
X31000Y134000D01*
X103500Y25500D02*
X120000D01*
X103500Y9000D02*
Y11721D01*
X98500Y4000D02*
X103500Y9000D01*
X60500Y4000D02*
X98500D01*
X59500Y5000D02*
X60500Y4000D01*
X90500Y25500D02*
X101000Y36000D01*
X120500D02*
X121000D01*
X101000D02*
X120500D01*
X120000Y25500D02*
X130500Y36000D01*
X131500Y5000D02*
X194292D01*
X130500Y6000D02*
X131500Y5000D01*
X194292D02*
X203279Y13987D01*
Y15000D01*
X120500Y6000D02*
X120846Y6346D01*
Y16846D01*
X127421Y23421D01*
X162481D01*
X169890Y16013D01*
Y15000D02*
Y16013D01*
D80*
X101000Y248020D02*
X114500D01*
X51000Y38500D02*
X59000Y30500D01*
X51000Y37500D02*
Y38500D01*
D81*
X303441Y115941D02*
X311000Y123500D01*
Y138559D01*
X280000Y143500D02*
X306059D01*
X311000Y138559D01*
D82*
X295276Y19685D02*
D03*
X19685D02*
D03*
Y295276D02*
D03*
X295276D02*
D03*
D83*
X192000Y68500D02*
D03*
Y78500D02*
D03*
Y88500D02*
D03*
Y98500D02*
D03*
Y108500D02*
D03*
Y118500D02*
D03*
Y128500D02*
D03*
Y138500D02*
D03*
Y148500D02*
D03*
Y158500D02*
D03*
Y168500D02*
D03*
Y178500D02*
D03*
Y188500D02*
D03*
Y198500D02*
D03*
Y208500D02*
D03*
Y218500D02*
D03*
Y228500D02*
D03*
Y238500D02*
D03*
Y248500D02*
D03*
Y258500D02*
D03*
X132000Y68500D02*
D03*
Y78500D02*
D03*
Y88500D02*
D03*
Y98500D02*
D03*
Y108500D02*
D03*
Y118500D02*
D03*
Y128500D02*
D03*
Y138500D02*
D03*
Y148500D02*
D03*
Y158500D02*
D03*
Y168500D02*
D03*
Y178500D02*
D03*
Y188500D02*
D03*
Y198500D02*
D03*
Y208500D02*
D03*
Y218500D02*
D03*
Y228500D02*
D03*
Y238500D02*
D03*
Y248500D02*
D03*
X130500Y6000D02*
D03*
X120500Y36000D02*
D03*
X130500D02*
D03*
X19500Y202000D02*
D03*
X9500D02*
D03*
X19500Y172000D02*
D03*
X31000Y134000D02*
D03*
D84*
X132000Y258500D02*
D03*
D85*
X63500Y300500D02*
D03*
X79248D02*
D03*
X71374D02*
D03*
X186126Y46500D02*
D03*
X194000D02*
D03*
X153126D02*
D03*
X161000D02*
D03*
X264500Y18000D02*
D03*
Y41000D02*
D03*
X239437Y18000D02*
D03*
Y41000D02*
D03*
X6000Y255894D02*
D03*
Y240146D02*
D03*
Y248020D02*
D03*
D86*
X87122Y300500D02*
D03*
X201874Y46500D02*
D03*
X168874D02*
D03*
X272374Y18000D02*
D03*
Y41000D02*
D03*
X231563Y18000D02*
D03*
Y41000D02*
D03*
D87*
X96142Y156114D02*
D03*
D88*
X113858D02*
D03*
Y182886D02*
D03*
X96142D02*
D03*
D89*
X67453Y45500D02*
D03*
X90000Y42547D02*
D03*
X14000Y92547D02*
D03*
X86500Y93000D02*
D03*
D90*
X61547Y45500D02*
D03*
X80594Y93000D02*
D03*
D91*
X90000Y48453D02*
D03*
X14000Y98453D02*
D03*
D92*
X120500Y6000D02*
D03*
X9500Y172000D02*
D03*
X31000Y144000D02*
D03*
D93*
X203279Y15000D02*
D03*
X169890D02*
D03*
D94*
X189500D02*
D03*
X156110D02*
D03*
D95*
X270669Y264429D02*
D03*
Y212697D02*
D03*
D96*
X260000Y224783D02*
D03*
D97*
Y234626D02*
D03*
X260000Y252343D02*
D03*
X260000Y242500D02*
D03*
D98*
X6000Y232272D02*
D03*
D99*
X56000Y248500D02*
D03*
X26472D02*
D03*
D100*
X221500Y126000D02*
D03*
Y107102D02*
D03*
X108000Y88500D02*
D03*
Y69602D02*
D03*
D101*
Y261500D02*
D03*
X70500Y156500D02*
D03*
X53500Y128000D02*
D03*
X65809Y174000D02*
D03*
X55500Y224783D02*
D03*
X43000Y227000D02*
D03*
X229000Y50000D02*
D03*
X262874Y73000D02*
D03*
X261374Y128000D02*
D03*
X253500Y129500D02*
D03*
X182000Y203000D02*
D03*
X210500Y158000D02*
D03*
X208846Y153654D02*
D03*
X238990Y81000D02*
D03*
X244000Y70500D02*
D03*
X271874Y57000D02*
D03*
X231760Y147760D02*
D03*
X221500Y160500D02*
D03*
D102*
X169890Y309000D02*
D03*
X169721Y240961D02*
D03*
X169001Y117461D02*
D03*
X157501Y65461D02*
D03*
X223500Y55000D02*
D03*
X48500Y55500D02*
D03*
X250500Y24000D02*
D03*
X246223Y9000D02*
D03*
X308500Y52500D02*
D03*
X280000Y143500D02*
D03*
X78500Y29553D02*
D03*
X51000Y38500D02*
D03*
X21000Y45500D02*
D03*
D103*
X90500Y250000D02*
D03*
X28000Y91000D02*
D03*
X18500Y79000D02*
D03*
X80234Y200500D02*
D03*
X53130Y186630D02*
D03*
X31000Y167500D02*
D03*
D104*
X293469Y128933D02*
D03*
X293469Y113185D02*
D03*
M02*
