G04*
G04 #@! TF.GenerationSoftware,Altium Limited,Altium Designer,19.0.4 (130)*
G04*
G04 Layer_Color=16711935*
%FSLAX25Y25*%
%MOIN*%
G70*
G01*
G75*
%ADD55C,0.20800*%
%ADD56C,0.07493*%
%ADD57R,0.07493X0.07493*%
%ADD58C,0.06706*%
%ADD59R,0.06706X0.06706*%
%ADD60R,0.08280X0.08280*%
%ADD61C,0.08280*%
%ADD62C,0.05524*%
%ADD63R,0.05524X0.05524*%
%ADD64R,0.05524X0.05524*%
%ADD65R,0.07493X0.07493*%
%ADD66C,0.10642*%
%ADD67R,0.10642X0.10642*%
%ADD68O,0.18517X0.12611*%
%ADD69R,0.07887X0.07887*%
%ADD70C,0.07887*%
%ADD71R,0.06706X0.06706*%
%ADD72C,0.07800*%
%ADD73C,0.05918*%
%ADD74C,0.03200*%
%ADD75C,0.06800*%
%ADD76C,0.03800*%
D55*
X295276Y19685D02*
D03*
X19685D02*
D03*
Y295276D02*
D03*
X295276D02*
D03*
D56*
X192000Y68500D02*
D03*
Y78500D02*
D03*
Y88500D02*
D03*
Y98500D02*
D03*
Y108500D02*
D03*
Y118500D02*
D03*
Y128500D02*
D03*
Y138500D02*
D03*
Y148500D02*
D03*
Y158500D02*
D03*
Y168500D02*
D03*
Y178500D02*
D03*
Y188500D02*
D03*
Y198500D02*
D03*
Y208500D02*
D03*
Y218500D02*
D03*
Y228500D02*
D03*
Y238500D02*
D03*
Y248500D02*
D03*
Y258500D02*
D03*
X132000Y68500D02*
D03*
Y78500D02*
D03*
Y88500D02*
D03*
Y98500D02*
D03*
Y108500D02*
D03*
Y118500D02*
D03*
Y128500D02*
D03*
Y138500D02*
D03*
Y148500D02*
D03*
Y158500D02*
D03*
Y168500D02*
D03*
Y178500D02*
D03*
Y188500D02*
D03*
Y198500D02*
D03*
Y208500D02*
D03*
Y218500D02*
D03*
Y228500D02*
D03*
Y238500D02*
D03*
Y248500D02*
D03*
X130500Y6000D02*
D03*
X120500Y36000D02*
D03*
X130500D02*
D03*
X19500Y202000D02*
D03*
X9500D02*
D03*
X19500Y172000D02*
D03*
X31000Y134000D02*
D03*
D57*
X132000Y258500D02*
D03*
D58*
X63500Y300500D02*
D03*
X79248D02*
D03*
X71374D02*
D03*
X186126Y46500D02*
D03*
X194000D02*
D03*
X153126D02*
D03*
X161000D02*
D03*
X264500Y18000D02*
D03*
Y41000D02*
D03*
X239437Y18000D02*
D03*
Y41000D02*
D03*
X6000Y255894D02*
D03*
Y240146D02*
D03*
Y248020D02*
D03*
D59*
X87122Y300500D02*
D03*
X201874Y46500D02*
D03*
X168874D02*
D03*
X272374Y18000D02*
D03*
Y41000D02*
D03*
X231563Y18000D02*
D03*
Y41000D02*
D03*
D60*
X96142Y156114D02*
D03*
D61*
X113858D02*
D03*
Y182886D02*
D03*
X96142D02*
D03*
D62*
X67453Y45500D02*
D03*
X90000Y42547D02*
D03*
X14000Y92547D02*
D03*
X86500Y93000D02*
D03*
D63*
X61547Y45500D02*
D03*
X80594Y93000D02*
D03*
D64*
X90000Y48453D02*
D03*
X14000Y98453D02*
D03*
D65*
X120500Y6000D02*
D03*
X9500Y172000D02*
D03*
X31000Y144000D02*
D03*
D66*
X203279Y15000D02*
D03*
X169890D02*
D03*
D67*
X189500D02*
D03*
X156110D02*
D03*
D68*
X270669Y264429D02*
D03*
Y212697D02*
D03*
D69*
X260000Y224783D02*
D03*
D70*
Y234626D02*
D03*
X260000Y252343D02*
D03*
X260000Y242500D02*
D03*
D71*
X6000Y232272D02*
D03*
D72*
X56000Y248500D02*
D03*
X26472D02*
D03*
D73*
X221500Y126000D02*
D03*
Y107102D02*
D03*
X108000Y88500D02*
D03*
Y69602D02*
D03*
D74*
Y261500D02*
D03*
X70500Y156500D02*
D03*
X53500Y128000D02*
D03*
X65809Y174000D02*
D03*
X55500Y224783D02*
D03*
X43000Y227000D02*
D03*
X229000Y50000D02*
D03*
X262874Y73000D02*
D03*
X261374Y128000D02*
D03*
X253500Y129500D02*
D03*
X182000Y203000D02*
D03*
X210500Y158000D02*
D03*
X208846Y153654D02*
D03*
X238990Y81000D02*
D03*
X244000Y70500D02*
D03*
X271874Y57000D02*
D03*
X231760Y147760D02*
D03*
X221500Y160500D02*
D03*
D75*
X169890Y309000D02*
D03*
X169721Y240961D02*
D03*
X169001Y117461D02*
D03*
X157501Y65461D02*
D03*
X223500Y55000D02*
D03*
X48500Y55500D02*
D03*
X250500Y24000D02*
D03*
X246223Y9000D02*
D03*
X308500Y52500D02*
D03*
X280000Y143500D02*
D03*
X78500Y29553D02*
D03*
X51000Y38500D02*
D03*
X21000Y45500D02*
D03*
D76*
X90500Y250000D02*
D03*
X28000Y91000D02*
D03*
X18500Y79000D02*
D03*
X80234Y200500D02*
D03*
X53130Y186630D02*
D03*
X31000Y167500D02*
D03*
M02*
