G04*
G04 #@! TF.GenerationSoftware,Altium Limited,Altium Designer,19.0.4 (130)*
G04*
G04 Layer_Color=2752767*
%FSLAX25Y25*%
%MOIN*%
G70*
G01*
G75*
%ADD10C,0.00200*%
%ADD11C,0.00267*%
D10*
X294476Y18885D02*
Y20485D01*
X296076D01*
Y18885D01*
X294476D01*
X18885D02*
Y20485D01*
X20485D01*
Y18885D01*
X18885D01*
Y294476D02*
Y296076D01*
X20485D01*
Y294476D01*
X18885D01*
X294476D02*
Y296076D01*
X296076D01*
Y294476D01*
X294476D01*
X96142Y155314D02*
X95342Y156914D01*
X96942D01*
X96142Y155314D01*
X113858D02*
X113058Y156914D01*
X114658D01*
X113858Y155314D01*
Y182086D02*
X113058Y183686D01*
X114658D01*
X113858Y182086D01*
X96142D02*
X95342Y183686D01*
X96942D01*
X96142Y182086D01*
X67453Y44700D02*
X67853Y45100D01*
X68253D01*
X67853Y45500D01*
X68253Y45900D01*
X67853D01*
X67453Y46300D01*
X67053Y45900D01*
X66653D01*
X67053Y45500D01*
X66653Y45100D01*
X67053D01*
X67453Y44700D01*
X61547D02*
X61947Y45100D01*
X62347D01*
X61947Y45500D01*
X62347Y45900D01*
X61947D01*
X61547Y46300D01*
X61147Y45900D01*
X60747D01*
X61147Y45500D01*
X60747Y45100D01*
X61147D01*
X61547Y44700D01*
X90000Y41747D02*
X90400Y42147D01*
X90800D01*
X90400Y42547D01*
X90800Y42947D01*
X90400D01*
X90000Y43347D01*
X89600Y42947D01*
X89200D01*
X89600Y42547D01*
X89200Y42147D01*
X89600D01*
X90000Y41747D01*
Y47653D02*
X90400Y48053D01*
X90800D01*
X90400Y48453D01*
X90800Y48853D01*
X90400D01*
X90000Y49253D01*
X89600Y48853D01*
X89200D01*
X89600Y48453D01*
X89200Y48053D01*
X89600D01*
X90000Y47653D01*
X119700Y5200D02*
X120100Y6000D01*
X119700Y6800D01*
X120500Y6400D01*
X121300Y6800D01*
X120900Y6000D01*
X121300Y5200D01*
X120500Y5600D01*
X119700Y5200D01*
X129700D02*
X130100Y6000D01*
X129700Y6800D01*
X130500Y6400D01*
X131300Y6800D01*
X130900Y6000D01*
X131300Y5200D01*
X130500Y5600D01*
X129700Y5200D01*
X119700Y35200D02*
X120100Y36000D01*
X119700Y36800D01*
X120500Y36400D01*
X121300Y36800D01*
X120900Y36000D01*
X121300Y35200D01*
X120500Y35600D01*
X119700Y35200D01*
X129700D02*
X130100Y36000D01*
X129700Y36800D01*
X130500Y36400D01*
X131300Y36800D01*
X130900Y36000D01*
X131300Y35200D01*
X130500Y35600D01*
X129700Y35200D01*
X202880Y14600D02*
Y14200D01*
X203679D01*
Y14600D01*
X204080D01*
Y15400D01*
X203679D01*
Y15800D01*
X202880D01*
Y15400D01*
X202480D01*
Y14600D01*
X202880D01*
X189100D02*
Y14200D01*
X189900D01*
Y14600D01*
X190300D01*
Y15400D01*
X189900D01*
Y15800D01*
X189100D01*
Y15400D01*
X188700D01*
Y14600D01*
X189100D01*
X169490D02*
Y14200D01*
X170290D01*
Y14600D01*
X170690D01*
Y15400D01*
X170290D01*
Y15800D01*
X169490D01*
Y15400D01*
X169090D01*
Y14600D01*
X169490D01*
X155710D02*
Y14200D01*
X156510D01*
Y14600D01*
X156910D01*
Y15400D01*
X156510D01*
Y15800D01*
X155710D01*
Y15400D01*
X155310D01*
Y14600D01*
X155710D01*
X18700Y201200D02*
X19100Y202000D01*
X18700Y202800D01*
X19500Y202400D01*
X20300Y202800D01*
X19900Y202000D01*
X20300Y201200D01*
X19500Y201600D01*
X18700Y201200D01*
X8700D02*
X9100Y202000D01*
X8700Y202800D01*
X9500Y202400D01*
X10300Y202800D01*
X9900Y202000D01*
X10300Y201200D01*
X9500Y201600D01*
X8700Y201200D01*
X18700Y171200D02*
X19100Y172000D01*
X18700Y172800D01*
X19500Y172400D01*
X20300Y172800D01*
X19900Y172000D01*
X20300Y171200D01*
X19500Y171600D01*
X18700Y171200D01*
X8700D02*
X9100Y172000D01*
X8700Y172800D01*
X9500Y172400D01*
X10300Y172800D01*
X9900Y172000D01*
X10300Y171200D01*
X9500Y171600D01*
X8700Y171200D01*
X14000Y97653D02*
X14400Y98053D01*
X14800D01*
X14400Y98453D01*
X14800Y98853D01*
X14400D01*
X14000Y99253D01*
X13600Y98853D01*
X13200D01*
X13600Y98453D01*
X13200Y98053D01*
X13600D01*
X14000Y97653D01*
Y91747D02*
X14400Y92147D01*
X14800D01*
X14400Y92547D01*
X14800Y92947D01*
X14400D01*
X14000Y93347D01*
X13600Y92947D01*
X13200D01*
X13600Y92547D01*
X13200Y92147D01*
X13600D01*
X14000Y91747D01*
X30200Y143200D02*
X30600Y144000D01*
X30200Y144800D01*
X31000Y144400D01*
X31800Y144800D01*
X31400Y144000D01*
X31800Y143200D01*
X31000Y143600D01*
X30200Y143200D01*
Y133200D02*
X30600Y134000D01*
X30200Y134800D01*
X31000Y134400D01*
X31800Y134800D01*
X31400Y134000D01*
X31800Y133200D01*
X31000Y133600D01*
X30200Y133200D01*
X269869Y263629D02*
X270269D01*
X270669Y264029D01*
X271069Y263629D01*
X271469D01*
Y264029D01*
X271069Y264429D01*
X271469Y264829D01*
Y265229D01*
X271069D01*
X270669Y264829D01*
X270269Y265229D01*
X269869D01*
Y264829D01*
X270269Y264429D01*
X269869Y264029D01*
Y263629D01*
Y211897D02*
X270269D01*
X270669Y212297D01*
X271069Y211897D01*
X271469D01*
Y212297D01*
X271069Y212697D01*
X271469Y213097D01*
Y213497D01*
X271069D01*
X270669Y213097D01*
X270269Y213497D01*
X269869D01*
Y213097D01*
X270269Y212697D01*
X269869Y212297D01*
Y211897D01*
X260000Y223984D02*
X259200Y225584D01*
X260800D01*
X260000Y223984D01*
Y233826D02*
X259200Y235426D01*
X260800D01*
X260000Y233826D01*
X260000Y251542D02*
X259200Y253142D01*
X260800D01*
X260000Y251542D01*
X260000Y241700D02*
X259200Y243300D01*
X260800D01*
X260000Y241700D01*
X55200Y248500D02*
X56000Y249300D01*
X56800Y248500D01*
X56000Y247700D01*
X55200Y248500D01*
X25672D02*
X26472Y249300D01*
X27272Y248500D01*
X26472Y247700D01*
X25672Y248500D01*
X221500Y125200D02*
X221900Y125600D01*
X222300D01*
X221900Y126000D01*
X222300Y126400D01*
X221900D01*
X221500Y126800D01*
X221100Y126400D01*
X220700D01*
X221100Y126000D01*
X220700Y125600D01*
X221100D01*
X221500Y125200D01*
Y106302D02*
X221900Y106702D01*
X222300D01*
X221900Y107102D01*
X222300Y107502D01*
X221900D01*
X221500Y107902D01*
X221100Y107502D01*
X220700D01*
X221100Y107102D01*
X220700Y106702D01*
X221100D01*
X221500Y106302D01*
X80594Y92200D02*
X80994Y92600D01*
X81394D01*
X80994Y93000D01*
X81394Y93400D01*
X80994D01*
X80594Y93800D01*
X80194Y93400D01*
X79795D01*
X80194Y93000D01*
X79795Y92600D01*
X80194D01*
X80594Y92200D01*
X86500D02*
X86900Y92600D01*
X87300D01*
X86900Y93000D01*
X87300Y93400D01*
X86900D01*
X86500Y93800D01*
X86100Y93400D01*
X85700D01*
X86100Y93000D01*
X85700Y92600D01*
X86100D01*
X86500Y92200D01*
X108000Y87700D02*
X108400Y88100D01*
X108800D01*
X108400Y88500D01*
X108800Y88900D01*
X108400D01*
X108000Y89300D01*
X107600Y88900D01*
X107200D01*
X107600Y88500D01*
X107200Y88100D01*
X107600D01*
X108000Y87700D01*
Y68802D02*
X108400Y69202D01*
X108800D01*
X108400Y69602D01*
X108800Y70002D01*
X108400D01*
X108000Y70402D01*
X107600Y70002D01*
X107200D01*
X107600Y69602D01*
X107200Y69202D01*
X107600D01*
X108000Y68802D01*
X107200Y260700D02*
Y262300D01*
X108800D01*
Y260700D01*
X107200D01*
X107600Y261100D02*
Y261900D01*
X108400D01*
Y261100D01*
X107600D01*
X169090Y308200D02*
Y309800D01*
X170690D01*
Y308200D01*
X169090D01*
X169490Y308600D02*
Y309400D01*
X170290D01*
Y308600D01*
X169490D01*
X89700Y249200D02*
Y250800D01*
X91300D01*
Y249200D01*
X89700D01*
X90100Y249600D02*
Y250400D01*
X90900D01*
Y249600D01*
X90100D01*
X27200Y90200D02*
Y91800D01*
X28800D01*
Y90200D01*
X27200D01*
X27600Y90600D02*
Y91400D01*
X28400D01*
Y90600D01*
X27600D01*
X17700Y78200D02*
Y79800D01*
X19300D01*
Y78200D01*
X17700D01*
X18100Y78600D02*
Y79400D01*
X18900D01*
Y78600D01*
X18100D01*
X69700Y155700D02*
Y157300D01*
X71300D01*
Y155700D01*
X69700D01*
X70100Y156100D02*
Y156900D01*
X70900D01*
Y156100D01*
X70100D01*
X52700Y127200D02*
Y128800D01*
X54300D01*
Y127200D01*
X52700D01*
X53100Y127600D02*
Y128400D01*
X53900D01*
Y127600D01*
X53100D01*
X79434Y199700D02*
Y201300D01*
X81034D01*
Y199700D01*
X79434D01*
X79834Y200100D02*
Y200900D01*
X80634D01*
Y200100D01*
X79834D01*
X65009Y173200D02*
Y174800D01*
X66609D01*
Y173200D01*
X65009D01*
X65409Y173600D02*
Y174400D01*
X66209D01*
Y173600D01*
X65409D01*
X52330Y185830D02*
Y187430D01*
X53930D01*
Y185830D01*
X52330D01*
X52730Y186230D02*
Y187030D01*
X53530D01*
Y186230D01*
X52730D01*
X54700Y223984D02*
Y225584D01*
X56300D01*
Y223984D01*
X54700D01*
X55100Y224383D02*
Y225184D01*
X55900D01*
Y224383D01*
X55100D01*
X42200Y226200D02*
Y227800D01*
X43800D01*
Y226200D01*
X42200D01*
X42600Y226600D02*
Y227400D01*
X43400D01*
Y226600D01*
X42600D01*
X30200Y166700D02*
Y168300D01*
X31800D01*
Y166700D01*
X30200D01*
X30600Y167100D02*
Y167900D01*
X31400D01*
Y167100D01*
X30600D01*
X168921Y240161D02*
Y241761D01*
X170521D01*
Y240161D01*
X168921D01*
X169321Y240561D02*
Y241361D01*
X170121D01*
Y240561D01*
X169321D01*
X168201Y116661D02*
Y118261D01*
X169801D01*
Y116661D01*
X168201D01*
X168601Y117061D02*
Y117861D01*
X169401D01*
Y117061D01*
X168601D01*
X156701Y64661D02*
Y66261D01*
X158301D01*
Y64661D01*
X156701D01*
X157101Y65061D02*
Y65861D01*
X157901D01*
Y65061D01*
X157101D01*
X222700Y54200D02*
Y55800D01*
X224300D01*
Y54200D01*
X222700D01*
X223100Y54600D02*
Y55400D01*
X223900D01*
Y54600D01*
X223100D01*
X47700Y54700D02*
Y56300D01*
X49300D01*
Y54700D01*
X47700D01*
X48100Y55100D02*
Y55900D01*
X48900D01*
Y55100D01*
X48100D01*
X228200Y49200D02*
Y50800D01*
X229800D01*
Y49200D01*
X228200D01*
X228600Y49600D02*
Y50400D01*
X229400D01*
Y49600D01*
X228600D01*
X262074Y72200D02*
Y73800D01*
X263674D01*
Y72200D01*
X262074D01*
X262474Y72600D02*
Y73400D01*
X263274D01*
Y72600D01*
X262474D01*
X260574Y127200D02*
Y128800D01*
X262174D01*
Y127200D01*
X260574D01*
X260974Y127600D02*
Y128400D01*
X261774D01*
Y127600D01*
X260974D01*
X252700Y128700D02*
Y130300D01*
X254300D01*
Y128700D01*
X252700D01*
X253100Y129100D02*
Y129900D01*
X253900D01*
Y129100D01*
X253100D01*
X181200Y202200D02*
Y203800D01*
X182800D01*
Y202200D01*
X181200D01*
X181600Y202600D02*
Y203400D01*
X182400D01*
Y202600D01*
X181600D01*
X209700Y157200D02*
Y158800D01*
X211300D01*
Y157200D01*
X209700D01*
X210100Y157600D02*
Y158400D01*
X210900D01*
Y157600D01*
X210100D01*
X208047Y152854D02*
Y154454D01*
X209647D01*
Y152854D01*
X208047D01*
X208447Y153253D02*
Y154053D01*
X209246D01*
Y153253D01*
X208447D01*
X238191Y80200D02*
Y81800D01*
X239791D01*
Y80200D01*
X238191D01*
X238591Y80600D02*
Y81400D01*
X239390D01*
Y80600D01*
X238591D01*
X243200Y69700D02*
Y71300D01*
X244800D01*
Y69700D01*
X243200D01*
X243600Y70100D02*
Y70900D01*
X244400D01*
Y70100D01*
X243600D01*
X249700Y23200D02*
Y24800D01*
X251300D01*
Y23200D01*
X249700D01*
X250100Y23600D02*
Y24400D01*
X250900D01*
Y23600D01*
X250100D01*
X245424Y8200D02*
Y9800D01*
X247024D01*
Y8200D01*
X245424D01*
X245824Y8600D02*
Y9400D01*
X246623D01*
Y8600D01*
X245824D01*
X271074Y56200D02*
Y57800D01*
X272674D01*
Y56200D01*
X271074D01*
X271474Y56600D02*
Y57400D01*
X272274D01*
Y56600D01*
X271474D01*
X307700Y51700D02*
Y53300D01*
X309300D01*
Y51700D01*
X307700D01*
X308100Y52100D02*
Y52900D01*
X308900D01*
Y52100D01*
X308100D01*
X279200Y142700D02*
Y144300D01*
X280800D01*
Y142700D01*
X279200D01*
X279600Y143100D02*
Y143900D01*
X280400D01*
Y143100D01*
X279600D01*
X77700Y28753D02*
Y30353D01*
X79300D01*
Y28753D01*
X77700D01*
X78100Y29153D02*
Y29953D01*
X78900D01*
Y29153D01*
X78100D01*
X50200Y37700D02*
Y39300D01*
X51800D01*
Y37700D01*
X50200D01*
X50600Y38100D02*
Y38900D01*
X51400D01*
Y38100D01*
X50600D01*
X230960Y146960D02*
Y148560D01*
X232560D01*
Y146960D01*
X230960D01*
X231360Y147360D02*
Y148160D01*
X232160D01*
Y147360D01*
X231360D01*
X220700Y159700D02*
Y161300D01*
X222300D01*
Y159700D01*
X220700D01*
X221100Y160100D02*
Y160900D01*
X221900D01*
Y160100D01*
X221100D01*
X20200Y44700D02*
Y46300D01*
X21800D01*
Y44700D01*
X20200D01*
X20600Y45100D02*
Y45900D01*
X21400D01*
Y45100D01*
X20600D01*
D11*
X192800Y68500D02*
G03*
X192800Y68500I-800J0D01*
G01*
Y78500D02*
G03*
X192800Y78500I-800J0D01*
G01*
Y88500D02*
G03*
X192800Y88500I-800J0D01*
G01*
Y98500D02*
G03*
X192800Y98500I-800J0D01*
G01*
Y108500D02*
G03*
X192800Y108500I-800J0D01*
G01*
Y118500D02*
G03*
X192800Y118500I-800J0D01*
G01*
Y128500D02*
G03*
X192800Y128500I-800J0D01*
G01*
Y138500D02*
G03*
X192800Y138500I-800J0D01*
G01*
Y148500D02*
G03*
X192800Y148500I-800J0D01*
G01*
Y158500D02*
G03*
X192800Y158500I-800J0D01*
G01*
Y168500D02*
G03*
X192800Y168500I-800J0D01*
G01*
Y178500D02*
G03*
X192800Y178500I-800J0D01*
G01*
Y188500D02*
G03*
X192800Y188500I-800J0D01*
G01*
Y198500D02*
G03*
X192800Y198500I-800J0D01*
G01*
Y208500D02*
G03*
X192800Y208500I-800J0D01*
G01*
Y218500D02*
G03*
X192800Y218500I-800J0D01*
G01*
Y228500D02*
G03*
X192800Y228500I-800J0D01*
G01*
Y238500D02*
G03*
X192800Y238500I-800J0D01*
G01*
Y248500D02*
G03*
X192800Y248500I-800J0D01*
G01*
Y258500D02*
G03*
X192800Y258500I-800J0D01*
G01*
X132800Y68500D02*
G03*
X132800Y68500I-800J0D01*
G01*
Y78500D02*
G03*
X132800Y78500I-800J0D01*
G01*
Y88500D02*
G03*
X132800Y88500I-800J0D01*
G01*
Y98500D02*
G03*
X132800Y98500I-800J0D01*
G01*
Y108500D02*
G03*
X132800Y108500I-800J0D01*
G01*
Y118500D02*
G03*
X132800Y118500I-800J0D01*
G01*
Y128500D02*
G03*
X132800Y128500I-800J0D01*
G01*
Y138500D02*
G03*
X132800Y138500I-800J0D01*
G01*
Y148500D02*
G03*
X132800Y148500I-800J0D01*
G01*
Y158500D02*
G03*
X132800Y158500I-800J0D01*
G01*
Y168500D02*
G03*
X132800Y168500I-800J0D01*
G01*
Y178500D02*
G03*
X132800Y178500I-800J0D01*
G01*
Y188500D02*
G03*
X132800Y188500I-800J0D01*
G01*
Y198500D02*
G03*
X132800Y198500I-800J0D01*
G01*
Y208500D02*
G03*
X132800Y208500I-800J0D01*
G01*
Y218500D02*
G03*
X132800Y218500I-800J0D01*
G01*
Y228500D02*
G03*
X132800Y228500I-800J0D01*
G01*
Y238500D02*
G03*
X132800Y238500I-800J0D01*
G01*
Y248500D02*
G03*
X132800Y248500I-800J0D01*
G01*
Y258500D02*
G03*
X132800Y258500I-800J0D01*
G01*
X64300Y300500D02*
G03*
X64300Y300500I-800J0D01*
G01*
X87922D02*
G03*
X87922Y300500I-800J0D01*
G01*
X80048D02*
G03*
X80048Y300500I-800J0D01*
G01*
X72174D02*
G03*
X72174Y300500I-800J0D01*
G01*
X186926Y46500D02*
G03*
X186926Y46500I-800J0D01*
G01*
X194800D02*
G03*
X194800Y46500I-800J0D01*
G01*
X202674D02*
G03*
X202674Y46500I-800J0D01*
G01*
X153926D02*
G03*
X153926Y46500I-800J0D01*
G01*
X161800D02*
G03*
X161800Y46500I-800J0D01*
G01*
X169674D02*
G03*
X169674Y46500I-800J0D01*
G01*
X265300Y18000D02*
G03*
X265300Y18000I-800J0D01*
G01*
X273174D02*
G03*
X273174Y18000I-800J0D01*
G01*
X265300Y41000D02*
G03*
X265300Y41000I-800J0D01*
G01*
X273174D02*
G03*
X273174Y41000I-800J0D01*
G01*
X240237Y18000D02*
G03*
X240237Y18000I-800J0D01*
G01*
X232363D02*
G03*
X232363Y18000I-800J0D01*
G01*
X240237Y41000D02*
G03*
X240237Y41000I-800J0D01*
G01*
X232363D02*
G03*
X232363Y41000I-800J0D01*
G01*
X6800Y255894D02*
G03*
X6800Y255894I-800J0D01*
G01*
Y232272D02*
G03*
X6800Y232272I-800J0D01*
G01*
Y240146D02*
G03*
X6800Y240146I-800J0D01*
G01*
Y248020D02*
G03*
X6800Y248020I-800J0D01*
G01*
X294269Y128933D02*
G03*
X294269Y128933I-800J0D01*
G01*
X294269Y113185D02*
G03*
X294269Y113185I-800J0D01*
G01*
M02*
